<svg version="1.1" id="Layer_1" xmlns="http://www.w3.org/2000/svg"
  xmlns:xlink="http://www.w3.org/1999/xlink" x="0px" y="0px" viewBox="0 0 273 65"
  style="enable-background:new 0 0 273 65;" xml:space="preserve">
<g>
	<g id="_x3C_Group_x3E__1_">
		<path d="M40.5,18.3c-0.3-6.6-2.6-11.4-5.7-14c-3.3-2.8-9.5-3.9-14.3-3.9S9.5,1.5,6.2,4.3c-3.1,2.6-5.3,7.5-5.7,14
			C0.2,24.4,1.5,31.2,5,35c3.4,3.7,10.1,4.9,15.4,4.9l0,0l0,0c5.2,0,12-1.2,15.4-4.9C39.5,31.2,40.8,24.4,40.5,18.3z M19.5,2
			c0.7,0,0.8,0,1.1,0s0.4,0,1.1,0v14.4c-0.2,0-2.1,0-2.3,0L19.5,2z M3.3,24.3C3.1,21.8,2.4,12.8,5.9,7.7C7.4,5.5,9.7,4,12,3.2
			C15.2,2.1,18.9,2,18.9,2c-1.5,3.6-4.5,11.4-5.1,13.1c-0.7,2.1-1.3,3.3-1.9,7.1c-0.4,3.1-1.1,10.9-1.3,14.3
			C6.4,34.5,3.9,30.6,3.3,24.3z M30.1,36.7c-2.9,1.2-6.5,1.5-9.5,1.6c-3-0.1-6.6-0.3-9.5-1.6l0,0c1-2.6,5.6-13.8,8.2-18.1l0,0l0,0
			c0.2,0,2.4,0,2.6,0l0,0l0,0C24.5,22.9,29.1,34.1,30.1,36.7L30.1,36.7z M37.8,24.3c-0.5,6.3-3.1,10.1-7.3,12.2
			c-0.2-3.4-0.9-11.2-1.3-14.3c-0.6-3.8-1.2-5-1.9-7.1c-0.6-1.7-3.6-9.5-5.1-13.1c0,0,3.8,0.1,6.9,1.2c2.3,0.8,4.5,2.3,6.1,4.5
			C38.8,12.9,38,21.8,37.8,24.3z"></path>
		<g>
			<polyline points="64.9,3.5 73.9,3.5 94,36.8 84.5,36.8 69.4,11.6 61.4,24.8 74.3,24.8 78.1,31.1 57.6,31.1 54.2,36.8 44.8,36.8 
				64.9,3.5 			"></polyline>
			<path d="M188.9,36.8h-8.1V3.5h30.5c10.6,0,13.3,14.1,5.9,18.9c3.2,1.2,3.8,5.3,3.9,6.6l0.3,7.7h-8l-0.2-6.8c-0.2-2.9-2-4.9-5-4.9
				h-15.5l-1.6-6.9H209c2.8,0,4.4-1.3,4.4-3.8c0-2.3-1.6-3.8-4.4-3.8h-20L188.9,36.8"></path>
			<path d="M155.8,36.8h7.4c8.7,0,12.2-4.8,12.2-12.7V3.5h-8.2v22c0,4.2-2.9,4.7-5.6,4.8h-11.8c-2.7-0.1-5.5-0.6-5.6-4.8v-22H136
				v20.6c0,7.8,3.5,12.7,12.2,12.7H155.8"></path>
			<path d="M101.7,20.1v-4.2c0.1-2.9,0.6-5.7,4.6-5.6h25V3.5h-25.1c-7.8,0-12.7,3.5-12.7,12.2v8.8c0.1,8.7,4.9,12.2,12.7,12.2h25.1
				v-6.8h-25c-4,0-4.5-2.8-4.6-5.7V20.1"></path>
			<polyline points="243.5,3.5 252.5,3.5 272.6,36.8 263.1,36.8 248,11.6 240,24.8 252.9,24.8 256.7,31.1 236.2,31.1 232.8,36.8 
				223.4,36.8 243.5,3.5 			"></polyline>
		</g>
	</g>
	<g class="slogan">
		<g>
			<path d="M0.6,53.4h4.3c1.7,0,3,1.4,3,3.1s-1.3,3.1-3,3.1H1.7v4.5H0.6V53.4z M1.7,54.5v4.1h3.2c1,0,1.8-1,1.8-2
				c0-1.1-0.8-2.1-1.8-2.1H1.7z"></path>
			<path d="M14.6,58.3c1,0,1.7-0.8,1.7-1.8c0-1.1-0.8-1.9-1.8-1.9h-3.2v9.7h-1.1V53.6h4.4c1.7,0,3,1.3,3,3c0,1.8-1.2,2.9-2.9,2.9
				h-0.6l3.2,4.8h-1.5l-3.9-5.9h2.7V58.3z"></path>
			<path d="M25.5,53.4v1.1h-5v3.8h5v1.1h-5v3.8h5v1.1h-6.2V53.6h6.2V53.4z"></path>
			<path d="M27.7,58.8c0-3.1,2.5-5.6,5.6-5.6c1.5,0,2.6,0.4,3.9,1.5l-0.7,0.9c-1.4-1.1-2.2-1.2-3.2-1.2c-2.5,0-4.4,2.1-4.4,4.5
				s2,4.5,4.4,4.5c1.1,0,1.9-0.2,3.2-1.2l0.7,0.9c-1.3,1.1-2.4,1.5-3.9,1.5C30.2,64.4,27.7,61.9,27.7,58.8z"></path>
			<path d="M40.2,64.2h-1.1V53.5h1.1V64.2z"></path>
			<path d="M47.4,55.9c0-1-0.7-1.7-1.8-1.7c-1,0-1.7,0.8-1.7,1.7c0,1.2,1.1,1.7,2.2,2.2c1.8,0.8,2.9,1.5,2.9,3.4s-1.5,2.9-3.3,2.9
				c-1.9,0-3.3-1.2-3.3-3h1.1c0,1.1,1,1.9,2.2,1.9c1.3,0,2.2-0.7,2.2-1.9c0-1.2-0.8-1.7-2.3-2.4c-1.5-0.7-2.8-1.3-2.8-3.2
				c0-1.6,1.1-2.7,2.9-2.7c1.8,0,2.9,1,2.9,2.7h-1.2V55.9z"></path>
			<path d="M51.9,64.2h-1.1V53.5h1.1V64.2z"></path>
			<path d="M59.5,53.2c3.1,0,5.6,2.5,5.6,5.6s-2.6,5.6-5.6,5.6s-5.6-2.5-5.6-5.6S56.4,53.2,59.5,53.2z M59.5,63.3
				c2.5,0,4.4-2.1,4.4-4.5s-2-4.5-4.4-4.5s-4.4,2.1-4.4,4.5S57.1,63.3,59.5,63.3z"></path>
			<path d="M68.3,55.2v8.9h-1.1V53.4h1.1l6.8,9v-9h1.1v10.7h-1.1L68.3,55.2z"></path>
		</g>
		<g>
			<path d="M86,58.8c0-3.1,2.5-5.6,5.6-5.6c1.5,0,2.6,0.4,3.9,1.5l-0.7,0.9c-1.4-1.1-2.2-1.2-3.2-1.2c-2.5,0-4.4,2.1-4.4,4.5
				s2,4.5,4.4,4.5c1.1,0,1.9-0.2,3.2-1.2l0.7,0.9c-1.3,1.1-2.4,1.5-3.9,1.5C88.5,64.4,86,61.9,86,58.8z"></path>
			<path d="M101.8,58.3c1,0,1.7-0.8,1.7-1.8c0-1.1-0.8-1.9-1.8-1.9h-3.2v9.7h-1.1V53.6h4.4c1.7,0,3,1.3,3,3c0,1.8-1.2,2.9-2.9,2.9
				h-0.6l3.2,4.8h-1.3l-3.9-5.9h2.5V58.3z"></path>
			<path d="M114.1,64.2l-3.7-9.2l-1.8,4.6h2.6l0.4,1.1h-3.5l-1.4,3.5h-1.2l4.3-10.7h1.1l4.4,10.7H114.1z"></path>
			<path d="M123.1,53.4v1.1h-5v3.8h5v1.1h-5v4.8H117V53.5L123.1,53.4L123.1,53.4z"></path>
			<path d="M133.4,53.4v1.1h-3.5v9.7h-1.1v-9.7h-3.5v-1.1H133.4z"></path>
			<path d="M141.7,53.4v1.1h-5v3.8h5v1.1h-5v3.8h5v1.1h-6.2V53.6h6.2V53.4z"></path>
			<path d="M146.9,53.4c3,0,5.1,2.4,5.1,5.4s-2.1,5.4-5.1,5.4h-3V53.5L146.9,53.4L146.9,53.4z M146.9,63.1c2.3,0,3.9-1.9,3.9-4.3
				c0-2.3-1.6-4.3-3.9-4.3H145v8.6L146.9,63.1L146.9,63.1z"></path>
		</g>
		<g>
			<path d="M160.9,53.4h4.3c1.7,0,3,1.4,3,3.1s-1.3,3.1-3,3.1H162v4.5h-1.1L160.9,53.4L160.9,53.4z M162.1,54.5v4.1h3.2
				c1,0,1.8-1,1.8-2c0-1.1-0.8-2.1-1.8-2.1H162.1z"></path>
			<path d="M176.6,53.4v1.1h-5v3.8h5v1.1h-5v3.8h5v1.1h-6.2V53.6h6.2V53.4z"></path>
			<path d="M183.3,58.3c1,0,1.7-0.8,1.7-1.8c0-1.1-0.8-1.9-1.8-1.9H180v9.7h-1.1V53.6h4.4c1.7,0,3,1.3,3,3c0,1.8-1.2,2.9-2.9,2.9
				h-0.6l3.2,4.8h-1.3l-3.9-5.9h2.5V58.3z"></path>
			<path d="M194.4,53.4v1.1h-5v3.8h5v1.1h-5v4.8h-1.1V53.5L194.4,53.4L194.4,53.4z"></path>
			<path d="M202.1,53.2c3.1,0,5.6,2.5,5.6,5.6s-2.6,5.6-5.6,5.6s-5.6-2.5-5.6-5.6S199,53.2,202.1,53.2z M202.1,63.3
				c2.5,0,4.4-2.1,4.4-4.5s-2-4.5-4.4-4.5s-4.4,2.1-4.4,4.5S199.6,63.3,202.1,63.3z"></path>
			<path d="M214.3,58.3c1,0,1.7-0.8,1.7-1.8c0-1.1-0.8-1.9-1.8-1.9H211v9.7h-1.2V53.6h4.4c1.7,0,3,1.3,3,3c0,1.8-1.2,2.9-2.9,2.9
				h-0.6l3.2,4.8h-1.3l-3.9-5.9h2.6V58.3z"></path>
			<path d="M225,59.6l4.6-6.2h1.1v10.7h-1.1v-8.9l-4,5.4h-1.2l-4-5.4v8.9h-1.1V53.4h1.1L225,59.6L225,59.6z"></path>
			<path d="M241,64.2l-3.7-9.2l-1.8,4.6h2.6l0.4,1.1H235l-1.4,3.5h-1.2l4.3-10.7h1.1l4.4,10.7H241z"></path>
			<path d="M245.2,55.2v8.9h-1.1V53.4h1.1l6.8,9v-9h1.1v10.7H252L245.2,55.2z"></path>
			<path d="M255,58.8c0-3.1,2.5-5.6,5.6-5.6c1.5,0,2.6,0.4,3.9,1.5l-0.7,0.9c-1.4-1.1-2.2-1.2-3.2-1.2c-2.5,0-4.4,2.1-4.4,4.5
				s2,4.5,4.4,4.5c1.1,0,1.9-0.2,3.2-1.2l0.7,0.9c-1.3,1.1-2.4,1.5-3.9,1.5C257.5,64.4,255,61.9,255,58.8z"></path>
			<path d="M272.6,53.4v1.1h-5v3.8h5v1.1h-5v3.8h5v1.1h-6.2V53.6h6.2V53.4z"></path>
		</g>
	</g>
</g>
</svg>