<svg version="1.1" id="Layer_1" xmlns="http://www.w3.org/2000/svg" xmlns:xlink="http://www.w3.org/1999/xlink" x="0px" y="0px" viewBox="0 0.3 173.9 91.60000000000001" style="enable-background:new 0 0 174 92;" xml:space="preserve"><style type="text/css">
	.st0{fill:#28465E;}
	.st1{fill:#D82C26;}
	.st2{fill:#A8162C;}
</style><path class="st0" d="M22,91.9c-3.9,0-7.1-1.3-9.3-2.9c-0.4-0.3-1,0-1,0.5V91H0V33.3h11.7v18.6c0,0.5,0.6,0.8,1,0.5
	c2.2-1.5,5.4-2.7,9.3-2.7c11.1,0,20.1,8.4,20.1,21.1C42.2,83.8,33.1,91.9,22,91.9 M20.9,81.3c5.3,0,9.4-4.3,9.4-10.5
	s-4-10.5-9.4-10.5c-5.3,0-9.4,4.3-9.4,10.5C11.5,77.1,15.5,81.3,20.9,81.3"/><path class="st0" d="M64,91.9c-11.1,0-20.1-8.1-20.1-21c0-12.7,9-21.1,20.1-21.1c3.9,0,7.2,1.3,9.3,2.7c0.4,0.3,1,0,1-0.5V33.3H86
	V91H74.4v-1.5c0-0.5-0.6-0.8-1-0.5C71.1,90.6,67.9,91.9,64,91.9 M65.2,81.3c5.3,0,9.4-4.3,9.4-10.5s-4-10.5-9.4-10.5
	s-9.4,4.3-9.4,10.5C55.8,77.1,59.8,81.3,65.2,81.3"/><path class="st0" d="M118.8,75.7c-2.5,3.3-5.3,5.3-9.4,5.3c-5.5,0-9.8-4.2-9.8-10.1s4.3-10.1,9.8-10.1c3.7,0,6.2,1.9,8.5,4.7
	l7.8-7.8c-4.2-4.7-9.2-7.9-16.7-7.9c-12.1,0-21.3,9-21.3,21.1s9.2,21,21.3,21c7.7,0,13.5-3.1,17.6-8.4
	C126.6,83.5,118.8,75.7,118.8,75.7z"/><path class="st1" d="M146.8,57.6V0.3H139v15.4c0,0.8-0.7,1.5-1.5,1.5c-0.3,0-0.5-0.1-0.7-0.2l-12.2-5.7l-6.1,13l11.8,5.5
	c0.5,0.2,0.9,0.8,0.9,1.4c0,0.4-0.2,0.8-0.5,1.1l-9.4,9.4l10.2,10.2l9.5-9.5c0.3-0.3,0.7-0.5,1.1-0.5c0.8,0,1.5,0.7,1.5,1.5v14.4
	h2.6L146.8,57.6z"/><path class="st2" d="M146.3,57.8h2.5V43.4c0-0.8,0.7-1.5,1.5-1.5c0.4,0,0.8,0.2,1.1,0.5l9.5,9.5l10.2-10.2l-9.4-9.4
	c-0.3-0.3-0.5-0.7-0.5-1.1c0-0.6,0.4-1.2,0.9-1.4l11.8-5.5l-6.1-13L155.6,17c-0.2,0.1-0.4,0.2-0.7,0.2c-0.8,0-1.5-0.7-1.5-1.5V0.3
	h-7.2L146.3,57.8L146.3,57.8z"/></svg>