<svg viewBox="0 0.5 183 43" fill="none" xmlns="http://www.w3.org/2000/svg"
  class="styles_footerBrandLogo__xIbfc">
  <path
    d="M170.575 11.4634C165.81 11.4634 162.98 13.2885 160.989 15.7816L157.052 11.8057H152.782V43.1095H161.23V27.1162C161.23 21.6956 163.708 18.5285 168.296 18.5285C172.618 18.5285 174.552 21.3306 174.552 26.6292V43.108H183V25.7765C183 15.0573 177.27 11.4634 170.575 11.4634Z"
    fill="currentColor" />
  <path
    d="M103.859 23.9278L102.237 23.7317C98.4672 23.2759 96.3523 22.8584 96.3523 20.7949C96.3523 18.7108 98.5235 17.493 101.769 17.493C105.392 17.493 107.744 19.0156 107.985 21.5129H116.071C115.649 15.1177 109.919 11.4026 101.937 11.4026C93.6342 11.4026 88.2665 15.4225 88.2665 21.6532C88.2665 27.8631 93.5984 29.646 100.663 30.5308L102.229 30.7269C106.717 31.289 108.287 31.6802 108.287 33.7252C108.287 36.1911 106.172 37.3486 102.669 37.3486C98.2265 37.3486 95.9304 35.4602 95.6286 32.7198H87.6031C87.9646 39.4192 93.8148 43.5 102.415 43.5C110.764 43.5 116.554 39.6547 116.554 32.9752C116.554 26.6045 111.129 24.8067 103.859 23.9278Z"
    fill="currentColor" />
  <path
    d="M134.236 11.4634C124.345 11.4634 117.891 17.8586 117.891 27.4813C117.891 37.1046 124.345 43.4998 134.236 43.4998C144.128 43.4998 150.582 37.1656 150.582 27.4813C150.582 17.8586 144.128 11.4634 134.236 11.4634ZM134.236 36.4957C129.359 36.4957 126.464 32.7806 126.464 27.4813C126.464 22.1833 129.359 18.4675 134.236 18.4675C139.114 18.4675 142.069 22.1833 142.069 27.4813C142.069 32.7806 139.114 36.4957 134.236 36.4957Z"
    fill="currentColor" />
  <path
    d="M76.8569 16.582L72.1292 11.8057L68.3812 11.8059L68.3876 43.108H76.8065V27.7626C76.8065 23.0126 78.7369 19.6016 83.803 19.6016H87.2372V11.8057H85.7335C80.9081 11.8057 78.4333 13.78 76.8569 16.582Z"
    fill="currentColor" />
  <path
    d="M56.3115 11.8057V27.4816C56.3115 33.268 53.8948 36.3741 49.3721 36.3741C45.1133 36.3741 43.4161 33.633 43.4161 28.0303V11.8052L34.968 11.8051V29.1871C34.968 40.2721 40.8793 43.4995 47.1315 43.4995C51.6755 43.4995 54.5127 41.7558 56.3903 39.2627L60.1939 43.108H64.7246L64.7034 11.8057H56.3115Z"
    fill="currentColor" />
  <path
    d="M23.6917 21.1515C28.3482 20.1159 31.4846 17.1275 31.4846 11.7679C31.4846 4.64181 25.8148 0.5 16.0442 0.5H0V43.1095L16.8283 43.108C27.2021 43.108 32.9925 38.4447 32.9925 31.0145C32.9925 24.9234 29.0761 21.8823 23.6917 21.1515ZM8.87887 7.74383H16.4537C20.3742 7.74383 22.6058 9.69731 22.6058 12.8645C22.6058 16.0309 20.3138 18.0412 16.4537 18.0412H8.87887V7.74383ZM17.0574 35.8297H8.87887V25.1063H17.0574C21.3394 25.1063 23.8728 27.1166 23.8728 30.5171C23.8728 33.8769 21.3998 35.8297 17.0574 35.8297Z"
    fill="currentColor" />
</svg>