<?xml version="1.0" encoding="utf-8"?>
<!-- Generator: Adobe Illustrator 21.0.0, SVG Export Plug-In . SVG Version: 6.00 Build 0)  -->
<svg xmlns="http://www.w3.org/2000/svg" width="194.75" height="100" viewBox="0 0 194.75 100">
  <defs>
    <style>
      .logo-style { fill: #000000; }
    </style>
  </defs>
  <title>
    CNIB Foundation
  </title>
<desc  id="cnib-logo-description">
	The letters CNIB on a background that looks like a brushstroke. Below is the word &apos;Foundation&apos;.</desc>
<path d="M183.4,56.3L183.4,56.3c-0.1,0.5-0.7,0.6-0.9,1c-0.1,0.5-0.3,0.9-0.7,1.2c-0.2,0.2-0.3,0.2-0.4-0.1s-0.1-0.6-0.5-0.7
	c0,0,0-0.1,0-0.2c0.3-0.1,0.4-0.3,0.5-0.6c0,0,0.2-0.1,0.2,0c0.1,0.1,0.2,0.1,0.2,0.2c0.2-0.2,0.4-0.3,0.5-0.5c0,0-0.1-0.2-0.1-0.3
	c-0.4-0.2-0.4-0.4-0.1-0.7c0.1-0.1,0.1-0.3,0.3-0.4c0.1-0.1,0.1-0.1,0.2-0.1c0.1,0.1,0.1,0.1,0.1,0.2c0,0.2-0.1,0.3-0.2,0.5
	c0,0.1,0,0.3,0.1,0.3h0.1c0.3,0,0.5-0.1,0.8-0.3s0.5-0.4,0-0.7c-0.2-0.1-0.2-0.3-0.2-0.4s0.4-0.2,0.6-0.1l0.1,0.2
	c-0.4,0.2-0.2,0.5,0,0.7s0.1,0.4,0,0.6S183.8,56.4,183.4,56.3 M183.6,45.7V46c0.3,0.5,0,0.8-0.3,1.1c-0.3,0.2-0.4,0.4-0.5,0.7
	s-0.4,0.3-0.5,0.1c0-0.1,0-0.2,0-0.3c0.1-0.1,0.2-0.2,0.4-0.3c0.5-0.2,0.5-0.5,0.5-1c0-0.1-0.1-0.3-0.1-0.3c-0.1,0-0.3,0-0.4,0.1
	c-0.1,0-0.1,0.1-0.1,0.1s0,0.5-0.3,0.4s-0.5-0.2-0.5-0.5c0-0.1,0-0.2-0.1-0.3l0.1-0.1c0.4,0.3,0.7,0,0.9-0.2s1-0.1,1.1-0.7
	c0,0,0.1-0.1,0.2-0.1c0.5,0,1,0,1.5,0.3c0.1,0.1,0.1,0.1,0.2,0.2c-0.1,0.1-0.2,0.3-0.3,0.3c-0.3-0.1-0.7-0.2-1-0.3
	C183.9,45,183.7,45.1,183.6,45.7L183.6,45.7L183.6,45.7z M190.7,29c0-0.1,0.1-0.3,0.1-0.3c0.2,0,0.4,0,0.6,0.1
	c0.2,0.2,0.4,0.4,0.6,0.6c0.1,0.1-0.1,0.1-0.1,0.2s0,0.4-0.1,0.5s-0.1,0.6-0.4,0.6s-0.4-0.4-0.5-0.6C190.7,29.7,190.7,29.4,190.7,29
	 M184.4,56.9h0.4c0.1,0,0.2,0.1,0.1,0.3s-0.4,0.2-0.2,0.5c0,0-0.1,0.2-0.2,0.2s-0.4,0.3-0.6,0.5s-0.3,0.1-0.4,0s-0.2-0.3-0.3-0.4
	s0-0.1,0.1-0.1s0.1-0.1,0.2,0c0,0.1,0.1,0.1,0.1,0.2l0.1-0.1c0-0.2-0.1-0.3-0.1-0.5c-0.1-0.4-0.1-0.5,0.4-0.5L184.4,56.9L184.4,56.9
	z M189.2,36.6l-0.1-0.1c0,0-0.2-0.4-0.3-0.6s-0.1-0.3,0.1-0.3c0.5,0,0.4-0.4,0.4-0.6s0-0.4,0.2-0.5s0.2,0.1,0.4,0.2s0.2,0.1,0.3,0.1
	c0,0.1,0,0.1,0,0.2c-0.1,0.1-0.2,0.1-0.3,0.2c-0.3,0.1-0.4,0.3-0.2,0.6s-0.1,0.9-0.4,0.9L189.2,36.6 M184.5,53.5
	c-0.1,0.1-0.1,0.1-0.1,0.2s-0.3,0.2-0.4,0.2s-0.4,0.3-0.7,0c-0.1-0.1-0.4,0.2-0.6,0.2c-0.1,0-0.2,0-0.3-0.1c0,0,0-0.2,0.1-0.3
	c0.3-0.5,0.4-0.6,0.8-0.4s0.8-0.1,1.1,0L184.5,53.5 M191.8,34c0.2,0.2,0.4,0.2,0.6,0.1c0.2-0.1,0.5,0.4,0.4,0.7
	c0,0.1-0.1,0.2-0.1,0.2c-0.1,0.6-0.2,0-0.3,0s-0.1,0.2-0.2,0.2c-0.2-0.1-0.6-0.1-0.7-0.3c-0.1-0.3-0.1-0.5,0-0.8
	C191.6,34.1,191.7,34,191.8,34 M196.8,17.3c-0.1,0.2-0.3,0.3-0.4,0.4c-0.3,0.1-0.6,0.2-0.9,0.2c-0.1,0-0.2-0.1-0.3-0.1
	c0.1-0.1,0.1-0.4,0.3-0.3s0.3,0,0.4-0.2c0-0.1,0-0.2,0.1-0.3c0.2-0.2,0.3-0.3,0.5-0.4C196.6,16.8,196.7,17.1,196.8,17.3 M195.2,32.9
	c-0.1-0.1-0.4-0.2-0.4-0.4s-0.3-0.5,0-0.8c0.1-0.1,0.3-0.1,0.5-0.1c0.2,0.1,0.6-0.3,0.6,0.1c0.1,0.4-0.3,0.2-0.5,0.3s-0.1,0.2,0,0.3
	s0.2,0,0.4,0.1s0.2,0.2,0.2,0.2s-0.1,0.2-0.2,0.2C195.6,32.8,195.5,32.8,195.2,32.9L195.2,32.9 M191.8,35.6h0.2
	c0.1,0,0.1,0.1,0.1,0.2c0,0.1,0,0.1-0.1,0.2c-0.4,0.2-0.8,0.4-1.2,0.5c-0.2,0-0.3-0.1-0.2-0.3C190.9,35.7,191.4,35.5,191.8,35.6
	 M185.8,7.6C185.9,7.6,185.8,7.6,185.8,7.6c0-0.1,0-0.1,0-0.2c0.3-0.4,0.7-0.6,1.1-0.5c0.1,0,0.2,0.2,0.4,0.3L187,7.5
	c-0.3,0.2-0.2-0.2-0.3-0.2s-0.1,0.3-0.2,0.3C186.3,7.7,186,7.7,185.8,7.6 M184.4,52.7c0,0-0.2-0.1-0.3-0.3s0.1-0.3,0.1-0.3
	c0.3,0.1,0.6-0.3,0.9,0c0.1,0.1,0.2,0.1,0.3,0.2c-0.1,0.1-0.1,0.3-0.2,0.3C184.9,52.7,184.7,52.7,184.4,52.7 M192.3,22
	c0.4,0.2,0.4,0.2,0.5-0.3c0-0.1,0.1-0.1,0.2-0.2c0.1,0.1,0.2,0.2,0.4,0.3s0.4,0.1,0.2,0.4s-0.1,0.5-0.5,0.2
	c-0.2-0.1-0.4-0.1-0.6-0.1S192.4,22.1,192.3,22 M196.2,24.3l0.4-0.3c0.1-0.1,0.3-0.3,0.4-0.3c0.2,0.1,0.4,0.3,0.5,0.5
	c0,0.1-0.1,0.1-0.1,0.1C196.8,24.7,196.8,24.7,196.2,24.3 M196.2,24.3c-0.4-0.2-0.9-0.2-1.3,0c-0.1,0-0.2-0.1-0.2-0.1
	c0-0.1,0-0.2,0.1-0.3c0.2-0.1,0.6,0.1,0.7-0.3h0.1c0.2,0.2,0.4,0.3,0.6,0.5L196.2,24.3 M186.5,48.9L186.5,48.9l-0.1,0.1l-0.4-0.3
	c-0.1,0-0.2-0.1-0.3-0.1c-0.2,0.1-0.4,0-0.3-0.2c0-0.2,0.1-0.3,0.2-0.4c0.1-0.1,0.3,0.1,0.4,0.2s0.3,0.2,0.4,0.4
	C186.4,48.7,186.5,48.8,186.5,48.9 M190.1,33.5c0,0.3-0.2,0.6-0.6,0.7c-0.1,0-0.1,0-0.2,0c0,0-0.1-0.1-0.1-0.2s0,0,0.1-0.1
	c0.3-0.2,0.6-0.4,0.5-0.8c0-0.1,0.2-0.1,0.2-0.2c0,0.1,0.1,0.2,0.1,0.2V33.5 M180.6,45v0.4c0,0-0.2,0.2-0.3,0.2s-0.2-0.1-0.2-0.3
	s0-0.5,0.1-0.7c0-0.1,0.2-0.2,0.2-0.2c0.1,0.1,0.2,0.2,0.2,0.3S180.6,44.9,180.6,45 M179.5,45.9c0.5,0.1,0.8,0.4,0.8,0.8
	c0,0.1-0.1,0.2-0.2,0.2c-0.1,0.1-0.2,0-0.2-0.2C179.8,46.4,179.8,46.1,179.5,45.9L179.5,45.9C179.4,45.9,179.5,45.9,179.5,45.9
	 M195.7,22.6c-0.1,0.2-0.2,0.4-0.5,0.3s-0.2-0.4-0.2-0.6c0-0.1,0.2-0.2,0.3-0.2C195.6,22.2,195.8,22.4,195.7,22.6L195.7,22.6
	 M176.3,42.9c-0.2,0.1-0.4,0.3-0.4,0.3c-0.2-0.1-0.3-0.2-0.3-0.4c0-0.1,0.1-0.3,0.2-0.4C175.9,42.6,176.1,42.7,176.3,42.9
	 M179.8,48.9c-0.2,0.3-0.5,0.5-0.9,0.6c-0.1,0-0.3-0.1-0.3-0.2c0-0.3,0.2,0,0.3-0.1c0.3-0.2,0.5-0.3,0.8-0.5L179.8,48.9
	C179.8,48.8,179.8,48.8,179.8,48.9 M194.2,25.5c0.1-0.2,0.1-0.4,0.2-0.5s0.1-0.3,0.2-0.3s0.2,0.1,0.4,0.1s0,0.2,0,0.2
	C194.6,25.1,194.5,25.6,194.2,25.5 M194.1,18.4l0.3,0.1c0.1,0.1,0.4,0.1,0.2,0.4s-0.2,0.2-0.4,0.1c-0.1,0-0.1,0-0.2,0
	c-0.2,0-0.3-0.1-0.2-0.3S193.9,18.5,194.1,18.4 M190.8,33.2c-0.1,0-0.2-0.1-0.3-0.2s-0.1-0.3-0.1-0.3s0.2-0.1,0.3,0s0.2,0,0.2,0.1
	c0.1,0.1,0.1,0.2,0.1,0.3C191.1,33.4,190.9,33.1,190.8,33.2 M192.6,10.4c-0.1-0.1-0.2-0.1-0.2-0.2c0-0.1,0.1-0.2,0.2-0.3
	c0.1-0.1,0.6,0.1,0.6,0.2c0,0.1,0,0.1-0.1,0.2C192.9,10.3,192.7,10.4,192.6,10.4 M182.9,37.6c0-0.1,0-0.1,0.1-0.2
	c0.1,0.1,0.2,0.2,0.3,0.3c0,0.1,0,0.2,0,0.3c-0.1,0.1-0.2,0.1-0.3,0.2c-0.1,0-0.1-0.1-0.2-0.2C182.8,37.8,182.8,37.7,182.9,37.6
	 M192.5,35.6L193,36c0,0.1,0,0.1-0.1,0.1h-0.4c-0.1,0-0.1-0.2-0.2-0.3L192.5,35.6 M195.2,26c-0.1,0.1-0.3,0.2-0.5,0.2
	c-0.1,0-0.2-0.1-0.3-0.1c0.1-0.1,0.2-0.3,0.3-0.3S195.1,25.9,195.2,26 M193.2,26.2c-0.2,0.1-0.3,0.2-0.5,0.2l-0.2-0.2l0.4-0.4
	L193.2,26.2 M192.9,27c0.1-0.1,0.1-0.1,0.2-0.2s0.3-0.2,0.4,0c0,0.1,0,0.2,0.1,0.2c-0.1,0-0.3,0-0.4,0C193,27,192.9,27,192.9,27
	 M127.5,51.3c0.1,0.1,0.2,0.1,0.3,0.1v-0.1H127.5L127.5,51.3z M137.2,38.8c-0.1-0.2-0.2-0.3-0.4-0.5l-0.1-0.1
	c-0.3-0.2-0.7-0.4-1-0.6h-0.1l-1.1-0.3c-0.8-0.2-1.7-0.4-2.6-0.4l-0.6-0.1c-0.1,0-0.3,0-0.4-0.1l-0.7-0.1H130c-0.4,0-0.8,0-1.2-0.1
	c-0.1,0-0.2,0-0.4,0c-0.3,0.1-0.7,0-1-0.1c-0.1-0.1-0.3-0.1-0.4-0.1c-0.1,0.1-0.2,0.2-0.2,0.4v6.9c0,0.6-0.1,1.2-0.1,1.7
	c0,0.2,0.1,0.3,0.3,0.3h0.1c0.1,0,0.2-0.1,0.3-0.1h1.9c0.4,0,0.7,0.1,1.1,0.1c0.5,0,0.9,0,1.4,0c0.3,0,0.5,0.1,0.7,0
	c0.7,0,1.4-0.1,2.1-0.2c0.2-0.1,0.3-0.1,0.5,0c0.1,0,0.2,0,0.2,0c0.2-0.1,0.3-0.2,0.4-0.3c0.1-0.1,0.3-0.2,0.4-0.1
	c0.1,0.1,0.2,0.1,0.3,0c0.3-0.2,0.5-0.4,0.6-0.7s0.3-0.6,0.4-0.9c0.3-0.8,0.4-1.6,0.4-2.5c0-0.4-0.1-0.8-0.1-1.2
	C137.7,39.5,137.5,39.1,137.2,38.8L137.2,38.8z M128,29.1c-0.1-0.2-0.3-0.2-0.5-0.2s-0.3,0-0.5,0c0,0.3,0,0.3,0.3,0.4V29
	C127.5,29,127.8,29,128,29.1z"/>
<path d="M195.7,14.8c0,0-0.1-0.1,0-0.1s0.2-0.3-0.1-0.3s-0.6-0.1-0.9-0.3c-0.1-0.1-0.3-0.1-0.4,0.1c-0.2,0.1-0.3,0.3-0.3,0.6
	c0,0.1,0,0.2-0.1,0.2c-0.1-0.1-0.1-0.1-0.2-0.2c-0.1-0.1-0.2-0.3-0.1-0.4c0.2-0.5,0.1-0.5-0.5-0.7c-0.2,0-0.3-0.1-0.5-0.2
	c-0.2-0.1-0.5-0.1-0.7,0c-0.3,0.1-0.5,0.2-0.3,0.6s-0.1,0.4-0.4,0.3s-0.3-0.2-0.5-0.1c0,0-0.3-0.2-0.3-0.3s0.1-0.3,0.2-0.3
	c0.2,0,0.3-0.2,0.3-0.4v-0.1c-0.1-0.4,0.1-0.4,0.4-0.4c0.5,0,0.5,0,0.5-0.6c0-0.1-0.1-0.2,0.1-0.2c0.4-0.1,0.6-0.4,1.1-0.2
	s1-0.1,1.6,0c0,0,0.1,0,0.1-0.1c0.1-0.1,0.1-0.2,0.2-0.3h-0.3c-0.3-0.1-0.7-0.1-1-0.2c-0.1,0-0.2-0.1-0.2-0.2
	c-0.1-0.1,0-0.4-0.1-0.5c-0.3-0.1-0.2,0.3-0.3,0.4c-0.1,0-0.1,0.1-0.2,0.1c-0.1,0-0.2,0.1-0.2,0s-0.1-0.2-0.1-0.3
	c0.2-0.4,0-0.2-0.2-0.2c-0.5-0.2-1,0.1-1.5-0.2c-0.2-0.1-0.5,0-0.8,0.1v0.1c0.1,0.1,0.2,0.1,0.3,0.2l0.2,0.1l-0.2,0.1
	c-0.4,0.1-0.9,0.1-1,0.7c0,0,0,0.1-0.1,0.1h-0.1c0,0-0.1,0-0.1-0.1c0.2-0.2,0.1-0.4-0.2-0.3c-0.1-0.4-0.4-0.3-0.7-0.3
	s-0.4,0.3-0.3,0.6l-0.1,0.1h-0.1c0-0.4-0.3-0.6-0.5-0.8c-0.1-0.1-0.1-0.1-0.1-0.2c0.1-0.1,0.2-0.1,0.3-0.1s0.3,0.1,0.4,0.1
	s0.3,0,0.4,0s0.5-0.4,0.4-0.6c-0.2-0.2-0.4-0.4-0.7-0.3c-0.3,0.1-0.6,0.1-0.9,0c-0.3-0.1-0.7,0.2-0.7,0.5l0,0v0.4
	c0,0.1-0.1,0.4-0.1,0.6c-0.3-0.1-0.3-0.4-0.5-0.6c-0.1-0.2-0.2-0.4-0.2-0.6c0-0.3-0.1-0.5-0.4-0.5s-0.4-0.4-0.6,0
	c-0.2-0.2-0.3-0.3-0.5-0.4c-0.2,0-0.3,0-0.5,0c-0.1,0-0.2,0.1-0.3,0.1c-0.4,0-1-0.2-1.2,0.5c0,0.1-0.2,0.2-0.3,0.3
	c-0.1,0-0.1,0-0.2,0V9.9c0.3-0.3,0.4-0.4,0-0.7s-0.3-0.7,0.1-0.9l0.3-0.5c0.1-0.1,0.2-0.2,0.1-0.4l0,0c-0.1-0.2,0-0.5,0.2-0.7
	s0.3-0.5,0.1-0.7c-0.1-0.3-0.4-0.5-0.8-0.3c-0.1,0-0.2,0-0.3-0.1c0-0.3-0.3-0.6,0-0.8V4.5c-0.2,0-0.4-0.1-0.5,0.1s-0.3,0.4-0.4,0.7
	l-0.1,0.1L180,5.3c0-0.2,0-0.3,0-0.5c0-0.1-0.1-0.2-0.2-0.3c-0.1,0-0.2,0.1-0.3,0.2s-0.1,0.2-0.2,0.2c-0.1,0-0.2,0-0.3,0
	c0-0.3-0.6-0.3-0.3-0.7l-0.1-0.1c-0.1,0-0.2,0-0.3,0.1c0.1,0.2-0.1,0.3-0.2,0.4s-0.5,0.2-0.8,0.3c-0.1,0-0.2,0-0.2,0
	c0-0.1,0.1-0.1,0.1-0.2c0.1-0.1,0.2-0.2,0.3-0.2s0.4,0.1,0.4-0.2c0,0-0.2-0.1-0.3-0.2s-0.3-0.1-0.4-0.2c-0.5-0.2-1-0.1-1.3,0.3
	c-0.3,0.3-0.6,0.2-0.9,0.4l-0.1-0.1V4.3c0,0,0.2-0.1,0.1-0.3c0-0.1-0.1-0.1-0.2-0.2c-0.1,0.1-0.2,0.2-0.3,0.3c0,0.1,0,0.2-0.1,0.2
	c-0.1,0.1-0.2,0.3-0.4,0.3s-0.3,0-0.5-0.1c-0.1,0-0.1-0.2-0.1-0.3c0.1,0,0.3-0.1,0.4-0.1c0.1-0.1,0.3-0.2,0.4-0.2
	c-0.1-0.1-0.3-0.2-0.4-0.3c-0.1,0-0.2,0-0.3,0c-0.8,0.3-1.5-0.5-2.3,0c0,0-0.1-0.1-0.2-0.1c-0.8-0.4-1.8-0.4-2.6,0.1
	c-0.1,0.1-0.2,0.1-0.2-0.1s-0.3-0.3-0.3-0.3c-0.3,0.1-0.4,0-0.6-0.1c-0.2-0.1-0.4-0.1-0.6-0.2c-0.8-0.1-1.6-0.1-2.4,0
	c-0.3,0-0.4,0.1-0.6-0.2s-0.3-0.1-0.5-0.1c-0.4,0.1-0.8,0.3-1.2,0c-0.1,0-0.2,0-0.3,0.1s-0.2,0.2-0.3,0.3c-0.2,0.3-0.3,0.3-0.6,0.2
	s-0.5-0.1-0.6-0.4c-0.1-0.2-0.2-0.3-0.4-0.2h-0.1c-0.7,0.3-1.5,0.7-1.6,1.6c0,0.2-0.3,0.3-0.1,0.4c0.1,0.2,0.3,0.3,0.4,0.4
	c0.2,0.1,0.5,0,0.5,0.3s-0.3,0.2-0.4,0.4s-0.4,0.1-0.5,0.2s-0.5,0.4-0.3,0.5s0.1,0.6,0.1,0.8c0,0.1,0.1,0.2,0.1,0.3
	c0.1,0,0.1-0.1,0.2-0.1c0.3-0.2,0.8-0.3,0.9-0.2c0.3,0.4,0.4,0.9,0.3,1.3c-0.1,0.4-0.5,0.7-0.9,0.7c-0.1,0-0.3,0.1-0.3,0.2l0,0
	c-0.1,0.3-0.2,0.6-0.2,1c0,0.2-0.1,0.3-0.3,0.3c-0.1,0-0.2,0.1-0.3,0.1c-0.3-0.1-0.6-0.2-0.9-0.3c0,0,0,0,0-0.1c0-0.2,0-0.5,0.1-0.6
	s0.3,0.1,0.4,0.2s0.1,0.1,0.1,0.1s0.1,0,0.2,0s0.1-0.1,0.1-0.2c-0.2-0.3,0.1-0.6,0.1-0.9s-0.4-0.5-0.6-0.7c-0.1-0.1-0.1-0.3-0.2-0.5
	c-0.1-0.1,0-0.2,0.1-0.2c0.2-0.2,0.4-0.3,0.5-0.5c0.1-0.1,0.1-0.2,0.2-0.3c0-0.1,0-0.2,0-0.2l-0.2,0.1c-0.1,0-0.3,0.1-0.4,0.1
	c-0.2-0.1-0.4-0.3-0.7-0.2c0,0-0.2-0.3-0.3-0.4c0.1-0.1,0.2-0.1,0.3-0.2c0.2,0,0.4-0.2,0.4-0.5s0-0.7,0.1-0.8s0.5,0,0.8,0h0.1
	c0.1-0.1,0.2-0.1,0.2-0.2s-0.1-0.2-0.1-0.3c-0.2,0-0.3,0-0.5,0H157v0c0.3-0.2,0.3-0.5,0.6-0.6c0.3,0,0.6-0.3,0.6-0.7c0,0,0,0,0-0.1
	c0-0.4-0.4-0.3-0.6-0.3c-0.3-0.1-0.6-0.1-0.9-0.1c-0.2,0-0.5,0.1-0.6,0.3c-0.3,0.5-0.7,0.8-0.4,1.4c0,0.1,0,0.2-0.1,0.3h-0.3
	c-0.1,0-0.1-0.1-0.2-0.2c0-0.2-0.2-0.2-0.4-0.2c-0.1,0-0.2,0-0.3,0c-0.3,0-0.2-0.2-0.2-0.4c0.1-0.2,0.2-0.4,0.4-0.5
	c0.2-0.2,0-0.3-0.1-0.4c-0.4-0.1-0.9,0.1-1.1,0.5c-0.2,0.3,0.2,0.4,0.3,0.6s0.1,0,0.1,0.1s0.1,0.4-0.1,0.5c-0.5,0-0.7,0.4-0.9,0.7
	s-0.2,0.7-0.7,0.3c0,0-0.2,0.1-0.3,0.2c-0.2,0.3-0.6,0.3-0.8,0.1c-0.4-0.3-0.7,0-1,0.1c-0.6,0.3-1.1,0.6-1.6,1.1
	c-0.5,0.4-0.7,0.3-1.2,0.2c-0.3,0-0.5-0.3-0.5-0.6c0-0.3,0.2-0.4,0.4-0.5s0.3-0.2,0.5-0.4c0.1-0.2,0-0.5-0.1-0.7
	c-0.2-0.3-0.5-0.7-0.8-0.7s-0.6-0.4-1-0.5c-0.1,0-0.2-0.1-0.2-0.2c-0.2-0.6-0.4-0.7-1-0.6c-0.2,0-0.3,0.1-0.5,0
	c-0.4-0.1-0.9,0.1-1.2,0.5c-0.3,0.3-0.3,0.5,0.1,0.6c0.2,0,0.3,0,0.5,0s0.2,0,0.3,0.2c0.2,0.5,0.2,0.5-0.3,0.7
	c-0.2,0-0.3,0.1-0.5,0.1c-0.5-0.1-0.7,0.2-0.9,0.5c-0.1,0.1-0.2,0.3-0.3,0.4c-0.1,0.2-0.2,0.2-0.4,0.1c-0.4-0.3-0.5-0.8-0.7-1.1
	c-0.1-0.2,0.1-0.5,0.4-0.5s0.3,0.1,0.2,0.4v0.3h0.1c0-0.4,0.4-0.5,0.6-0.7c0.4-0.4,0.3-0.6-0.3-0.9c-0.8-0.2-1.5-0.3-2.3-0.3
	c-0.1,0-0.3,0.1-0.3,0.2c-0.1,0.3-0.2,0.5-0.3,0.8c-0.1,0.2-0.1,0.4-0.2,0.5c-0.2,0.2-0.4,0.5-0.4,0.8c0,0.1-0.2,0.4-0.3,0.4
	c-0.2,0-0.4-0.1-0.6-0.3c-0.1-0.1-0.2-0.3-0.1-0.4c0.3-0.4,0.1-0.8,0.2-1.2c0-0.1-0.1-0.2-0.2-0.2c-0.3,0-0.6,0-0.8,0.2
	c-0.4,0.5-1.1,0.3-1.5,0.8c0,0-0.2,0-0.2-0.1s-0.1-0.4-0.2-0.5c-0.1-0.2-0.2-0.4-0.4-0.5c-0.3-0.1-0.6-0.1-0.8,0.1
	c-0.2,0.2-0.5,0.3-0.3,0.7c0.1,0.2,0.1,0.4,0,0.6c-0.1,0.3,0,0.3,0.3,0.5c0.4,0.3,0.4,0.5,0.1,1s-0.5,0.4-0.9,0.5S132,7,131.8,7
	s-0.2-0.4-0.4-0.6c0,0-0.1,0-0.1-0.1c0,0.1,0,0.1,0,0.2c-0.1,0.2,0.2,0.5,0,0.6c-0.1,0-0.3-0.2-0.5-0.3s-0.1-0.4-0.1-0.6
	s0-0.3,0.2-0.3c-0.1-0.1-0.1-0.2-0.2-0.2c-0.3-0.1-0.3-0.3-0.3-0.5c-0.1-0.5-0.2-0.6,0.3-0.9c0.1-0.1,0.1-0.1,0.1-0.2
	S130.7,4,130.6,4c-0.3,0-0.5-0.1-0.8-0.1s-0.3,0-0.3-0.3C129.3,3,129.3,3,128.7,3c-0.5,0-0.9,0-1.4,0.1c-0.2,0-0.3,0.2-0.4,0.4
	c0.2,0.1,0.3,0.3,0.5,0.2c0.1,0,0.2,0,0.3,0c0.2,0.2,0.3,0.4,0.5,0.6s0,0.2-0.1,0.2c-0.2,0.1-0.3,0.3-0.3,0.4
	c-0.1,0.2-0.1,0.1-0.2,0c-0.4-0.1-0.3-0.5-0.5-0.7s-0.6-0.1-0.8-0.4c0-0.1-0.1-0.2-0.1-0.3C126.1,3.3,126,3.2,126,3
	c0-0.1-0.1-0.3-0.3-0.2h-0.1c-0.3,0.2-0.6,0.3-0.9,0l-0.4,0.1c-0.2,0-0.3,0.1-0.4,0.1c-0.3-0.4-0.6-0.2-0.8,0s-0.2,0.1-0.3,0
	s-0.3-0.1-0.4,0s-0.3,0.2-0.4-0.1s-0.3-0.4-0.6-0.4h-0.1c-0.3,0.1-0.7,0.1-1,0c-0.5,0-1.1,0.2-1.4-0.4c-0.1,0-0.2,0-0.2,0
	c-0.3,0.2-0.6,0-0.8-0.1c-0.2-0.2-0.6-0.2-0.8,0c-0.3,0.2-0.4,0.4-0.6,0h-0.3c-0.3,0-0.7,0-1,0c-0.5,0-1,0-1.5,0.1
	c-0.1,0-0.2,0.1-0.2,0.1c-0.1,0.1-0.2,0.2-0.3-0.1c-0.2-0.4-0.6-0.7-1.1-0.8c-0.6,0-1.1,0.1-1.7,0.1c-0.3,0-0.5,0-0.7,0.3
	S109,2.1,108.6,2c-0.1,0-0.3,0-0.4,0c-0.3,0.2-0.4,0-0.4-0.3c0-0.5-0.2-0.5-0.6-0.4c-0.2,0.1-0.5,0.1-0.7,0.1s-0.2,0.1-0.3-0.1
	c-0.2-0.4-0.6-0.5-1-0.4l0,0C104.6,1,104.1,1,103.5,1c-0.4,0-0.8-0.1-1.1,0c-0.5,0.2-1,0.1-1.5-0.1c-0.2-0.1-0.4-0.1-0.5-0.2
	c-0.3-0.2-0.6-0.2-0.9-0.1c-0.4,0.1-0.8,0.1-1.2,0c-0.4-0.1-0.8,0.1-1.2,0c-0.4-0.1-0.8,0-1.2,0.3c-0.1,0-0.2,0.1-0.3,0.1
	c-0.2-0.5-0.6-0.2-0.9-0.3S94,1.1,93.8,1.3s-0.2,0.2-0.4,0c-0.5-0.6-1.3-0.9-2.1-0.6c-0.1,0-0.2,0.1-0.3,0c-0.3-0.4-0.7-0.3-1.1-0.1
	c-0.3,0.1-0.7,0.2-1,0.1c-0.4,0-0.7-0.2-1.1-0.2c-0.6,0-1.2-0.1-1.7-0.3c-0.1-0.1-0.3,0-0.4,0c-0.2,0-0.4,0.1-0.7,0.1
	c-0.3,0-0.7,0-1,0c-0.4,0.1-0.9,0.1-1.3-0.2c-0.2-0.1-0.4-0.1-0.6,0c-0.3,0.1-0.7,0.1-1,0.1c-0.6-0.2-1.2-0.2-1.8,0
	c-0.6,0.2-1.2,0.2-1.7,0C76.8,0,76,0,75.2,0.3c-0.1,0-0.1,0-0.2,0c-1-0.2-2.1-0.1-3.1,0.2c-0.2,0-0.3,0.1-0.3-0.1
	c0,0-0.2-0.1-0.3-0.1c-0.6,0-1.2-0.3-1.8,0c-0.1,0-0.2,0-0.3,0c-0.5-0.1-1.1,0.2-1.6,0c-0.1,0-0.2,0-0.2,0c-0.3,0.2-0.5,0.3-0.8-0.1
	c0,0-0.2,0-0.3,0S66.1,0.4,66,0.4c-0.4-0.3-0.9,0-1.3,0s-0.7,0-1.1,0.1c-0.3,0-0.7-0.1-1-0.2c-0.2,0-0.4,0-0.6,0.1
	c-0.1,0-0.3,0-0.4,0c-0.7-0.1-1.4,0-2,0.3c-0.2,0.1-0.4,0.1-0.6,0.1c-0.5,0-0.9,0.1-1.3,0.4c-0.4,0.3-1,0.3-1.4,0
	C56.2,1.1,56,1.1,55.8,1c-0.1,0-0.3-0.1-0.3,0c-0.3,0.3-0.6,0.2-0.8,0c-0.3-0.2-0.6-0.3-1-0.3c-0.5,0.1-1.1,0.2-1.6,0.4
	c-0.4,0.2-0.9,0.3-1.3,0.1c-0.1,0-0.2-0.1-0.2,0c-0.3,0-0.6,0-0.8-0.2c-0.2-0.1-0.5-0.1-0.8,0c-0.6,0-1.2,0.4-1.8,0.2
	c-0.1,0-0.2,0-0.2,0.1s-0.2,0.4-0.6,0.3c-0.2-0.1-0.5,0.1-0.7,0.2s-0.4,0-0.6,0s-0.5,0.1-0.7,0.1c-0.5-0.1-1,0.1-1.3,0.5
	c-0.2,0.4-0.6,0.5-1,0.3l0,0c-0.1,0-0.2-0.1-0.2-0.1c-0.3,0.2-0.5,0-0.8,0s-0.5,0.1-0.8,0.1S39.7,2.8,39.5,3c-0.4-0.4-0.9,0.1-1.3,0
	c-0.2-0.1-0.5,0-0.6,0.2S37.1,3.6,37,3.5c-0.4-0.2-0.5,0.1-0.7,0.3S36.1,4,36,4c-0.4-0.1-0.8,0-1.2,0.2c-0.3-0.3-0.6,0-0.8,0.1
	C33.3,4.7,32.5,5,31.7,5c-0.2,0-0.4,0.1-0.6,0.2c-1,0.7-2.2,1-3.2,1.7c-0.1,0-0.2,0-0.3,0c-0.3,0-0.7,0.1-0.9,0.3
	c-0.4,0.3-0.9,0.5-1.4,0.7c-0.4,0.1-0.7,0.3-1,0.6C24,8.9,23.5,9.2,23,9.2c-0.4,0.1-0.7,0.3-1,0.6c-0.1,0.1-0.3,0.3-0.4,0.3
	c-0.5,0-0.7,0.4-1,0.7s-0.6,0.7-0.9,0.9c-0.4,0.5-0.9,0.9-1.4,1.3c0,0,0,0.1-0.1,0.1c-0.3,0.7-0.7,1.3-1.2,1.9
	c-0.5,0.6-0.5,1.4-1.1,1.9L15.8,17c0.1,0.4-0.2,0.7-0.4,1s-0.1,0.5-0.2,0.6c-0.5,0.7-0.9,1.5-1.2,2.3c-0.1,0.6-0.3,1.1-0.6,1.6
	c-0.4,0.6-0.7,1.3-0.9,1.9c-0.1,0.5-0.6,0.8-0.5,1.4c-0.4,0.5-0.6,1-0.8,1.6c-0.2,0.5-0.4,1-0.6,1.5c-0.2,0.4-0.3,0.8-0.5,1.1
	c-0.1,0.2,0,0.7-0.1,0.8s0.1,0.5-0.2,0.7c-0.2,0.1-0.2,0.5-0.4,0.7c-0.4,0.6-0.6,1.3-0.6,2c0,0.1,0,0.2,0,0.2
	c-0.1,0.2-0.2,0.5-0.4,0.8c-0.1,0.3-0.2,0.5-0.2,0.8c-0.2,0.4-0.4,0.8-0.3,1c0.2,0.4-0.3,0.4-0.3,0.7s-0.1,0.7-0.2,1
	c-0.2,0.4-0.3,0.9-0.1,1.4c0,0.1,0,0.3,0,0.4C7,41.3,6.9,42.2,7,43.1v0.2c-0.2,0.5-0.2,1-0.1,1.4C7.1,45.2,7,45.6,6.8,46
	c0,0.1,0,0.3,0,0.4C6.9,46.7,7,47,7,47.3v0.3c0,0.1-0.4,0.5-0.6,0.5c-0.6,0-0.3,0.3-0.3,0.6c0,0.1,0.1,0.3,0.2,0.4
	c0.2,0.3,0.2,0.3-0.2,0.4c-0.3,0-0.5,0.3-0.4,0.5c0,0.1,0,0.1,0,0.2c0.2,0.3,0.4,0.5,0,0.8v0.1c0.4,0.3,0.1,0.8,0.3,1.1
	c0.1,0.1,0.1,0.2,0.1,0.4c-0.1,0-0.3-0.1-0.3,0c-0.3,0.3-0.8,0.2-1,0.5c-0.3,0.4-0.7,0.5-1.1,0.3c-0.3-0.1-0.6-0.3-0.9-0.4
	c-0.1-0.1-0.3-0.2-0.3,0s-0.3,0.2-0.1,0.4c0.1,0.2,0.3,0.4,0.4,0.6c0.1,0.1,0.1,0.3,0,0.4l-0.1,0.1c-0.2,0.1-0.5,0.2-0.6,0.2
	c-0.3-0.1-0.3,0.1-0.3,0.2C2,55.2,2.2,55.6,2.4,56c0.1,0.1,0.1,0.3,0.1,0.4c-0.3,0.2-0.2,0.4-0.2,0.7c-0.1,0.4-0.2,0.7-0.4,1.1H1.7
	c-0.4-0.3-0.5,0.2-0.7,0.3s-0.4,0.1-0.5,0.2S0,58.8,0,58.9c0,0.2,0,0.4,0.1,0.6c0,0.1,0.2,0.2,0.3,0.2c0.4,0.2,0.8,0.5,1,0.9
	c0.1,0.1,0.2,0.3,0.3,0.4c0.4,0.3,0.5,0.9,1,1c0.1,0.1,0.1,0.1,0.1,0.2C3,62.6,3.1,63,3.1,63.5C3,64,3,64.5,3,64.9
	c0,0.8,0.2,1.6,0.6,2.3C3.9,67.3,4,67.6,4,67.8c0,0.3,0.1,0.6,0.4,0.7c0.4,0.3,0.7,0.6,1,1s0.6,0.7,1,0.9c0.2,0.3,0.6,0.5,1,0.6
	c0.6,0.2,1.3,0.2,1.9,0.3c0.2,0,0.4,0.1,0.6,0.2c0.5,0.1,1,0.3,1.5-0.2c0.2-0.1,0.4-0.1,0.6,0c0.4,0.2,0.8,0.1,1.1-0.2
	c0.1-0.1,0.4-0.1,0.5-0.2c0.3-0.1,0.5-0.2,0.8-0.3c0.3-0.2,0.5,0.1,0.8-0.1l0.9-0.6c0.1,0,0.2-0.1,0.3-0.1c0.3,0.4,0.7,0.3,1.1,0
	c0.2-0.2,0.6-0.2,0.8-0.1c0.2,0.1,0.4,0.1,0.6,0c0.8-0.2,1.7-0.3,2.5-0.6c0.8-0.3,1.8-0.2,2.5-0.9c0.1,0,0.2,0,0.2,0
	c0.4,0,0.8-0.1,1.2-0.2c0.4-0.1,0.8-0.1,1.2-0.1c0.3,0.4,0.6,0.2,0.9,0.1s0.6-0.2,0.9-0.3c0.3-0.1,0.7-0.1,1-0.1
	c0.4,0,0.8,0.3,1.2,0.3c0.4,0.1,0.8,0,1.2-0.2c0.3-0.3,0.8-0.3,1.2-0.2l0.2-0.1h1c0.6-0.1,1.3,0.4,1.8-0.2H36
	c0.4,0.1,0.7,0.2,1.1,0.3c0.5,0.1,1,0,1.4-0.3c0.4-0.1,0.7-0.1,1.1,0c0.6,0.3,1.2,0.6,1.8,0c0.2-0.2,0.4-0.1,0.7,0.1
	c0.4,0.4,1.1,0.5,1.6,0.1c0.1,0,0.2,0,0.3,0c0.8,0.2,1.7,0.2,2.5-0.1c0.3-0.1,0.5-0.2,0.8-0.2c0.8,0,1.6,0.1,2.4,0.2
	c0.3,0.1,0.6,0,0.9-0.2c0.1-0.1,0.5,0,0.6-0.2c0.2-0.4,0.5,0,0.5,0c0.3,0.2,0.7,0.2,1,0c0.1-0.1,0.3-0.1,0.4-0.1
	c0.4,0.3,0.8,0,1.3,0s1-0.4,1.6-0.4h1.5c0.5,0,0.8,0.2,1.1-0.2c0,0,0.2,0,0.3,0.1l1.5,0.3c0.2-0.3,0.4,0,0.6,0h0.7
	c0.5,0,1,0,1.5-0.2c0.7-0.2,1.3-0.3,2-0.4c0.2,0,0.1-0.3,0.4-0.1c0.6,0.3,1.2,0.4,1.9,0.3c0.4,0.1,0.9,0,1.3-0.2s0.9-0.3,1.4-0.3
	c0.8-0.1,1.5,0.5,2.3,0.2c0,0,0.1,0,0.1,0.1c0.8,0.6,1.7,0.1,2.5,0.2c0,0,0.1-0.1,0.2-0.1s0.2-0.2,0.3-0.2c0.3,0.3,0.7,0,0.9,0.1
	c0.5,0.3,0.9-0.1,1.3-0.1c0,0-0.1-0.3,0.2-0.3s0.4,0,0.4,0.3c0,0,0.2,0.1,0.3,0.1c0.3-0.1,0.7,0,1,0.1c0.5,0.1,1.1,0.1,1.6-0.1
	c0.1,0,0.2,0,0.4,0c0.7,0.2,1.5,0.2,2.2,0.2c0.4,0.3,0.8,0,1.2,0c0.4,0.2,0.8,0.1,1.1-0.2l1.1,0.2h0.1c0.7-0.2,1.4-0.3,2.1-0.4
	c0.2-0.1,0.5,0,0.7,0.1c0.3,0.2,0.6,0.3,0.9,0.1c0.2-0.1,0.4,0,0.5,0.1s0.3,0.2,0.4,0.2c0.8-0.1,1.6-0.2,2.4-0.3
	c0.3,0,0.6-0.1,0.9-0.2c0.4-0.3,1-0.1,1.3,0.3v0.1c0.1,0.2,0.1,0.2,0.2,0s0.4-0.3,0.7-0.2c0.3,0.1,0.5,0.2,0.8,0.2
	c0.4,0,0.8-0.1,1.2-0.2c0.7-0.2,1.4-0.2,2,0.1c0.7,0.3,1.5,0.4,2.2,0.3c0.1,0,0.3-0.1,0.4-0.2h0.2c0.3,0.5,0.7,0.2,1,0
	c0.2-0.1,0.4-0.2,0.6-0.1c0.3,0.2,0.6,0.2,0.9,0.2c0.7-0.1,1.3,0.2,2,0.1c0.5,0.4,1,0.1,1.5,0c0.5-0.2,1.2-0.1,1.6,0.2
	c0.1,0.1,0.3,0.2,0.5,0.1c0.4,0,0.7-0.4,1.2-0.1c0.1,0,0.3-0.2,0.5-0.3c0.5-0.1,0.9-0.1,1.4-0.1c0.7,0,1.4,0,2.1-0.1
	c0.6,0,1.2,0,1.8,0.2c0.6,0.2,1.2,0.2,1.7,0c0.1-0.1,0.2-0.1,0.4,0c0.4,0.3,0.8,0.1,1.3,0.1c0.4,0,0.7,0,1.1-0.1
	c0.3-0.2,0.8-0.1,1,0.2h0.1c1,0.1,2-0.3,3,0c0.4,0.1,0.8,0.1,1.2,0c0.4,0,0.9,0,1.4,0.1c0.2,0,0.3,0,0.5,0c0.7-0.2,1.3-0.3,2-0.3
	c1-0.1,1.9-0.3,2.8-0.5c0.6-0.1,1.3-0.2,1.4-0.8c0.1-0.6,0.5-1,1.1-1.1c0.5-0.1,1,0.2,1.3,0.6c0.1,0.1,0.1,0.1,0.1,0.2
	c0.1,0.4,0.2,0.3,0.5,0.5l0.7,0.4c0.6,0.3,1.3,0.5,2,0.6c1.1-0.2,2.1-0.7,3.1-1c0.4-0.2,0.8-0.4,1.3-0.5s1-0.2,1.6-0.2
	c0.6,0.1,1.2-0.1,1.7-0.5c0.2-0.2,0.3-0.1,0.4-0.1c0.3,0,0.5,0.1,0.8,0.2c0.6,0.2,1.2,0,1.6-0.5c0.4-0.3,0.7-0.8,1.3-0.5
	c0.2,0.1,0.3,0,0.3-0.1c0.3-0.4,0.9-0.6,1.4-0.5c0.4,0,0.8-0.3,1.1-0.7c0.5-0.8,0.6-1,1.6-0.2h0.1c0,0,0.1,0.1,0.1,0.2l-0.1,0.1
	c-0.2,0-0.5,0-0.7,0.1c-0.1,0-0.2,0.1-0.2,0.2c0,0.1,0.1,0.2,0.2,0.2s0.5,0.4,0.7,0l0.2,0.1c0.7,0.2,1.4,0,1.9-0.5
	c0.2-0.1,0.4-0.3,0.6-0.3c0.5-0.2,0.6-0.2,0.5-0.6s0-0.4,0.2-0.5s0.3,0,0.3,0.2s0.3,0.3,0.4,0.1c0.1-0.1,0.2-0.2,0.3-0.3
	c0.1,0,0.1-0.1,0.2-0.1v0.2c0,0.1-0.1,0.2-0.1,0.3s0.2,0,0.3,0c0.3-0.2,0.4-0.2,0.4,0.2c0,0.1,0,0.1,0.1,0.1
	c0.3,0.1,0.5,0.1,0.8,0.1c0.1,0,0.2-0.2,0.4-0.3s0.2,0,0.1-0.2c-0.3-0.5-0.2-0.8,0.2-1c0.1-0.1,0.3-0.1,0.3-0.1c0.2,0.3,0.4,0,0.5,0
	c0.3-0.1,0.6,0,0.8,0.2c0.3,0.3,0.3,0.2,0.4-0.1v-0.3c0.1-0.4,0.2-0.4,0.5-0.2s0.4,0.4,0.2,0.7c0,0,0,0.1-0.1,0.2
	c-0.2,0.2-0.2,0.4,0,0.6l0,0c0.1,0.2,0.4,0.1,0.5,0s0.4-0.2,0.6,0s0.2,0.1,0.3,0s0.2-0.2,0.3-0.2c0.6,0,1.3-0.2,1.9-0.4
	c0.3-0.1,0.7-0.1,1-0.1c0.2,0,0.3-0.1,0.2-0.3s-0.2-0.2-0.2-0.3s0.1-0.3,0.1-0.4c0.1-0.2,0.2,0,0.3,0.1c0.5,0.3,0.9,0.5,1.5,0.5
	c0.2,0,0.3,0,0.5,0c0.1,0,0.2-0.1,0.4-0.2c-0.1-0.1-0.2-0.1-0.3-0.1c-0.3-0.1-0.6-0.2-0.9-0.2c-0.1,0-0.1-0.1-0.2-0.1
	c0.1,0,0.2-0.1,0.2-0.1c0-0.2-0.1-0.4-0.1-0.6c0-0.1,0-0.2,0.1-0.3s0.1-0.1,0.2-0.1c0.1,0,0.3,0.1,0.4,0.2c0.3,0.3,0.7,0.5,1.1,0.4
	c0.7-0.1,1.2-0.7,1.1-1.3c0-0.2-0.1-0.3-0.1-0.5c-0.1-0.2,0.1-0.5-0.2-0.5s-0.4,0.2-0.5,0.4s-0.3,0.1-0.5,0s0-0.3,0-0.4
	s0.2-0.2,0.4-0.3s0.4-0.9,0.1-1.1c-0.1,0-0.1,0-0.2,0c-0.3,0.1-0.2,0-0.2-0.2s0.2-0.5,0.2-0.5c-0.3-0.2-0.3-0.7-0.8-0.8
	s-0.5-0.2-0.8,0.1c-0.1,0-0.1,0-0.2,0c0-0.1-0.1-0.1-0.1-0.2c0.5-0.3,0.2-0.7,0.2-1s-0.1-0.5-0.4-0.5l0,0c-0.1,0-0.1-0.2-0.2-0.3
	c0.1-0.1,0.2-0.2,0.3-0.2c0.3,0,0.6-0.1,0.6-0.4c0-0.3,0-0.5,0.1-0.8c0.1-0.2,0.4-0.2,0.6-0.3s0.3-0.3-0.1-0.5
	c-0.1,0-0.1-0.1-0.1-0.2s0.1-0.1,0.1-0.2c0.4-0.1,0.9-0.2,1.3-0.3c0.4-0.1,0.7-0.1,1.1,0c0.1,0,0.1,0.1,0.1,0.1
	c-0.1,0.2,0,0.4,0,0.6c-0.1,0.3-0.2,0.5-0.3,0.7s-0.1,0.1-0.2,0c-0.2-0.3-0.3-0.3-0.5,0c-0.1,0.1-0.2,0.2-0.1,0.3
	c0,0.4-0.3,0.5-0.5,0.5c-0.4,0.2-0.5,0.2-0.2,0.6s0.1,0.3-0.1,0.3c-0.2,0-0.3,0.1-0.5,0.2c-0.1,0.1-0.1,0.2-0.1,0.3
	c0,0.3,0.6,0.4,0.5,0.8h0.2C177,53,177,53,177,53.4v0.3c0.1,0.1,0.1,0.2,0.2,0.3c0.1-0.1,0.2-0.3,0.3-0.5c0-0.1,0-0.2,0-0.2
	c-0.2-0.2-0.2-0.5,0-0.6c0.1-0.1,0.1-0.1,0.2-0.1c0.1,0,0.2-0.1,0.2-0.1c0.1-0.5,0.5-0.6,0.9-0.7c0.1,0,0.3-0.2,0.4-0.3
	c0.1,0,0.2-0.1,0.3-0.1s0.2,0.1,0.2-0.1s0-0.5-0.1-0.5c-0.4-0.2-0.3-0.5-0.4-0.8s0-0.9,0.3-0.9s0.4-0.3,0.5-0.5s0.4-0.4,0.1-0.7
	s-0.5,0.1-0.8,0l-0.2,0.2c-0.1,0.1-0.1,0.2-0.2,0.2c-0.3-0.3-0.4,0-0.6,0.2l-0.1,0.1c0-0.1-0.1-0.1-0.1-0.2v-0.3
	c0-0.1,0-0.1-0.1-0.2c-0.1,0-0.1,0-0.1,0.1c-0.1,0.1-0.3,0.2-0.3,0.3c0,0.4-0.3,0.3-0.5,0.4s-0.2,0.1-0.2,0.1
	c-0.5-0.4-0.9,0-1.4,0.2c-0.2,0.1-0.4,0.2-0.4,0.5c0,0.1-0.1,0.2-0.2,0.2c-0.1,0-0.3,0-0.4-0.1c-0.1-0.1-0.1-0.2-0.1-0.4
	c-0.1-0.2,0-0.3,0.2-0.3c0.3-0.1,0.4-0.3,0.3-0.6c0-0.2-0.1-0.4-0.2-0.5c-0.1-0.3,0.2-0.3,0.3-0.5s0.2-0.1,0.3,0
	c0.7,0.1,1.4,0,2.1-0.3c0.3-0.1,0.3-0.3,0.1-0.6s-0.5-0.3-0.7-0.5l-0.2,0.1l-0.3,0.1c-0.1-0.1-0.1-0.2-0.1-0.4l0.1-0.1
	c-0.1-0.1-0.2-0.2-0.2-0.3c-0.1,0.1-0.2,0.1-0.2,0.2s0,0.2,0,0.3s-0.1,0.3-0.2,0.4s-0.3-0.1-0.4-0.2c-0.2-0.3-0.4-0.5-0.6-0.6
	c-0.7-0.4-0.7-0.5-0.2-1.1l0.2-0.1c0,0,0.2,0.1,0.2,0.2s-0.1,0.2-0.1,0.4c0,0.1,0,0.2,0.1,0.3c0.1,0,0.2,0,0.3,0
	c0.2-0.2,0.5-0.3,0.6-0.5s0.3-0.4,0.5-0.5s0.3-0.3,0.1-0.5s-0.2-0.4-0.1-0.5c0.3-0.4-0.1-0.5-0.2-0.7s-0.2-0.1-0.3-0.1
	c-0.1,0.1-0.2,0.2-0.2,0.3c0,0.2,0,0.4,0,0.6c0,0.4,0,0.5-0.4,0.7c-0.2,0.1-0.6,0.1-0.7-0.2c-0.1-0.2-0.1-0.4-0.1-0.6
	c0-0.2-0.2-0.4-0.4-0.4h-0.1c-0.2,0-0.3,0.1-0.4,0.2c-0.3,0.2-0.7,0.3-1,0.2c-0.1,0-0.1-0.1-0.1-0.1c0-0.3,0-0.5,0.1-0.8
	s-0.1-0.4-0.3-0.5s-0.2,0-0.3,0.1s-0.2,0.2-0.3,0.2c-0.5,0.2-1,0.5-1.2,1l-0.1,0.1c0,0-0.1-0.1-0.1-0.2c0.1-0.4-0.1-0.8-0.4-1.1
	c-0.4-0.2,0.1-0.3-0.4,0c-0.2,0.1-0.3,0.1-0.5,0s-0.5-0.1-0.8,0c-0.1,0.1-0.2,0.1-0.4,0c-0.6-0.5-0.3-0.7-1.1-0.8
	c-0.2,0,0.1-0.1,0-0.3s-0.7-0.3-0.7-0.5s-0.1-0.1-0.2-0.1c-0.2-0.2,0.3-0.3,0.4-0.4s0.1,0,0.1-0.1s0.1-0.3,0.2-0.4
	c0.1,0.1,0.2,0.2,0.4,0.3s0.1-0.1,0.4,0.1s0.2-0.2,0.3-0.6c0-0.1,0.2-0.3,0.2-0.3c0.2-0.2,0.2-0.4,0.5-0.5s0.5,0.2,0.6,0.4
	c0.1,0.1,0.1,0.1,0.1,0.2c0.2,0.5-0.1,0.5,0.4,0.5c0.2,0,0.4,0,0.4-0.3s0.2-0.2,0.4-0.1s0.2,0.2,0.3,0.2s0.2,0,0.3-0.1
	c-0.4-0.3,0.4-0.4,0.1-0.7c0.1-0.1,0.2-0.2,0.3-0.2s0.2,0.1,0.2,0.2c0.1,0.4,0.3,0.7,0.6,0.8c0.4,0.3,0.4,0.3,0.7-0.1
	s0.3-0.4,0.7-0.3c0.1,0,0.3,0.1,0.4,0s0.5-0.4,0.4-0.5c-0.1-0.4,0.2-0.4,0.3-0.5s0.9-0.4,0.4-1l0.1-0.2c0.3-0.1,0.5,0,0.6,0.4
	c0.1,0.3,0.2,0.6,0.4,0.8c0.1,0.1,0.2,0.1,0.3,0.2c0.1,0,0.1-0.2,0.2-0.2s0-0.2,0-0.3c0-0.3,0.2-0.1,0.3,0s0.2,0.2,0.3,0
	c0.1-0.1,0.1-0.2,0.2-0.2l0.2,0.1c-0.2,0.6,0.1,0.4,0.4,0.3c0.2-0.1,0.3-0.1,0.4-0.2c0.2-0.1,0.4-0.1,0.6,0.1s0.3,0.3,0.4-0.1
	s0.2-0.4,0.1-0.6c0-0.3,0-0.6,0.1-0.9c0-0.2,0.2-0.3,0.4-0.1s0.3,0.3,0.4,0.4s0.1,0.3,0.4,0.4c0.1,0,0.1,0.2,0.1,0.3
	s-0.1,0.4,0.2,0.4c0.1,0,0.1-0.2,0.2-0.3c0-0.1,0.1-0.1,0.1-0.2c0.2-0.2,0.2-0.3,0-0.6s-0.1-0.4-0.1-0.5s-0.1-0.1-0.1-0.1
	s-0.1,0.4-0.2,0c0-0.2,0-0.3,0.1-0.4c0.1-0.1,0.2-0.2,0.3-0.4c0-0.1,0.1-0.1,0.1-0.2c-0.1,0-0.2,0-0.3,0s-0.1,0.1-0.2,0.1
	c-0.2,0-0.3-0.1-0.2-0.3c0-0.1,0.1-0.2,0.1-0.3c0-0.2,0.1-0.2,0.3-0.1s0.3,0.4,0.6,0.1s0.6,0,0.7,0.4s-0.2,0.2-0.3,0.3
	s-0.1,0.1-0.1,0.2c-0.3,0.4-0.3,0.9,0.1,1.3c0,0,0.1,0,0.1,0.1c0.2,0.2,0.3,0.4,0,0.6s0,0.3,0.1,0.4s0.2,0.1,0.3,0
	c0.4-0.4,0.9-0.7,1.4-0.9c0.3-0.2,0.3-0.3,0-0.5s-0.1-0.2,0-0.2c0.3-0.1,0.4-0.3,0.3-0.6c0-0.1,0-0.1,0-0.2
	c-0.2-0.3-0.1-0.5,0.2-0.6c0.2-0.1,0.2-0.2,0.1-0.4s0.1-0.2,0.2-0.1c0.1,0.1,0.2,0.1,0.2,0.2c0,0.2,0.1,0.3,0.1,0.5
	c0.1,0.1,0.2,0.2,0.4,0.3c0,0,0.2-0.1,0.2-0.2c0-0.1,0-0.3-0.1-0.4c-0.1-0.1-0.2-0.2-0.3-0.3c0,0-0.1-0.1-0.1-0.2
	c0.5-0.4,0.1-0.5-0.1-0.7s0-0.2-0.1-0.3c-0.3,0.1-0.1,0.3-0.2,0.5s-0.2,0.1-0.2,0.1c-0.1-0.1-0.1-0.2-0.1-0.3l0.1-0.1
	c0.2-0.2,0.3-0.5-0.1-0.6s-0.1-0.5-0.4-0.4c-0.4,0.1-0.3-0.2-0.3-0.4c0.1-0.4,0.2-0.4,0.5-0.1c0.1,0.1,0.2,0.2,0.4,0.1
	c0.3-0.2,0.6-0.4,0.8-0.8c0.1-0.2,0.1-0.4,0.2-0.6c0-0.1,0-0.1,0.1-0.1c0,0,0.1,0,0.1,0.1c0.1,0.3,0.3,0.6,0,0.9
	c-0.1,0.1-0.2,0.3-0.3,0.4c-0.3,0.4-0.5,0.8-0.5,1.3c0.5,0.2,0.5,0.2,0.8-0.1s0.4-0.5,0.7-0.7c0.1-0.1,0.3-0.2,0.3-0.2
	c0.3,0.2,0.4,0,0.5-0.2c0.1-0.1,0.1-0.3,0.2-0.4c0.3-0.4,0.3-0.4,0-0.7s-0.3-1.1-0.7-1.5c-0.1-0.1,0.1-0.4,0.1-0.5s0-0.2-0.1-0.3
	h-0.2c0,0.1,0,0.2,0,0.2c-0.1-0.1-0.1-0.2-0.2-0.2c-0.1-0.1-0.2-0.1-0.3-0.2c-0.1,0.1-0.2,0.2-0.2,0.3c0,0.1,0.1,0.3,0.1,0.4
	c0,0,0,0.1-0.1,0.1s-0.1,0-0.2,0c-0.1,0-0.1-0.1-0.1-0.2c0,0.1-0.1,0.2-0.1,0.2c0,0.3-0.1,0.5-0.1,0.8l-0.8-0.2
	c-0.1,0-0.1,0-0.1-0.1c-0.4-0.2-0.7-0.4-0.9-0.8c0,0,0,0,0-0.1h0.2c0.1,0,0.2,0.4,0.4,0.3c0-0.2-0.1-0.3-0.2-0.5
	c0-0.1-0.1-0.2-0.1-0.3c0-0.2,0-0.5,0.1-0.6c0.2-0.1,0.4-0.1,0.6,0c0.1,0,0.2,0.1,0.2,0.2s0.1,0.4,0.2,0.6s0.5,0.3,0.6,0.2
	s0-0.3,0-0.4c0.4-0.1,0.4-0.5,0.5-0.8c0,0,0.1-0.1,0.1,0c0.1,0,0.1,0,0.1,0.1s0,0.2,0,0.3c0.1,0.4,0.1,0.4,0.4,0.2s0.5-0.4,0.6-0.3
	c0.3,0.2,0.4-0.2,0.6-0.2c0.1,0,0.2,0,0.3,0c0.3,0.3,0.7-0.1,1,0c0,0,0.1-0.2,0.1-0.3c-0.4,0-0.7-0.3-0.8-0.6
	c-0.1-0.3-0.2-0.2-0.3-0.1l-0.3,0.2c-0.4,0.4-0.4,0.4-1,0.1c-0.2-0.1-0.4-0.2-0.6,0.1h-0.2c-0.1-0.2-0.1-0.6-0.4-0.7
	c0,0,0-0.1,0.1-0.1s0.4-0.3,0.5,0c0.3,0.5,0.7,0.1,1.1,0.1s0.4-0.2,0.2-0.5c-0.3-0.6-0.2-0.6,0.4-0.6h0.1c0.4-0.2,0.5-0.1,0.4,0.3
	c0,0.1,0,0.2,0,0.3l0.1,0.1c0,0,0.2,0,0.2-0.1c0.1-0.4,0.5-0.7,0.9-0.7c0.3-0.1,0.6-0.2,0.8-0.3c0.2-0.1,0.3-0.3,0.2-0.5
	c0,0,0,0,0-0.1c-0.1-0.2-0.3-0.3-0.5-0.1c-0.1,0.1-0.1,0.1-0.2,0.1h-0.2c0-0.1,0-0.2,0-0.3c0,0,0.1-0.1,0.2-0.1s0.4,0,0.6-0.1
	s0.1-0.4,0.1-0.6c0-0.3,0.1-0.6,0.2-0.8c0.1-0.2,0.5-0.3,0.8-0.5h0.1l0.1-0.1l-0.1-0.1c-0.2,0-0.4,0-0.6,0c-0.4,0-0.4-0.3-0.5-0.5
	s0.2-0.2,0.3-0.3s0.3-0.2,0.1-0.3s-0.5-0.5-1-0.4c-0.2,0-0.4-0.1-0.2-0.4c0.1-0.2,0.1-0.4,0.1-0.6c0-0.1,0-0.2-0.1-0.2
	c-0.2-0.1-0.4,0-0.5,0.2s-0.4,0.4-0.1,0.6c0.4,0.3,0.3,0.8,0.5,1.2c0.1,0.2,0,0.2-0.2,0.3s-0.4,0.1-0.1,0.3s0.1,0.3,0.1,0.5
	c0.1-0.1,0.5,0,0.4-0.4c0-0.1,0.3-0.3,0.4-0.3s0.3,0.4,0.2,0.7s-0.4,0.4-0.1,0.7s0.1,0.5-0.3,0.5l-1,0.1c-0.1,0-0.3,0-0.3,0.1
	s-0.2,0.3-0.4,0.2c-0.2-0.1-0.4-0.2-0.6-0.4c0-0.2,0-0.4,0.1-0.5l0.7-0.3c0.1-0.3,0-0.6-0.3-0.8c-0.1-0.1-0.2-0.1-0.3-0.2
	c0.1-0.1,0.2-0.2,0.2-0.2c-0.1-0.3-0.1-0.6-0.2-0.9c-0.1-0.3-0.3-0.4-0.6-0.4s-0.4,0-0.5,0.3s-0.4,0.4-0.6,0.5s-0.3,0.2-0.4-0.1
	c0-0.1-0.4-0.3-0.5-0.2c-0.4,0.4-0.8,0.2-1.1-0.1c-0.2-0.2-0.7-0.2-0.9,0c-0.1,0.1-0.3,0.2-0.4,0.3c-0.2,0.4-0.3,0.2-0.5,0
	s-0.1-0.4-0.1-0.6s-0.4,0.2-0.5-0.1c0-0.1-0.2-0.3-0.2-0.4s0-0.3,0-0.4c0-0.6,0-0.6,0.5-0.6c0.2,0,0.3,0,0.5,0.1
	c0,0.1-0.1,0.3-0.1,0.4s0,0.1,0,0.2c0,0.3,0,0.3,0.3,0.3s0.9-0.4,1.3,0.1h0.2c0.4-0.1,0.7-0.4,0.9-0.8l0.1-0.2
	c0.1,0.1,0.1,0.2,0.2,0.3v0.3c0.1,0.2,0.2,0.4,0.4,0.6c0.1,0.1,0.3-0.1,0.4-0.1c0.3,0,0.5-0.2,0.5-0.4l0,0c0-0.3,0.2-0.2,0.4-0.1
	s0.1,0.1,0.1,0.1c0.3,0.4,0.4,0.4,0.5,0c0.1-0.3,0.4-0.6,0.8-0.6c0.3,0,0.7,0,1,0.1s0.7,0.1,0.9-0.2c0.2-0.1,0.4-0.4,0.3-0.5
	c-0.1-0.4,0.2-0.4,0.3-0.6c0-0.1,0-0.2-0.1-0.2c-0.1-0.1-0.2-0.3-0.3-0.4s0-0.2,0-0.2s0.2-0.1,0.3,0s0.1,0.2,0.1,0.3
	c0,0.3,0.3,0.2,0.4,0.2c0.2,0,0.4-0.1,0.4-0.3l0,0c0-0.2-0.1-0.3-0.2-0.4c-0.1-0.1-0.3-0.1-0.4-0.1s-0.1-0.1,0-0.2s0.3-0.2,0.3-0.3
	c0.2-0.4,0.4-0.6,0.8-0.3c0.4-0.2,0.4,0.1,0.4,0.3s0,0.3,0,0.4c0,0.1,0.2,0.4,0.4,0.3c0.5-0.2,1.1-0.2,1.7,0
	c0.4,0.1,0.6-0.1,0.8-0.3S195.9,14.9,195.7,14.8L195.7,14.8z M191,10.8c0.1-0.1,0.2-0.1,0.4-0.1c0,0,0,0,0.1,0.1s0.1,0.1,0.2,0.1
	s0.1,0.1,0,0.1c0,0.1-0.1,0.1-0.1,0.1c-0.1,0-0.2,0-0.3,0c-0.1-0.1-0.2-0.1-0.3-0.2C190.9,10.9,190.9,10.8,191,10.8L191,10.8z
	 M60.4,47.8c-0.1,0.3-0.2,0.7-0.4,0.9c-0.1,0.2-0.3,0.3-0.4,0.5c-0.2,0.2-0.3,0.5-0.4,0.7c-0.2,0.4-0.4,0.8-0.6,1.2
	c-0.2,0.3-0.4,0.5-0.6,0.7c-0.1,0.2-0.3,0.3-0.4,0.5c-0.1,0.2-0.3,0.3-0.4,0.4c-0.3,0.2-0.5,0.4-0.8,0.5c-0.1,0.1-0.2,0.1-0.3,0.1
	c-0.3,0.2-0.5,0.4-0.8,0.6s-0.4,0.2-0.6,0.3s-0.2,0.2-0.3,0.3c-0.7,0.5-1.5,0.7-2.4,0.7c-0.6,0-1.2,0-1.7,0.1c-0.6,0-1.2,0-1.8,0
	h-1.2c-0.4,0-1,0-1.5,0c-0.1,0-0.3-0.1-0.4-0.1c-0.3,0-0.7-0.1-1-0.1c-0.6-0.1-1.3-0.2-1.9-0.4c-0.5-0.2-1-0.3-1.5-0.5
	s-1-0.5-1.5-0.7c-0.2-0.1-0.4-0.2-0.6-0.3c-0.4-0.2-0.8-0.5-1.1-0.7c-0.1,0-0.1-0.1-0.2-0.1c-0.2-0.2-0.5-0.3-0.7-0.5
	c-0.4-0.3-0.8-0.5-1.1-0.8s-1-0.8-1.5-1.2c-0.1-0.1-0.3-0.2-0.4-0.4c-0.2-0.2-0.3-0.3-0.5-0.5s-0.2-0.2-0.2-0.3
	c-0.3-0.4-0.6-0.8-0.8-1.2c-0.1-0.2-0.3-0.4-0.5-0.6c-0.2-0.3-0.4-0.6-0.6-0.9c-0.4-0.6-0.7-1.2-1-1.8c-0.2-0.4-0.4-0.8-0.5-1.2
	s-0.2-0.6-0.4-0.8c-0.5-1.1-0.8-2.3-1-3.5c-0.1-0.6-0.2-1.3-0.3-1.9c0-0.6,0-1.3,0-2c0-0.8,0.1-1.6,0.3-2.4c0.2-1.1,0.4-2.1,0.7-3.2
	c0.2-0.9,0.6-1.8,1-2.6c0.3-0.6,0.6-1.2,0.9-1.8c0.1-0.2,0.2-0.4,0.4-0.5c0.6-0.8,1.1-1.6,1.7-2.3c0.4-0.4,0.8-0.9,1.2-1.3
	s0.8-0.7,1.2-1.1c0.3-0.3,0.8-0.5,1.1-0.8l0.7-0.5c0.9-0.6,1.8-1.1,2.8-1.6c0.6-0.3,1.3-0.4,1.9-0.6c1.4-0.4,2.8-0.6,4.2-0.5
	c0.3,0,0.5,0.1,0.8,0.1c0.4,0.1,0.9,0.1,1.3,0.1c0.9,0.1,1.7,0.3,2.5,0.6c0.3,0.1,0.7,0.3,1,0.5c0.6,0.3,1.2,0.5,1.7,0.9
	c0.8,0.5,1.5,1,2.2,1.6c0.1,0,0.2,0.1,0.3,0.1c0,0,0.1,0,0.1,0.1c0.1,0.3,0.4,0.5,0.7,0.6h0.1c0.3,0.2,0.5,0.4,0.8,0.6
	c0,0,0.1,0.1,0.1,0.2c0.1,0.1,0.1,0.3,0.2,0.4c0,0.1,0,0.1,0,0.2l-0.1-0.1c-0.1-0.1-0.1,0-0.1,0.1s0,0.1,0,0.2l-0.2-0.1H57l-0.1,0.1
	c0,0,0,0.1-0.1,0.2s-0.1,0.1,0,0.2s0.1,0.3,0,0.5c0,0,0,0.1,0.1,0.1c0,0.1,0,0.1,0,0.2h-0.2c0.1,0.1,0.1,0.2-0.1,0.2h-0.1
	c-0.1,0,0,0,0.1,0.1s0,0.2,0,0.3c-0.1,0-0.1,0.1-0.2,0.1c-0.1,0-0.2,0.1-0.2,0.2c0,0,0,0,0,0.1s0.1,0.2,0.1,0.3c0,0.1,0,0.1,0,0.2
	h-0.6c0.2,0.3,0.4,0.1,0.6,0.2h0.1h-0.1H56c0,0,0,0.1,0.1,0.1s0.1,0.1,0,0.1s0,0-0.1,0.1c-0.2,0.2-0.2,0.2,0,0.4c0,0,0,0.1,0.1,0.1
	H56c-0.1,0-0.1,0-0.1,0.1s0,0,0,0.1h-0.1c0,0-0.1-0.1-0.2-0.1h-0.1v0.1c0,0.1,0.1,0.2,0.2,0.4c0.1,0.1,0.1,0.4,0.3,0.4h0.1
	c0.1,0-0.1,0.1-0.1,0.1h-0.2l0.1,0.1c-0.1,0-0.1,0-0.2,0c-0.1,0-0.2-0.1-0.2-0.1h-0.1v0.1c0.1,0.1,0.1,0.3,0.3,0.3
	c0,0,0.1,0,0.1,0.1s0,0.2,0,0.3c0,0.1,0,0.1-0.1,0.2v0.1l-0.1-0.1v-0.1c0,0.1-0.2,0.2-0.3,0.2c0,0-0.1,0-0.1-0.1h-0.1V27
	c0.1,0.1,0.1,0.2,0.2,0.3s0.1,0.1,0.1,0.1s0.2,0.1,0.1,0.3s-0.2,0.3-0.4,0.1s-0.1-0.1-0.1,0s0,0.1-0.1,0.1V28c0,0-0.1,0.2,0,0.2
	c0.1,0.1,0.2,0.1,0.3,0.2v0.1h-0.3c-0.1,0-0.1,0-0.2,0.1c0,0,0,0.1-0.1,0.1s-0.1,0.1,0,0.2s0,0,0.1,0.1v0.1h-0.1v0.2
	c0.2,0.3,0,0.2-0.2,0.2s-0.2,0.1-0.3,0.1s-0.1,0-0.2,0c-0.1,0-0.2,0-0.2,0.1s0,0.3,0,0.4s0.1,0.2-0.1,0.3v0.1c0,0.2-0.1,0.3-0.3,0.3
	l-0.8-0.2c-0.3-0.1-0.6-0.2-0.9-0.4c-0.4-0.3-0.9-0.5-1.3-0.8l-1.4-0.8c-0.2-0.1-0.4-0.2-0.6-0.2C48.2,28.1,48,28,47.7,28
	c-0.3-0.1-0.5-0.1-0.8-0.1c-0.4,0-0.7,0-1.1,0c-0.5,0-1,0.2-1.4,0.4c-0.5,0.3-0.9,0.6-1.3,0.9c-0.3,0.3-0.6,0.6-0.9,1
	c-0.2,0.4-0.5,0.7-0.7,1.1c-0.1,0.3-0.2,0.5-0.3,0.8s-0.3,0.6-0.3,0.9c-0.1,0.3-0.1,0.6-0.1,0.9c0,0.2,0,0.4,0,0.5v1.4
	c0,0.1,0.1,0.3,0.2,0.4c0.1,0.2,0.2,0.5,0.3,0.7s0.2,0.4,0.2,0.6s0,0.1,0.1,0.2c0.2,0.4,0.4,0.8,0.5,1.2c0,0.1,0.1,0.2,0.1,0.3v0.1
	c0.2,0.4,0.5,0.8,0.7,1.2s0.5,0.8,0.9,1.1c0.2,0.1,0.3,0.3,0.5,0.4c0.1,0.1,0.3,0.2,0.4,0.2c0.1,0,0.1,0,0.2,0.1
	c0.2,0.1,0.4,0.3,0.7,0.3c0.3,0.1,0.6,0.2,0.9,0.3c0.3,0.1,0.6,0.1,0.9,0.1c0.2,0,0.4,0.1,0.5,0.1c0.2,0,0.4,0,0.6-0.1
	c0.3-0.1,0.7-0.1,1-0.2c0.4-0.1,0.8-0.2,1.1-0.3c0.4-0.1,0.8-0.2,1.2-0.4c0.3-0.1,0.6-0.4,1-0.5c0.5-0.3,1-0.5,1.6-0.7
	c0.1-0.1,0.3-0.1,0.4-0.2c0.3,0,0.5,0,0.8-0.1c0.3,0,0.6,0.1,0.8,0.2l0.1,0.1c0.1,0.1,0.1,0.2,0.2,0.2l0.1,0.1v0.1
	c0.2,0.1,0.3,0.3,0.4,0.5s0.5,0.4,0.5,0.6s0.5,0.5,0.5,0.9c0,0.1,0.1,0.2,0.2,0.2s0.2,0.2,0.2,0.3s0,0.2,0.2,0.3s0.2,0.3,0.3,0.4
	c0,0.1,0.1,0.1,0.1,0.2l0.1,0.1c0.1,0.2,0.1,0.3,0.2,0.5s0.2,0.3,0.2,0.5s0.1,0.2,0.2,0.2c0.5,0,0.6,0.4,0.6,0.8
	C60.4,47.4,60.4,47.6,60.4,47.8L60.4,47.8z M95.4,42.1c-0.1,0.6-0.2,1.2-0.1,1.8v4.5c0,0.9,0.1,1.9,0.2,2.8V52c0,0.1,0,0.1,0,0.2
	c0,0.2-0.2,0.3-0.4,0.3c0,0-0.1,0-0.1-0.1l-0.1-0.1c-0.1,0-0.1-0.1-0.2,0s-0.1,0.1-0.2,0.1c-0.3,0-0.3,0-0.6,0.2
	c-0.2-0.1-0.3-0.2-0.4-0.1c-0.1,0-0.3,0-0.4,0c-0.2,0-0.3-0.1-0.3-0.3c-0.1,0.1-0.2,0.1-0.3,0.1c-0.1,0-0.1,0-0.2,0
	c-0.2,0.2-0.4,0-0.6,0s-0.1-0.1-0.2-0.1s-0.1-0.1-0.2-0.1l-0.3,0c0,0.1-0.1,0.1-0.2,0l0,0c0,0-0.1-0.1-0.2-0.1
	c-0.2,0.1-0.4,0.1-0.6-0.1c-0.3,0.1-0.5-0.1-0.7-0.2h-0.1c-0.1,0.1-0.2,0.1-0.2,0l-0.4-0.3c-0.2,0-0.3-0.1-0.3-0.3s-0.1-0.2-0.3-0.2
	h-0.4c-0.1,0-0.3,0-0.4-0.1c-0.4-0.7-0.9-1.4-1.3-2L85.4,48c-0.2-0.3-0.4-0.5-0.6-0.8c-0.3-0.3-0.5-0.6-0.7-1
	c-0.4-0.8-0.9-1.6-1.3-2.3s-0.9-1.5-1.4-2.3c-0.4-0.7-0.9-1.4-1.3-2c-0.5-0.6-1-1.2-1.5-1.8s-1.1-1.3-1.7-2
	c-0.2-0.3-0.5-0.5-0.7-0.8c-0.1-0.1-0.1-0.1-0.2-0.2v3.4c0,0.8,0,1.7-0.1,2.5c-0.1,0.5-0.1,1-0.1,1.5c-0.1,0.7-0.3,1.4-0.4,2.1
	s-0.2,1.3-0.2,1.9s-0.2,1.3-0.3,2c-0.1,0.5-0.1,1-0.1,1.5s-0.1,0.9-0.2,1.4c0,0.1,0,0.2-0.1,0.4c-0.1,0.3-0.2,0.7-0.3,1l-0.1,0.1
	c0,0.3-0.3,0.4-0.5,0.6h-0.1c-0.4-0.2-0.8,0-1.1-0.2c-0.5,0.1-1,0-1.4,0c-0.2,0-0.4-0.1-0.7-0.2h-0.2c-0.1,0-0.1,0.1-0.2,0
	s-0.2-0.1-0.3-0.1H69h-0.1c-0.2-0.2-0.5-0.2-0.8,0c-0.2,0-0.5,0-0.7,0c-0.1,0-0.2,0-0.2,0c-0.4,0.1-0.8,0.1-1.2,0h-0.1
	c-0.5,0-0.7-0.4-0.8-0.8s-0.2-1-0.3-1.5c-0.1-0.8-0.2-1.5-0.1-2.3v-1.2c0-0.2,0-0.3,0.1-0.5c0-0.2,0.1-0.4,0.1-0.6
	c0.1-0.5,0.1-1.1,0.1-1.6c0-0.1,0-0.2,0-0.3v-0.8c0-0.5,0-1,0.1-1.5s0-1,0-1.5V40c0-0.1,0-0.1,0-0.2c0-0.2,0-0.3-0.1-0.5
	c0-0.2-0.1-0.3-0.1-0.4s0.1-0.3,0-0.5c0-0.8-0.2-1.6-0.1-2.4s0-1.3,0-2c0-0.3,0-0.6,0-0.9c0-0.5,0.1-1,0.1-1.5s0.1-1,0.1-1.5
	c0.1-0.8,0.1-1.6,0.2-2.4c0-0.1,0-0.1,0-0.2c-0.1-0.6-0.2-1.2-0.3-1.8c-0.1-0.6-0.2-1.1-0.1-1.7c0-0.4,0-0.8,0.1-1.1S65,22,65,21.6
	s0-0.6,0-0.9c0-0.9,0.1-1.8,0.3-2.6c0.1-0.3,0.2-0.6,0.5-0.8c0.1-0.1,0.2-0.2,0.3-0.3c0.1-0.2,0.3-0.2,0.5-0.2
	c0.3,0.1,0.5,0,0.7-0.1s0.4-0.1,0.6-0.1c0.1,0,0.2,0,0.3-0.1c0.3-0.2,0.6-0.3,0.9-0.3c0.3-0.1,0.7-0.1,1,0.1c0.1,0,0.1,0,0.2,0
	l1.1,0.1c0.4-0.2,0.9-0.1,1.3-0.2h0.2c0.2-0.1,0.4-0.1,0.6,0c0.3,0.1,0.5,0.3,0.5,0.6c0,0.2,0.1,0.4,0.3,0.5
	c0.2,0.3,0.4,0.5,0.5,0.8c0.2,0.5,0.4,0.9,0.6,1.4c0.5,1.1,1,2.1,1.7,3c0.3,0.5,0.7,1,1.1,1.4c0.7,1,1.4,1.9,2.1,2.9
	c0.3,0.5,0.7,1,1.1,1.5s0.7,1,1.1,1.5c0.2,0.3,0.5,0.6,0.8,0.9s0.4,0.6,0.7,0.9s0.4,0.5,0.6,0.8c0.1,0.1,0.2,0.2,0,0.3
	s0,0.2,0.1,0.2c0.2,0,0.4,0.1,0.5,0.3l0.1,0.1c-0.1,0.2,0.1,0.3,0.3,0.3L84.8,34c-0.1,0.1-0.1,0.2,0,0.3c0,0,0.1,0,0.1,0.1
	c0.1,0,0.2,0,0.4,0c0.2,0,0.4,0.1,0.3,0.3s0.1,0.2,0,0.3c-0.1,0.3-0.1,0.5,0,0.3s0.3,0,0.3,0.1c0.1-0.5,0.1-0.6,0.2-1.1
	c0.2-1,0.3-2.1,0.5-3.1c0.1-0.4,0.1-0.9,0.1-1.3s0.1-1.1,0.1-1.6c0-0.2,0-0.4,0-0.6c-0.2-1-0.3-2-0.5-3.1c-0.1-0.6-0.2-1.3-0.3-1.9
	s0-1.4,0-2.1c0-0.6,0-1.1,0.1-1.7c0-0.5,0.2-0.9,0.4-1.3c0.1-0.2,0.2-0.5,0.3-0.7c0.1-0.4,0.3-0.5,0.6-0.4c0.1,0,0.2,0,0.3,0
	c0.3-0.1,0.7-0.2,1-0.1c0.1,0,0.2,0,0.3,0c0.4-0.2,0.9-0.1,1.3-0.3c0.3,0,0.6,0,0.9-0.1c0.1,0,0.3,0,0.4-0.1
	c0.4-0.1,0.7-0.2,1.1-0.2c0.2,0,0.4,0,0.5,0h0.4c0.3,0,0.3,0,0.4,0.2c0.2,0.4,0.3,0.8,0.3,1.2c0.1,1.3,0.3,2.6,0.4,3.9
	c0.1,1.1,0.3,2.2,0.4,3.4V25c0,0.3,0.1,0.5,0.1,0.8c0,0.2,0.1,0.4,0.2,0.6c0,0.1,0,0.1,0,0.2v0.2c0.1,0.4,0,0.8,0,1.2
	c0,0.3,0,0.6-0.1,0.9l-0.1,1.6v0.4c0,0.4-0.1,0.8-0.1,1.2c0,0.2,0.1,0.4,0.1,0.7V34c0.1,1,0.2,1.9,0.3,2.8c0.1,0.8,0.2,1.7,0.2,2.6
	C95.7,40.3,95.6,41.2,95.4,42.1L95.4,42.1z M112.1,48.2v1.3c0,0.3,0,0.5,0,0.8s-0.1,0.5-0.3,0.7c-0.1,0.1-0.1,0.3-0.1,0.4l-0.2,0.2
	c0,0.1-0.1,0.2-0.2,0.3s-0.1,0.2-0.2,0.3l-0.1,0.2l-0.1,0.1v0.1l-0.2-0.2c0,0-0.1,0-0.1-0.1l-0.2,0.1c-0.2,0-0.2,0.1-0.2,0.4
	l-0.2,0.1c0-0.1,0-0.2,0-0.3s0-0.2-0.1-0.2l-0.1-0.2h-0.2l-0.1-0.1c-0.1-0.1-0.1-0.1-0.1-0.2v-0.1h-0.1h-0.1l-0.2,0.1
	c0,0.1,0,0.1,0,0.2v0.1l-0.2,0.2l-0.1,0.1l-0.6,0.4h-0.2l-0.1-0.1l-0.1-0.3l-0.4,0.6l-0.1-0.1c0-0.1,0-0.2,0-0.3s-0.1-0.2-0.1-0.3
	v0.1h-0.2c0,0-0.1,0-0.1-0.1h0.2c-0.2,0-0.3,0.1-0.2,0.2s0,0.3-0.2,0.4v0l-0.2-0.3l-0.3,0.3l-0.1-0.1c0,0,0-0.1-0.1-0.2
	c0-0.1-0.1-0.1-0.2-0.1v-0.2c-0.2,0-0.4,0.1-0.4,0.3c0,0,0,0,0,0.1l-0.3-0.1c0,0-0.1,0-0.1-0.1h-0.1l-0.1,0.2
	c-0.1-0.1-0.2-0.2-0.2-0.3c-0.1-0.1-0.1-0.2-0.2-0.3l-0.2,0.3l-0.2-0.1h-0.1l-0.3,0.1l-0.2-0.1l-0.1-0.2v-0.1l-0.2-0.4l-0.1-0.1
	v-0.2c-0.1,0-0.2-0.1-0.2-0.3v-1V50c-0.1-1-0.2-1.9-0.2-2.9c-0.1-1.1-0.1-2.3-0.2-3.4c-0.1-1.7-0.1-3.4-0.2-5.1c0-1-0.1-2.1-0.2-3.2
	c0-0.5,0-1-0.1-1.5c0-1.3-0.1-2.6-0.1-3.9c0-1-0.1-2-0.1-2.9c0-1.3,0-2.5,0.1-3.7c0-0.7,0-1.4,0.1-2c0.1-0.9,0.2-1.9,0.3-2.8
	c0.1-0.5-0.1-1.5,0-2s0.4-0.7,0.8-0.4l0.1,0.1c0.1-0.4,0.2-0.4,0.4-0.2c0.2,0.1,0.2,0,0.3,0c0.1,0,0.2,0,0.3,0
	c0.2,0,0.4-0.1,0.6-0.1s0.4,0,0.5-0.3c0-0.1,0.2,0.1,0.3,0.1c0.2,0,0.4,0,0.6-0.1c0.1-0.1,0.3,0,0.4,0.1s0.2,0.1,0.3-0.1
	c0,0,0,0,0.1,0h0.3c0.1,0,0.2-0.2,0.3,0s0.1,0,0.1,0c0.1,0,0.3,0,0.4-0.1c0,0,0.1-0.1,0.1-0.2c0.2,0.2,0.4,0.2,0.7-0.1
	c0.1,0.1,0.2,0.4,0.4,0h0.1h0.1c0,0,0-0.1,0.1-0.1c0.3,0.3,0.4-0.4,0.7-0.1h0.1c0.2-0.3,0.3,0,0.5,0.1c0.1-0.3,0.2-0.3,0.4-0.1
	c0.3,0.1,0.3,0.1,0.3,0.6s0,0.9,0,1.4c0,1.2,0.3,2.9,0.4,4V24c0,1.3,0.1,2.5,0.1,3.8s0,2.4,0.1,3.6c0.1,1.7,0.2,3.4,0.3,5.1
	c0.1,2.1,0.2,4.3,0.3,6.4c0.1,1.3,0.1,2.7,0.2,4C112.5,47.2,112.3,47.7,112.1,48.2L112.1,48.2z M147.4,43c0,0.3-0.1,0.6-0.2,0.8
	c-0.1,0.2-0.1,0.3-0.1,0.5c0,0.1,0,0.2-0.1,0.2c-0.1,0.1-0.2,0.3-0.3,0.5c0,0.2-0.1,0.4-0.1,0.5c-0.2,0.6-0.4,1.1-0.6,1.6
	c-0.1,0.2-0.4,0.4-0.6,0.4l0.2,0.1c-0.2,0.2-0.4,0.4-0.7,0.5c-0.1,0-0.2,0.2-0.4,0.3s-0.2,0.1-0.1,0.2s0,0.1-0.1,0.1
	s-0.1,0.1-0.1,0.1c0,0.3-0.2,0.4-0.2,0.7c0,0,0,0,0,0.1c-0.3,0.1-0.1,0.3-0.1,0.5s0.1,0.1,0.2,0.2c-0.1,0.4-0.4,0.7-0.7,0.9
	c-0.5,0.3-1,0.6-1.4,1c-0.2,0.1-0.3,0.3-0.5,0.4c-0.2,0.1-0.4,0.2-0.6,0.3c-0.3,0.2-0.6,0.3-0.9,0.5c-0.5,0.2-0.9,0.4-1.4,0.5h-0.2
	c-0.9,0.2-1.7,0.3-2.6,0.4l-1.4,0.1c-1.6,0-3.2,0-4.9-0.1l-2.5-0.2c-0.5,0-0.9-0.1-1.4-0.2l-0.5-0.1c0,0,0,0-0.1,0
	c-0.2,0-0.4,0-0.6-0.1c-0.4-0.1-0.7-0.1-1.1-0.2l-0.1-0.1c0-0.1,0.1-0.1,0.1-0.2c0.1,0,0.1,0,0.2,0h0.3c-0.1-0.2-0.1-0.4-0.4-0.3
	h-0.1c-0.2-0.1-0.5-0.1-0.7,0h-0.2c-0.2,0-0.4,0-0.7,0c-0.3,0.1-0.7,0-1-0.2c-0.5-0.2-0.9-0.3-1.4-0.3c-0.1,0-0.2,0-0.2-0.1
	s0.1-0.1,0.2-0.1s0.1,0,0.2,0l-0.3-0.3c-0.2-0.1-0.3-0.4-0.4-0.6c0-0.1-0.1-0.2-0.1-0.3c-0.1-0.2-0.1-0.5,0-0.7s0-0.3-0.2-0.4
	l0.3-0.1c-0.1-0.2-0.2-0.4-0.3-0.7c-0.1-0.2-0.1-0.5-0.1-0.7s0-0.4-0.1-0.7c0-0.2-0.1-0.4-0.2-0.6c-0.1-0.2-0.1-0.4,0-0.6v-0.1
	c-0.1-0.3-0.2-0.6-0.1-1c0.1-0.3,0.1-0.6,0.1-0.9l0.1-1.1V43v-0.2c0.1-0.2,0.1-0.4,0.1-0.5v-0.6v-0.1c-0.1-0.2-0.1-0.4,0-0.5v-0.2
	c0-0.1-0.1-0.2-0.1-0.2c0-0.5-0.1-1-0.1-1.4c0-0.1,0-0.1,0-0.2c0.1-0.3,0.1-0.6,0-0.9c0-0.5,0-0.9,0.1-1.4v-0.3
	c0-0.4-0.1-0.7-0.1-1.1s-0.1-0.7-0.1-1.1v-0.8v-1c0-0.2,0-0.4,0-0.5c0-0.2,0-0.3,0-0.5v-1.2c0-0.1,0-0.1,0-0.2c0-0.4,0-0.8,0-1.2
	c0-0.2,0-0.5,0-0.7v-0.1c0-0.5,0.1-1.1,0.1-1.6c0-0.1,0-0.3,0-0.4c-0.1-0.2-0.1-0.5,0-0.7c0-0.1,0-0.1,0-0.2c-0.1-1.1-0.1-2.3,0-3.4
	v-1.4V19c0-0.6,0.1-1.2,0.2-1.8c0-0.1,0.1-0.3,0.1-0.4s0.2-0.2,0.3-0.2c0.3-0.1,0.6-0.1,0.9-0.1c0.2,0,0.4-0.1,0.6-0.2
	c0.5-0.3,1-0.5,1.5-0.6c0.8-0.2,1.6-0.3,2.4-0.4c0.6,0,1.2,0,1.8,0c0.8,0.1,1.6,0.1,2.4,0.2c0.4,0,0.9,0,1.3-0.1
	c0.5,0,1.1-0.1,1.6-0.1c0.7-0.1,1.5-0.1,2.2,0.1c0.4,0.1,0.9,0.2,1.3,0.3c0.7,0.1,1.4,0.3,2.1,0.5c0.5,0.3,1,0.7,1.5,1.1
	c0.3,0.2,0.6,0.4,1,0.6c0.1,0,0.3,0.4,0.4,0.4c0.5,0.5,0.9,0.7,1.4,1.3c0.2,0.2,0.3,0.7,0.4,0.9c0.2,0.4,0.4,0.8,0.5,1.3
	c0,0.1,0.1,0.3,0.2,0.4c0.1,0.1,0.2,0.3,0.2,0.5v0.5c0,0.2,0,0.2-0.1,0.3c0.3,0.2,0.3,0.3,0.2,0.6c0,0.1,0,0.1,0,0.2
	c0.1,0.4-0.1,0.6-0.4,0.7c0,0,0,0.1,0.1,0.1s0.1,0.2-0.1,0.3c-0.1,0-0.1,0.1-0.1,0.1v0.1c0.2,0.1,0.1,0.2,0,0.3
	c-0.1,0.1-0.1,0.2-0.2,0.3c-0.1,0.2-0.2,0.4-0.2,0.6c0,0.5-0.1,1-0.2,1.5c-0.3,0.8-0.7,1.5-1.2,2.1c0,0-0.7,0.4-0.7,0.5
	c0.1,0.1,1.2,0.3,1.4,0.4c0.3,0.2,0.7,0.3,1,0.5s0.5,0.4,0.8,0.7c0.5,0.5,1,0.9,1.4,1.4c0.5,0.6,1,1.3,1.5,2
	c0.2,0.2,0.3,0.4,0.5,0.7c0.4,0.7,0.7,1.4,1,2.1v0.1c0.1,0.5,0.2,1.1,0.3,1.7c0,0.2,0.1,0.4,0.1,0.6c0.1,0.2,0.2,0.5,0.1,0.7
	c0,0.1,0,0.1,0,0.2c0.1,0.3,0.1,0.6,0.1,0.9C147.4,42.5,147.4,42.8,147.4,43L147.4,43z M154.7,9.6c-0.1,0-0.2,0-0.3,0
	c-0.2,0-0.4,0.1-0.5-0.3c-0.1,0-0.3,0.1-0.4,0.2c-0.3,0.2-0.7,0.2-0.9-0.1l-0.1-0.1c-0.1-0.1-0.1-0.3-0.1-0.3c0.4-0.4,0-0.7,0-1.1
	c0-0.1-0.1-0.2-0.1-0.2c0.1-0.1,0.1-0.2,0.3-0.2c0,0,0.1,0.1,0.2,0.1c0.1,0.2,0.2,0.4,0.3,0.6c0.1,0.5,0.6,0.8,1.1,0.7
	c0.2,0,0.5,0.1,0.7,0.2c0.1,0.1,0.1,0.2,0.1,0.3C154.9,9.5,154.8,9.6,154.7,9.6L154.7,9.6z M163.6,3.7c-0.2,0.3-0.4,0.7-0.4,1.2V5
	c-0.1,0.1-0.2,0.2-0.3,0.3c-0.2,0.1-0.5,0.3-0.5,0.2c-0.3-0.3-0.4,0.3-0.7,0.1s-0.5-0.2-0.6-0.3C161,5,161,4.7,160.9,4.5l0.1-0.2
	c0.2,0,0.3-0.2,0.5-0.3s0.3,0,0.4,0c0.1,0,0.1,0,0.1-0.1c0.4-0.2,0.8-0.4,1.1-0.6c0.1,0,0.2,0,0.3,0C163.7,3.5,163.7,3.6,163.6,3.7z
	 M175.4,54.3c0.2,0,0.4,0,0.4,0.3c0,0.2,0.1,0.3,0.1,0.5c0,0.1,0,0.3,0,0.4c0,0,0,0.3-0.1,0.3c-0.3,0.1-0.5,0.1-0.8,0.2
	c0,0-0.1-0.2-0.1-0.3s0.1-0.3,0-0.5c-0.2-0.3,0-0.7,0.3-0.8C175.3,54.3,175.4,54.3,175.4,54.3z M171.6,56.7c0,0.1-0.1,0.2-0.2,0.2
	c0-0.1-0.1-0.2-0.1-0.3s0-0.2,0-0.3s0-0.2,0-0.2c0-0.1,0.1-0.2,0.1-0.2l0.2,0.1C171.6,56.3,171.6,56.5,171.6,56.7z M172.8,55.6
	c-0.1,0.1-0.3,0.1-0.5,0.1s-0.3,0.1-0.2-0.2c0.1-0.5-0.4-0.8-0.3-1.3c0-0.1-0.3-0.2-0.5-0.3c-0.4-0.2-0.5-0.2-0.3-0.6
	c0.1-0.2,0.1-0.4-0.1-0.6c-0.1-0.1-0.1-0.2-0.1-0.3s0.3-0.1,0.4,0c0.3,0.2,0.6,0.4,0.8,0.7c0,0,0.1,0.1,0,0.1
	c-0.3,0.3,0,0.5,0.1,0.7c0.2,0.3,0.3,0.6,0.3,0.9c0,0.1,0.1,0.3,0.1,0.4S173,55.3,172.8,55.6L172.8,55.6z M172.9,51.9
	c-0.2,0.2-0.5,0.4-0.7,0.6H172c-0.1,0,0-0.1,0-0.1c0.2-0.3,0.4-0.6,0.6-0.8h0.3C173,51.6,173,51.9,172.9,51.9L172.9,51.9z
	 M173.9,54.4l-0.2,0.1c-0.3,0-0.5-0.2-0.4-0.4s0.1-0.1,0.2-0.2L173.9,54.4z M171.4,46.1c0.1-0.2,0.3-0.2,0.5-0.1s0.3,0.2,0.4,0.3
	l0.1,0.1l-0.1,0.1l-0.4,0.2c-0.1,0.1-0.2,0.3-0.4,0.1C171.2,46.6,171.2,46.3,171.4,46.1L171.4,46.1z M171.8,48.1
	c0.2,0,0.3,0.2,0.4-0.2c0.1-0.3,0.2-0.5,0.4-0.7s0.4-0.5,0.7-0.5c0.2,0,0.4-0.1,0.6-0.2c0,0.2,0,0.5-0.1,0.7
	c-0.1,0.3-0.2,0.6-0.1,0.8c0,0.1,0,0.3,0,0.4c0,0.1-0.2,0.1-0.3,0.1s-0.1-0.1-0.1-0.2c0-0.1,0.1-0.2,0.1-0.3
	c0.1-0.2-0.1-0.4-0.3-0.5l0,0c-0.2-0.1-0.4,0.1-0.4,0.3s-0.3,0.5,0,0.8s0,0.8,0.2,1.1c0,0.1-0.1,0.3-0.2,0.3c-0.6,0-0.8,0.6-1.2,0.7
	c0.1,0.4,0.1,0.5-0.2,0.6c-0.1,0-0.2-0.1-0.3-0.2s0.1-0.2,0.1-0.2c0.1-0.1,0.2-0.1,0.4-0.2c0-0.2,0.1-0.4,0.2-0.5
	c0.2-0.5,0.2-0.5-0.3-0.6l-0.2-0.1c0-0.1,0.1-0.2,0.2-0.2c0.2-0.1,0.5-0.2,0.8-0.3s0.3-0.3,0.1-0.4c-0.4-0.2-0.7-0.4-1.1-0.6
	c-0.5-0.2-0.5-0.3-0.5-0.7c0-0.1,0.1-0.2,0.2-0.3c0.1,0,0.2,0,0.3,0.1s0.1,0.2,0.2,0.3C171.3,47.9,171.5,48.1,171.8,48.1L171.8,48.1
	z M170.5,43.9h0.1c0.1,0,0.1,0,0.1,0.1s0.1,0.4,0.2,0.5c0.2,0.3,0.1,0.5-0.1,0.8h-0.1c0,0-0.3-0.4-0.4-0.5c0,0,0-0.1-0.1-0.1
	C170.6,44.4,170.6,44.1,170.5,43.9L170.5,43.9z M170.5,57.9c0.1-0.1,0.2-0.1,0.4-0.1c0.1,0,0.3,0.1,0.3,0.2c0,0.3,0,0.7,0.1,1.1
	c0,0-0.1,0.1-0.2,0c-0.2-0.1-0.4-0.2-0.6-0.4c-0.1-0.1-0.1-0.1-0.1-0.2C170.4,58.2,170.5,58.1,170.5,57.9L170.5,57.9z M169.7,59.3
	h0.2c0.1,0.1,0.3,0.2,0.4,0.3c0.4,0.4,0.4,0.4,0.7,0c0.1-0.2,0.2-0.2,0.4-0.1c0.1,0.1,0.1,0.2,0.1,0.3c0,0,0,0.1-0.1,0.1
	c-0.3,0.1-0.6,0.6-0.9,0.4c-0.2,0-0.4-0.1-0.6-0.1c-0.3-0.1-0.4-0.4-0.2-0.7C169.7,59.4,169.7,59.4,169.7,59.3L169.7,59.3z
	 M167.4,48.5c0.1,0,0.2,0,0.2,0v0.2c-0.1,0.2-0.4,0.3-0.7,0.2l-0.2-0.1c0.1-0.1,0.1-0.1,0.2-0.2C167.2,48.6,167.3,48.6,167.4,48.5
	L167.4,48.5z M166.1,43.4c0.2,0,0.3,0.1,0.4,0.2c0.2,0.4,0.3,0.9,0.5,1.4c0,0,0,0.1-0.1,0.1c-0.2,0-0.6,0.2-0.6-0.3
	c-0.4-0.2-0.4-0.6-0.7-0.9c-0.1-0.1-0.1-0.1-0.1-0.2C165.7,43.6,165.9,43.5,166.1,43.4L166.1,43.4z M166.4,4.2
	C166,4.3,166,4.5,166,4.9c0,0.1,0,0.3,0,0.4c-0.5,0.6-0.5,1.5,0,2.1c0,0.1,0.1,0.2,0.1,0.3c0,0.1-0.1,0.1-0.1,0.2h-0.1
	c-0.2-0.5-0.6-0.5-1-0.4s-0.4,0.1-0.4-0.3s0.2-0.8,0.5-1c0.1-0.1,0.3-0.1,0.3-0.2s0.3-0.3,0-0.6c-0.2-0.2-0.3-0.4-0.4-0.6
	c-0.2-0.3-0.4-0.6,0.1-0.8c0,0,0,0,0-0.1c0.1-0.4,0.2-0.4,0.4-0.1c0.2,0.2,0.6,0.2,0.9,0c0.1-0.1,0.1-0.1,0.1-0.2
	c0-0.1,0.1-0.2,0.2-0.3h0.1c0.1,0,0.1,0.1,0.1,0.2C166.8,3.7,166.9,4.2,166.4,4.2L166.4,4.2z M168.5,37.4c-0.1,0.2-0.1,0.1-0.2,0
	c-0.4-0.3-0.5-0.8-0.6-1.2s0.1-0.7,0.2-1.1c0-0.1,0.2-0.2,0.3,0s0.3,0.3,0.4,0.5c0.3,0.3,0.1,0.6,0.2,1
	C168.7,36.8,168.6,37.1,168.5,37.4L168.5,37.4z M168.9,7.9l-0.4,0.2c-0.3,0.2-0.4,0.2-0.6-0.1c0-0.1-0.3-0.4,0-0.4s0.4-0.6,0.6-0.1
	c0,0.1,0.3,0.1,0.4,0.2C168.9,7.8,168.9,7.9,168.9,7.9L168.9,7.9z M172.1,37.9c0,0-0.2,0.1-0.4,0.1s0.1-0.2,0-0.3s-0.1-0.3-0.2-0.4
	c-0.1-0.2,0.1-0.3,0.2-0.4s0.5,0,0.6,0.2v0.1C172.2,37.4,172.1,37.7,172.1,37.9L172.1,37.9z M172.8,34.1c-0.2,0-0.4,0-0.5-0.1
	c-0.1-0.2-0.2-0.4-0.3-0.6l0.1-0.2c0,0,0.4-0.1,0.6,0s0.5,0.3,0.4,0.6C173.1,33.9,173,34.1,172.8,34.1L172.8,34.1z M179.3,9.4
	c0.1,0,0.3-0.1,0.4-0.1c0.1,0,0.1,0,0.2,0.1c-0.1,0.2-0.2,0.3-0.4,0.5c-0.1,0.1-0.5-0.1-0.5-0.2C179.1,9.6,179.2,9.5,179.3,9.4
	L179.3,9.4z M178.4,7.3c0-0.1,0.1-0.1,0.2-0.2l0.3-0.2c0.1,0.1,0.1,0.2,0.2,0.4c0.2,0.4,0.1,0.6-0.3,0.6h-0.3c0,0-0.2-0.1-0.2-0.2
	C178.3,7.5,178.4,7.4,178.4,7.3L178.4,7.3z M178.2,8.1c0.1,0.2,0.2,0.3,0.3,0.5c-0.1,0.1-0.2,0.2-0.2,0.1c-0.1-0.1-0.2-0.1-0.2-0.3
	C178.1,8.4,178.2,8.2,178.2,8.1L178.2,8.1z M177.7,15.2c0-0.1,0.1-0.3,0.2-0.3c0.1-0.1,0.2-0.1,0.3,0c0.2,0.2,0.3,0.6,0.1,0.9
	c-0.2,0.2-0.3,0.5-0.3,0.8c0,0.1-0.2,0.2-0.4,0.3c0-0.2-0.1-0.5-0.1-0.5C177.8,16.1,177.9,15.6,177.7,15.2L177.7,15.2z M178.4,34.4
	c-0.2,0-0.3,0-0.5,0c-0.1,0.1-0.2,0.2-0.3,0.3c-0.4,0.4-0.4,0.4-0.1,0.9c0,0.1,0.1,0.1,0.2,0.1c0.1,0,0.1-0.1,0.1-0.2
	c0-0.3,0.1-0.5,0.4-0.6c0.1,0,0.2,0,0.3,0.1s0.1,0.1,0.1,0.2c-0.1,0.2-0.2,0.4-0.3,0.6c-0.3,0.5-0.4,0.5-0.8,0.2
	c-0.2-0.1-0.3-0.3-0.6-0.2c-0.1,0-0.4-0.6-0.4-0.8s0.1-0.1,0.1,0c0.2,0.1,0.4,0.2,0.3-0.2c0-0.1,0-0.1,0-0.2
	c0.1-0.4,0.3-0.4,0.7-0.3c0.1,0,0.2,0,0.3,0c0.1-0.1,0.2-0.2,0.3-0.4c0.1-0.1,0.1-0.3,0-0.4c-0.3-0.2-0.2-0.4-0.2-0.7
	c0-0.2-0.1-0.3-0.1-0.5c0-0.1-0.1-0.2-0.2-0.3c0.3-0.2-0.1-0.5,0.1-0.6c0.1-0.1,0.2-0.2,0.3-0.2c0.1,0.1,0.2,0.2,0.2,0.4
	c0.1,0.7,0.3,1.4,0.5,2C179.1,34.1,178.8,34.5,178.4,34.4L178.4,34.4z M178.6,26.4C178.6,26.4,178.6,26.5,178.6,26.4
	c0.1,0.2,0.2,0.4,0.3,0.5s0.1,0.3,0,0.3s-0.3,0-0.4,0C178.4,27.2,178.5,26.4,178.6,26.4L178.6,26.4z M179.7,20
	c-0.3-0.4-0.7-0.3-1-0.2s-0.2-0.1-0.4-0.2s-0.5-0.4-0.8-0.2s-0.3,0-0.4-0.2s0-0.3,0.1-0.3s0.4-0.4,0.6-0.1c0.1,0.1,0.2,0.2,0.3,0.2
	c0.7-0.3,1.1,0.4,1.8,0.3c0.1,0,0.2,0.2,0.3,0.3C180.3,19.8,179.9,20.1,179.7,20L179.7,20z M186.7,22.9l0.1,0.1
	c-0.2,0.2-0.3,0.5-0.6,0.3c-0.1,0-0.2,0-0.3,0c-0.1-0.1-0.2-0.3-0.3-0.5c0.1-0.1,0.3-0.1,0.4-0.1C186.4,22.8,186.5,23,186.7,22.9
	L186.7,22.9z M186.1,20.6c0.1,0,0.2,0,0.2,0c0,0.1,0,0.1-0.1,0.2s-0.2,0.3-0.3,0.4s-0.1,0.1-0.2,0.2c-0.1-0.1-0.2-0.2-0.1-0.2
	C185.8,20.9,185.9,20.6,186.1,20.6L186.1,20.6z M183,29.2c-0.2,0.1-0.2,0.4-0.1,0.6c0.1,0.3-0.2,0.6-0.5,0.8h-0.1
	c-0.1,0-0.1-0.5,0-0.6c0.3-0.1,0.3-0.2,0-0.4s-0.6-0.4-0.9-0.6c0.1-0.3,0.3-0.6,0.3-0.9s0.2-0.8,0.3-1.2c0-0.1,0.1-0.1,0.2-0.3
	c0.1,0.1,0.2,0.2,0.3,0.3c0.2,0.3,0.4,0.6,0.3,1c-0.1,0.3-0.1,0.6,0.3,0.7S183.2,29,183,29.2L183,29.2z M184.1,24.8L184.1,24.8
	c0-0.1,0.1-0.1,0.1,0c0.4,0.4,0.4,0.9,0.5,1.4c0,0.1-0.2,0.3-0.3,0.4s-0.4-0.1-0.4-0.3s0-0.4-0.2-0.6s-0.1-0.3-0.1-0.4
	C184,25.1,184.1,25,184.1,24.8z M183.1,25.4c0.2,0.1,0,0.5,0.4,0.6c0.1,0,0.2,0.2,0.3,0.4l-0.4,0.1c-0.2,0-0.3,0-0.5,0
	c-0.1-0.1-0.2-0.2-0.2-0.3c-0.1-0.2-0.1-0.4-0.1-0.5s0.1-0.2,0.2-0.3C182.8,25.3,183,25.3,183.1,25.4L183.1,25.4z M182.5,21.9
	c0.2,0.1,0.4,0.1,0.2,0.4s-0.2,0.6-0.3,0.9c0,0.1-0.1,0.1-0.2,0.1l-0.1-0.1c0,0-0.1-0.3-0.2-0.5l-0.3-0.5L182.5,21.9z M183,11.5
	c-0.2,0-0.5-0.1-0.7-0.2c-0.2-0.1,0.1-0.3,0.1-0.4c0-0.3,0.1-0.4,0.5-0.2s0.6,0.1,0.8,0.4c0,0.1,0,0.1,0.1,0.1
	C183.4,11.3,183.2,11.4,183,11.5L183,11.5z M184.6,17.3h-0.1l-0.1-0.1c0.1-0.3,0.2-0.5,0.3-0.8h0.1l0.1,0.5
	C184.8,17.1,184.7,17.2,184.6,17.3L184.6,17.3z M186,12.6v-0.1l1.1-0.5l0.5,0.3c0.1,0.1,0.1,0.2,0,0.3c-0.2,0.2-0.4,0.3-0.6,0.4
	c-0.3,0.2-0.6,0.1-0.8-0.1C186.1,12.8,186,12.7,186,12.6L186,12.6z M186.4,16.7c-0.1-0.1-0.2-0.2-0.1-0.4l0.1-0.1
	c0.3-0.1,0.7-0.1,0.9,0.1v0.1C187,16.7,186.7,16.8,186.4,16.7L186.4,16.7z M188.8,13.6c-0.2,0.1-0.3,0.4-0.3,0.6
	c0,0.1,0,0.3-0.1,0.3c-0.6,0.1-0.3,0.6-0.3,0.9c0,0.1,0,0.3,0,0.4c-0.1,0.3-0.3,0.3-0.5,0.1c-0.1-0.1-0.2-0.1-0.3-0.1
	c-0.3,0-0.4-0.1-0.2-0.4c0.1-0.1,0.1-0.3,0-0.3c-0.5-0.3,0-0.6-0.1-0.9s-0.1-0.6-0.1-0.9c0-0.1,0.1-0.1,0.1-0.1c0.1,0,0.3,0,0.4,0
	c0.1,0,0.2-0.1,0.3-0.2c0.1-0.2,0-0.4,0.1-0.7c0-0.1,0.1-0.2,0.2-0.2c0.1,0.1,0.1,0.1,0.2,0.2c0.1,0.1,0.1,0.2,0.2,0.4
	c0,0.3,0.1,0.5,0.4,0.5c0.1,0,0.2,0.1,0.3,0.2C188.9,13.5,188.9,13.6,188.8,13.6L188.8,13.6z"/>
<path d="M126.8,25.8v2.8h0.3c0.8,0.1,1.5,0.1,2.3,0.1c0.6,0,1.2-0.1,1.7-0.1c0.5-0.1,1.3-0.1,1.8-0.3s0.7-0.7,1-1.2
	c0.1-0.1,0.2-0.6,0.3-0.7c0.1-0.5,0.1-1,0-1.4c-0.2-0.1-0.3-0.8-0.6-0.8c-0.4-0.3-0.7-0.5-1.1-0.8c-0.4-0.1-0.8-0.2-1.3-0.3
	c-0.6-0.1-1.2-0.1-1.8,0c-0.9,0-1.7-0.1-2.6-0.1c-0.1,0-0.2,0-0.2,0.1c0,0,0,0,0,0.1v0.5C126.7,24.3,126.8,25,126.8,25.8L126.8,25.8
	z M140.7,34l0.1,0.1V34H140.7L140.7,34z M140.4,32.9h-0.1V33c0.1,0.1,0.3,0.2,0.5,0.2C140.8,33,140.6,32.9,140.4,32.9z M140.5,33.6
	C140.5,33.6,140.4,33.6,140.5,33.6c-0.1,0.1-0.1,0.2,0,0.2h0.4C140.8,33.6,140.7,33.6,140.5,33.6z M140.8,32.8l0.5,0.2
	C141,32.7,141,32.7,140.8,32.8z M139.2,32.6l0.4,0.2L139.2,32.6C139.3,32.5,139.2,32.5,139.2,32.6z M139.5,32.1l-0.3-0.1l0,0
	C139.3,32.1,139.4,32.2,139.5,32.1C139.5,32.2,139.4,32.2,139.5,32.1L139.5,32.1z M139.9,32.4c0.3,0.2,0.3,0.2,0.5,0
	C140.3,32.4,140.1,32.2,139.9,32.4z M139.5,33.5c-0.2,0-0.4-0.1-0.5-0.2h-0.1v0.1c0,0.1,0.1,0.1,0.1,0.2c0.3,0.2,0.6,0.3,0.9,0.4
	C139.8,33.7,139.6,33.6,139.5,33.5z M55.4,99.7L55.4,99.7l0.2-0.1l-0.1-0.1h-0.2l-0.2-0.1c-0.1,0-0.1,0-0.2-0.1l-0.2-0.1
	c-0.3-0.1-0.6-0.2-0.8-0.3l-0.2-0.1l-0.1-0.1h-0.1l-0.1-0.1l-0.2-0.1c-0.1,0-0.1-0.1-0.1-0.1l-0.3-0.2v-0.1L52.7,98v-0.1
	c0,0,0,0,0-0.1c0,0,0,0,0-0.1l-0.3-0.3l-0.1-0.3L52.2,97v-0.1c0,0.1-0.1,0.1-0.2,0c0-0.1-0.1-0.1-0.1-0.2v-0.1v-0.1v-0.1v-0.2
	L51.7,96l-0.1-0.1h-0.3c-0.1,0-0.1,0-0.1-0.1v-0.1v-0.1v-0.1c0-0.2-0.1-0.4-0.2-0.5c-0.1-0.2-0.1-0.3-0.1-0.5v-0.1v-0.3v-0.3v-0.5
	l-0.1-0.1c0-0.1,0-0.1,0-0.2s0-0.2-0.1-0.2v-0.2c0-0.1-0.1-0.1-0.1-0.2L50.4,92v-0.1c0-0.1,0-0.1,0-0.2c0,0,0-0.1,0-0.2
	c0,0,0,0,0-0.1v-0.6v-0.3V90c0,0,0,0,0-0.1v-0.6v-0.1v-0.1v-0.9c0-0.1,0-0.2,0.1-0.3c0-0.1,0-0.1,0-0.2c0,0,0-0.1,0-0.2
	c0,0,0-0.1,0-0.2V87c0-0.1,0-0.2,0.1-0.3c0-0.1,0.1-0.1,0.1-0.2v-0.1v-0.1v-0.1l0.1-0.1V86v-0.1v-0.2c0-0.1,0-0.2,0.1-0.2v-0.2
	c0-0.1,0.1-0.2,0.1-0.3c0-0.1,0.1-0.2,0.1-0.2v-0.1l0.1-0.1v-0.1c0,0,0.1-0.1,0.2-0.1h0.3c0,0,0,0,0.1,0h0.1h0.7l0.1,0.1H53h0.1h0.7
	l0.1,0.1l0.1,0.1V85c0.1,0.1,0.1,0.2,0.1,0.3v0.5v0.1V86v1c0,0.2,0,0.3-0.1,0.5c0,0.4,0,0.6,0,0.8v0.2c0,0.1,0,0.1,0,0.2V89v0.1v0.1
	v2.3c0,0.1,0,0.3,0,0.4v0.6c0,0,0,0,0,0.1V93l0,0v0.3v0.1c0,0.1,0,0.2,0,0.3c0,0.1,0.1,0.2,0.1,0.3c0.1,0.1,0.1,0.2,0.1,0.3
	c0,0.1,0.1,0.3,0.1,0.4v0.1l0.1,0.2c0,0.1,0.1,0.1,0.1,0.2v0.1c0,0.1,0,0.1,0.1,0.1c0,0,0.1,0.1,0,0.1v0.1l0.1,0.1l0.1,0.1H55
	c0.1,0,0.2,0,0.2,0.1l0.1,0.1h0.4c0.1,0,0.2,0,0.3-0.1c0.1,0,0.2-0.1,0.3-0.1l0.3-0.2h0.1l0.5-0.4c0-0.1,0.1-0.1,0.1-0.2
	c0.1-0.1,0.1-0.2,0.2-0.2s0.1-0.1,0.2-0.2s0.1-0.1,0.1-0.1l0,0v-0.1V94v-0.1v-0.1v-0.3v-0.1v-0.2v-0.1v-1V92v-0.1v-0.3v-0.3v-0.6
	v-0.6v-0.8c0-0.1,0-0.2,0-0.3c0-0.2,0-0.4-0.1-0.6s-0.1-0.4-0.1-0.6v-0.3V87v-0.9V86v-0.1l0.1-0.2c0.1-0.1,0.1-0.2,0.1-0.3v-0.1
	v-0.2V85H58c0,0,0,0,0.1,0h1.2l0,0H61v-0.1h0.1H61h0.1V85l0.2,0.2v-0.1h-0.1l0.1-0.1h0.5c0.1,0,0.2,0,0.2,0c0.1,0,0.2,0.1,0.2,0.2
	l0.1,0.2c0.1,0.1,0.1,0.2,0.2,0.3c0,0.1,0.1,0.2,0.1,0.3c0.1,0.1,0.1,0.3,0.1,0.4v1.1V87c0,0.1,0,0.1,0,0.2s0,0.1,0,0.2v2v0.1v0.1
	v0.7v0.1v0.1v0.1v0.3c0,0,0,0.1,0,0.2v0.5v0.1v0.1V92c0,0.1,0,0.1,0,0.2v2.1c0,0.1,0,0.1,0,0.2v0.2c0,0.1,0,0.2,0,0.3
	c0,0.1,0,0.1,0,0.2h-0.1v0.2l-0.2,0.4L62,96v0.1v0.1v0.1l-0.1,0.1c-0.1,0.1-0.1,0.2-0.2,0.3l-0.2,0.1l-0.1,0.1V97l-0.2,0.2l-0.1,0.1
	c-0.1,0-0.1,0.1-0.1,0.1l-0.5,0.5V98l-0.1,0.2H60l-0.2,0.2l0.2,0.1h-0.1l-0.2,0.1h-0.1l-0.1,0.2C59.4,98.9,59.2,99,59,99l-0.2,0.1
	h-0.3c-0.1,0-0.2,0.1-0.3,0.2H58l-0.1,0.1l-0.2,0.1h-0.5L57,99.3c-0.1,0-0.1,0-0.2,0h-1.1l-0.3-0.1V99.7z M55.8,99.7h0.4v-0.1h-0.1
	L56,99.7H55.8L55.8,99.7L55.8,99.7L55.8,99.7z M60,98.4L60,98.4L60,98.4L60,98.4z M71.7,99L71.7,99c-0.2-0.2-0.2-0.3-0.3-0.4
	c-0.1-0.1-0.1-0.2-0.2-0.3v-0.1L71.1,98c0,0-0.1-0.1-0.1-0.2l-0.1-0.2c0-0.1,0-0.1-0.1-0.2c0,0-0.1-0.1-0.1-0.2l-0.1-0.1L70.5,97
	v-0.1h-0.1c-0.2,0-0.3-0.2-0.3-0.4v-0.1l-0.1,0h-0.1v-0.1v-0.1l-0.1-0.1V96l-0.1-0.2v-0.1l-0.1-0.2c-0.1-0.1-0.1-0.2-0.2-0.3
	l-0.1-0.1L69.1,95c-0.1-0.1-0.1-0.2-0.2-0.3l-0.1-0.1l-0.1-0.2c0-0.1-0.1-0.2-0.1-0.2l-0.1-0.1l0-0.1l-0.4-0.9L68,93.2V95v0.1v0.1
	v0.5l0.1,0.1v0.1v0.3c0,0.1,0,0.1,0,0.2v0.3c0,0.1,0,0.2,0,0.3v0.4v0.1v0.1v0.3c0,0.1,0,0.1,0,0.2c0,0,0,0.1-0.1,0.2l-0.1,0.2
	c0,0.2-0.1,0.3-0.2,0.4s-0.1,0.2-0.1,0.3l-0.1,0.1v0.1h-0.1c0,0,0,0.1-0.1,0.1s-0.2,0.1-0.2,0.2L67,99.6c-0.1,0-0.1,0-0.2,0
	s-0.1,0-0.2,0h-0.1h-0.7h-0.1c0,0,0,0-0.1,0h-0.2c-0.1,0-0.1-0.1-0.2-0.2s-0.2-0.2-0.3-0.2h-0.1l-0.2-0.3c-0.1-0.1-0.1-0.2-0.2-0.3
	c0-0.1-0.1-0.2-0.1-0.3l-0.1-0.1v-0.1V98c0,0,0-0.1,0-0.2v-0.1v-0.3v-0.1c0-0.1,0-0.2,0-0.3v-0.1v-0.1v-2.6C64.1,94,64.1,94,64,94
	v-0.1c0-0.1,0-0.1,0-0.2v-0.2v-0.3v-1.7v-0.2V91v-0.3c0-0.2,0-0.4,0-0.6v-0.6c0-0.1,0-0.2,0-0.2v-0.2V89v0c0-0.1,0,0,0,0v-0.3v-0.2
	V88v-0.4v-0.4v-0.1v-0.9v-0.3c0-0.1,0-0.1,0-0.2v-0.3v-0.2c0,0,0,0,0-0.1l0.1-0.1v-0.1h0.3h0.1h0.1c0,0,0,0,0.1,0h0.1
	c0,0,0.1,0,0.1-0.1c0,0,0,0,0.1,0h0.1h0.1c0.1,0,0.2,0,0.2,0h0.2V85l0.1-0.1h0.1c0.1-0.1,0.2-0.1,0.3-0.1H67h0.1h0.1l0.1,0.1
	c0.1,0,0.1,0.1,0.1,0.1l0.1,0.1l0.1,0.1v0.1c0.1-0.1,0.3-0.1,0.4-0.1l0.1,0.2l0.1,0.1c0,0.1,0.1,0.2,0.1,0.3c0,0.1,0.1,0.2,0.2,0.3
	l0.2,0.2c0.1,0.2,0.2,0.4,0.3,0.6c0,0.1,0.1,0.2,0.1,0.3c0,0.1,0.1,0.2,0.1,0.3l0.1,0.2c0.1,0.1,0.1,0.2,0.2,0.3
	c0.1,0.2,0.2,0.4,0.2,0.6l0.1,0.1v0.1l0.1,0.1V89c0,0.1,0,0.2,0.1,0.2V89v0.1v0.1l0.1,0.2c0,0,0,0,0,0.1l0.1,0.3l0.1,0.2
	c0,0.1,0,0.1,0.1,0.2l0.2,0.5c0,0,0,0.1,0.1,0.1l0.1,0.1c0,0.1,0,0.1,0.1,0.2c0,0.1,0,0.1,0,0.2l0.1,0.2c0,0,0.1,0,0.1,0.1l0.1,0.1
	l0.1,0.2c0,0.1,0,0.1,0.1,0.2l0.1,0.1h0.1c0,0,0,0.1,0.1,0.1c0,0,0,0.1,0.1,0.1c0,0.1,0,0.2,0.1,0.2L72,93c0,0.1,0.1,0.1,0.1,0.2
	l0.2,0.3c0.1,0.1,0.1,0.1,0.1,0.2s0.1,0.1,0.1,0.2l0.2,0.3c0,0,0,0,0,0.1v0.1l0.1,0.1l0.1,0.1l0.1,0.1v-0.1v-0.8v-0.1
	c0,0,0-0.1,0-0.2c0.1,0,0,0,0-0.1v-0.5c0-0.1,0-0.1,0.1-0.2v-0.1v-0.1c0,0,0,0,0-0.1v-0.1l0.1-0.1c0-0.1,0-0.2,0-0.2v-0.3
	c0-0.1,0-0.1,0-0.2s0-0.1,0-0.2v-1c0,0-0.1-0.1-0.1-0.2V90c0-0.1,0-0.1,0-0.2s0-0.1,0-0.2v-0.3C73,89.1,73,89,72.9,88.8
	c-0.1-0.1-0.1-0.2-0.1-0.3v-0.1c0,0,0,0,0-0.1v-0.2c0-0.1,0-0.1,0-0.2s0-0.1,0-0.2v-0.1c0,0,0,0,0-0.1v-0.3V87c0-0.1,0-0.1,0-0.2
	v-0.4c0-0.1,0-0.1,0-0.2V86c0-0.1-0.1-0.2-0.1-0.3c0-0.1,0-0.2,0-0.3v-0.1H73l0.1-0.1c0,0,0,0,0.1,0h0.2c0,0,0,0,0-0.1l0.1-0.1
	l0.2-0.1v-0.1h0.1V85l0.2-0.1h0.1c0,0,0,0,0.1,0c0,0,0,0,0,0.1l0,0H74l0,0h0.1l0,0l0.1-0.1h0.3v-0.1c0,0,0,0,0,0.1h0.2v-0.1H75
	c0,0,0,0,0,0.1h0.2l0.1,0.2h0.2l0.1,0.1h0.1l0.1,0.1c0,0.1,0.1,0.1,0.1,0.2s0,0.1,0,0.2c0,0,0,0.1,0.1,0.1c0,0,0.1,0.2,0.1,0.4v2
	c0,0,0,0,0,0.1s0,0,0,0.1v0.1v0.1V89c0,0,0,0,0,0.1v0.1c0,0.1,0,0.2,0,0.2s0.1,0.1,0.1,0.2v0.3V90v0.1c0,0,0,0.1,0,0.2v2.3
	c0,0.1,0,0.1,0,0.2v0.3c0,0.1,0,0.2,0,0.3v0.1v0.1c0,0.1,0,0.2,0,0.3c0,0.1,0,0.2,0,0.3V94c0,0.1-0.1,0.3-0.1,0.4v0.7c0,0,0,0,0,0.1
	H76c0.1,0.1,0.1,0.2,0.1,0.3c0,0.2,0,0.4,0.1,0.6v0.3c0,0.1,0,0.2,0,0.3V98c0,0,0,0.1,0,0.2v0.1v0.1v0.8v0.1v0.1h0.4l-0.1,0.1
	c0,0.1,0,0.2-0.1,0.2h-0.1v0.1v-0.1h-0.1v-0.2v0.1L76,99.8l-0.1,0.1h-0.1l-0.1-0.1v0.1v-0.1h-0.1l-0.1-0.1v0.1h-0.1v-0.1h-0.1v-0.1
	h-0.1c0,0,0,0-0.1,0v-0.2v0.1H75v-0.1v0.1l-0.1-0.3v0.1v0.1H75v0.1l-0.1-0.1h-0.1v0.1l-0.2,0.1h-0.2l-0.1-0.1l-0.2-0.1
	c0,0-0.1,0-0.1-0.1s-0.1-0.1-0.1-0.1h-0.1h-0.2c0,0-0.1,0-0.1-0.1c0,0,0,0,0,0.1h-0.1V99c0,0-0.1,0-0.1,0.1s-0.1,0-0.1,0
	c-0.1,0-0.1-0.1-0.1-0.2L71.7,99z M145.8,99l-0.1-0.1c-0.1-0.1-0.1-0.2-0.2-0.3c-0.1-0.1-0.1-0.2-0.2-0.3v-0.1l-0.1-0.2
	c-0.1,0-0.1-0.1-0.1-0.2l-0.1-0.2c0-0.1,0-0.1-0.1-0.2c0,0-0.1-0.1-0.1-0.2l-0.1-0.1V97h-0.1c-0.2,0-0.3-0.2-0.3-0.4v-0.1l-0.2-0.1
	H144v-0.1v-0.1l-0.1-0.1L144,96c0-0.1-0.1-0.1-0.1-0.2v-0.1l-0.1-0.2c-0.1-0.1-0.1-0.2-0.2-0.3c0-0.1-0.1-0.1-0.1-0.1l-0.1-0.1
	c-0.1-0.1-0.1-0.2-0.2-0.3l-0.1-0.1c0-0.1-0.1-0.1-0.1-0.2s-0.1-0.1-0.1-0.2l-0.1-0.1l-0.1-0.1l-0.4-0.9l-0.1,0.1V95v0.1v0.6
	c0,0,0,0.1,0.1,0.1v0.1v0.3c0,0.1,0,0.1,0,0.2v0.3c0,0.1,0,0.2,0,0.3v0.4v0.1v0.1v0.1v0.1v0.1c0,0.1,0,0.1,0,0.2l-0.1,0.2l-0.1,0.2
	c0,0.2-0.1,0.3-0.2,0.4c-0.1,0.1-0.1,0.2-0.1,0.3l-0.1,0.1c0,0,0,0.1-0.1,0.1c0,0,0,0.1-0.1,0.1c-0.1,0.1-0.2,0.1-0.2,0.2l-0.2,0.1
	c-0.1,0-0.1,0-0.2,0c-0.1,0-0.1,0-0.2,0h-0.1h-0.3h-0.1h-0.1h-0.2c-0.1,0-0.1-0.1-0.2-0.2c-0.1-0.1-0.2-0.2-0.3-0.2h-0.1l-0.3-0.3
	c-0.1-0.1-0.1-0.2-0.2-0.3c0-0.1-0.1-0.2-0.1-0.3l-0.1-0.1v-0.1v-0.1c0,0,0-0.1,0-0.2v-0.1v-0.3v-0.1c0-0.1,0-0.2,0-0.3v-0.1V97v-3
	v-0.1c0-0.1,0-0.1,0-0.2v-0.2v-0.3v-1.7v-0.2c0-0.1,0-0.1,0-0.2V91v-0.3c0-0.2,0-0.4,0-0.6v-0.6v-0.4V89v-0.1v-0.3
	c0-0.1,0-0.1,0-0.2s0-0.1,0-0.2V88v-0.4c0-0.1,0-0.2,0-0.3v-0.1v-0.1V87v-0.8v-0.3c0-0.1,0-0.1,0.1-0.2v-0.4c0,0,0,0,0-0.1l0.1-0.1
	l0.1-0.1h0.1h0.2h0.1h0.1c0,0,0,0,0-0.1c0,0,0,0,0.1,0h0.1c0,0,0.1,0,0.1-0.1h0.1c0,0,0,0,0.1,0h0.2h0.1c0.1,0,0.2,0,0.2,0h0.2v-0.1
	l0.1-0.1h0.1c0.1-0.1,0.2-0.1,0.3-0.1h0.2l0.1,0.1c0.1,0,0.1,0.1,0.1,0.1l0.1,0.1l0.1,0.1l0.1,0.1c0.1,0.1,0.1,0.1,0.2,0.2l0.1,0.2
	l0.1,0.1c0,0.1,0.1,0.2,0.1,0.3c0.1,0.1,0.1,0.2,0.2,0.3l0.1,0.2c0.1,0.2,0.2,0.4,0.3,0.6l0.1,0.3c0,0.1,0.1,0.2,0.1,0.3l0.1,0.2
	l0.2,0.3c0.1,0.1,0.1,0.3,0.2,0.6l0.1,0.1v0.1l0.1,0.1V89c0,0,0,0.1,0.1,0.1c0,0.1,0,0.2,0.1,0.2V89c0,0,0,0.1,0.1,0.1v0.1l0.1,0.2
	c0,0,0,0,0,0.1l0.1,0.3l0.1,0.2c0,0.1,0,0.1,0.1,0.2l0.2,0.5c0,0,0,0.1,0.1,0.1l0.1,0.1c0.1,0.1,0.2,0.2,0.3,0.2c0,0.1,0,0.1,0,0.2
	l0.1,0.2l0.1,0.1l0.1,0.1l0.1,0.2c0,0.1,0,0.1,0.1,0.2s0.1,0.1,0.1,0.1h0.1c0,0,0,0.1,0.1,0.1l0.1,0.1c0,0.1,0,0.2,0.1,0.2l0.1,0.2
	c0,0.1,0.1,0.1,0.1,0.2l0.1,0.3c0.1,0.1,0.1,0.1,0.1,0.2s0.1,0.1,0.1,0.2l0.2,0.3c0,0,0,0,0.1,0.1v0.1v0.1l0.1,0.1l0.1,0.1v-0.1
	v-0.2v-0.1v-0.6v-0.1v-0.2v-0.6c0-0.1,0-0.1,0.1-0.2v-0.1v-0.1c0,0,0,0,0-0.1V92l0.1-0.1v-0.2c0-0.1,0-0.2,0-0.2v-0.1
	c0-0.1,0-0.1,0-0.2s0-0.1,0-0.2v-1v0c0-0.1,0-0.1,0-0.2s0-0.1,0-0.2v-0.3c-0.1-0.2-0.1-0.3-0.2-0.5c-0.1-0.1-0.1-0.2-0.1-0.3v-0.1
	c0,0,0,0,0-0.1v-0.2c0-0.1,0-0.1,0-0.2v-0.3c0,0,0,0,0-0.1v-0.3V87v-0.6v-0.2V86c0-0.1,0-0.2-0.1-0.3c0-0.1,0-0.2,0-0.3v-0.1h0.3
	l0.1-0.1c0,0,0,0,0.1,0h0.1v-0.1l0.1-0.1l0.2-0.1v-0.1h0.1V85l0.2-0.1h0.1c0,0,0,0,0.1,0c0,0,0,0,0,0.1l0,0h0.1l0,0h0.1v0.1l0.1-0.1
	h0.2v-0.1c0,0,0,0,0,0.1h0.2v-0.1h0.3V85h0.2h0.4h0.3l0.1,0.1h0.1l0.1,0.1c0,0,0.1,0.1,0.1,0.2s0,0.1,0,0.2c0,0,0,0.1,0.1,0.1
	c0,0,0.1,0.2,0.1,0.4v2c0,0,0,0,0,0.1v0.1v0.1v0.1v0.4c0,0.1,0,0.2,0.1,0.2c0,0.1,0,0.1,0,0.2v0.3v0.1v0.1c0,0,0,0.1,0,0.2v2
	c0,0.1,0,0.1,0,0.2v0.5c0,0.1,0,0.2,0,0.3v0.1v0.1c0,0.1,0,0.2,0,0.3c0,0.1,0,0.2,0,0.3V94c0,0.1-0.1,0.3-0.1,0.4v0.7c0,0,0,0,0,0.1
	h-0.1c0.1,0.1,0.1,0.2,0.1,0.3c0,0.2,0,0.4,0.1,0.6v0.3c0,0.1,0,0.2,0,0.3v1.7c0,0,0,0.1-0.1,0.1v0.8v0.1v0.1h-0.1v0.1
	c0,0.1,0,0.2-0.1,0.2h-0.1v0.1l-0.1-0.1v-0.2v0.1l-0.1,0.2l-0.1,0.1h-0.1l-0.1-0.1v0.1v-0.1H150l-0.1-0.1c0,0,0,0,0,0.1h-0.1v-0.1
	h-0.1v-0.1h-0.1c0,0,0,0-0.1,0v-0.2v0.1h-0.1v-0.1v0.1l-0.1-0.3v0.1v0.1h-0.1v0.1l-0.1-0.1H149c0,0,0,0,0,0.1h-0.1l-0.2,0.1h-0.2
	l-0.1-0.1h-0.1l-0.2-0.1c0,0-0.1,0-0.1-0.1s-0.1-0.1-0.1-0.1h-0.3c0,0-0.1,0-0.1-0.1s0,0,0,0.1h-0.1v-0.1c0,0-0.1,0-0.1,0.1
	s-0.1,0-0.1,0c-0.1,0-0.1-0.1-0.1-0.2L145.8,99z M88.6,96.2l-0.2,0.3c0,0,0,0,0,0.1l-0.1,0.1h-0.1l-0.1,0.1L88,97h-0.2l-0.3,0.2
	c-0.1,0.1-0.2,0.2-0.3,0.3c-0.1,0.1-0.2,0.2-0.3,0.2H87h-0.1l-0.7,0.6c-0.1,0.1-0.2,0.2-0.3,0.2c-0.1,0-0.2,0.1-0.3,0.1
	c-0.1,0.1-0.3,0.1-0.4,0.1c-0.2,0-0.4,0-0.5,0.1h0.1h-0.1c-0.1,0-0.2,0-0.3,0c-0.1,0-0.2,0.1-0.4,0.1L83.7,99l-0.2,0.1h0.1h-0.1
	h-0.1v0.1h-0.7c-0.4,0-0.7,0-1.1-0.1L80.8,99l-0.4,0c-0.1,0-0.2-0.1-0.3-0.1h-0.7h-0.1h-0.1H79c0,0,0,0,0-0.1v-0.2h0.1
	c-0.1,0-0.2,0-0.2-0.1v-0.1l0.1-0.1v-0.2h-0.1L79,98l-0.2-0.6c0,0,0,0,0-0.1h0.1l-0.1-0.1c0-0.1-0.1-0.2-0.1-0.3
	c0-0.1,0-0.2-0.1-0.3V96l0.1-0.1V95v-0.3v-0.6V94v-0.1v-0.5c0,0,0,0,0-0.1c0,0,0,0-0.1,0v-0.1V93c0-0.1,0-0.1,0-0.2v-0.1h0.1v-0.1
	c0-0.1,0-0.1,0-0.2c0,0,0-0.1,0-0.2s0-0.1,0-0.2v-0.1h0.1L78.3,92v-0.3h0.1l-0.1-0.1v-0.2v-0.1v-0.1V91h0.1v-0.3v-0.1v-0.1
	c0-0.2,0-0.4-0.1-0.4v0.2h-0.1v-0.2c0-0.2,0-0.4,0-0.6s0-0.4,0-0.7c0-0.1,0-0.3,0-0.4s0-0.2,0-0.4v-0.3c0-0.1,0-0.1,0-0.2
	c0,0,0.1-0.1,0.1-0.2v-0.1c0-0.2,0.1-0.3,0.1-0.5s0-0.4,0-0.6c0-0.1,0-0.2,0.1-0.3s0.1-0.2,0.1-0.4v-0.1l-0.1-0.1l-0.1-0.1V85
	l0.1-0.1h0.3l0.1-0.1H79v-0.1h0.1l0.1-0.1h0.1v0.1c0.1,0,0.1,0,0.2-0.1h0.1l0.1-0.1c0,0,0,0,0.1,0h0.1c0.1,0,0.1,0,0.2-0.1
	s0.2-0.1,0.3-0.1h0.1l0.2-0.1h2.7l0.3,0.1h0.2c0.1,0,0.3,0,0.4,0.1c0.1,0,0.2,0,0.3,0h0.1c0.1,0,0.3,0,0.4,0.1
	c0.1,0,0.2,0.1,0.3,0.1l0.5,0.2c0.1,0,0.1,0,0.2,0.1c0.3,0.1,0.5,0.2,0.7,0.4c0,0,0.1,0.1,0.2,0.2s0.2,0.2,0.3,0.2l0.1,0.1
	c0,0,0.1,0,0.1,0.1l0.3,0.3c0,0.1,0.1,0.2,0.1,0.2l0.2,0.2c0.1,0.1,0.2,0.1,0.3,0.2c0.1,0.1,0.2,0.2,0.2,0.4v0.1
	c0.1,0.1,0.1,0.2,0.2,0.3c0,0.1,0.1,0.2,0.2,0.3l0.2,0.3c0.1,0,0.1,0,0.1,0.1l0.1,0.3c0,0.1,0,0.2,0.1,0.3c0,0.1,0.1,0.2,0.2,0.3
	v0.1c0,0.1,0,0.2,0,0.2c0,0.1,0,0.2,0,0.3v0.4c0,0.1,0,0.2,0,0.3c0,0.1-0.1,0.2-0.1,0.3V91v0.1c0,0.1,0,0.1,0,0.2v0.2l-0.1,0.1
	c-0.1,0.2-0.2,0.3-0.2,0.5c0,0.1,0,0.2,0,0.3v0.1c0,0.1,0,0.2,0,0.3c0,0,0,0.1,0,0.2v0.1c0,0.1,0,0.2-0.1,0.3c0,0.1-0.1,0.2-0.1,0.3
	c0,0.1-0.1,0.2-0.1,0.3c0,0.1,0,0.2,0,0.2l0,0.3l-0.1,0.1l-0.1,0.2v0.1V95l-0.2,0.3c0,0.1,0,0.1,0,0.2s0,0.1-0.1,0.2c0,0,0,0,0,0.1
	v0.1L88.6,96.2z M82.8,95.5H83l0.1,0.1c0.1,0,0.2,0,0.2,0h0.2l0.2-0.1h0.2c0.1,0,0.1,0,0.2-0.1v-0.1h0.1h0.2l0.2-0.1
	c0,0,0.1,0,0.1-0.1c0.1-0.1,0.1-0.1,0.2-0.1l0,0H85v-0.2c0.1,0,0.2-0.1,0.2-0.2c0.1-0.1,0.1-0.1,0.1-0.2l0.2-0.3
	c0-0.1,0.1-0.1,0.1-0.2h0.1V94c0-0.1,0-0.1,0-0.2s0-0.1,0.1-0.1l0.1-0.2v-0.1v-0.1v-0.2V93l0.1-0.1c0.1-0.1,0.1-0.2,0.2-0.3v-0.4
	v-0.1v-0.2v-0.1v-0.1c0,0,0,0,0-0.1v-0.3c0-0.1,0-0.1,0-0.2V91v-0.4c0,0-0.2,0-0.2-0.4c0-0.2-0.1-0.3-0.2-0.5
	c-0.1-0.1-0.2-0.3-0.2-0.4l-0.1-0.2L85.3,89l-0.2-0.1c0,0-0.2-0.1-0.3-0.2c-0.2-0.1-0.4-0.2-0.6-0.2L84,88.4l-0.3-0.1l-0.3-0.1
	c-0.1,0-0.1,0-0.2-0.1h-0.1H83c0,0-0.1,0-0.2,0h-0.3v0.1c0,0.1,0,0.1,0,0.2v0.9c0,0.2,0,0.3,0.1,0.3v0.5c0,0.3,0,0.6,0,0.9
	s0.1,0.5,0.1,0.8v0.5c0,0.1,0.1,0.1,0.1,0.2s0,0.1,0,0.2v2.5L82.8,95.5z M87.2,90.6L87.2,90.6L87.2,90.6z M91.7,99.6L91.7,99.6
	c0.1,0,0.1,0.1,0.2,0.1v-0.1v-0.1h-0.4v-0.1h-0.1l-0.2-0.1c0,0,0,0,0-0.1c0,0,0,0,0-0.1V99L91,99v-0.1c0,0,0,0,0-0.1L90.8,99h-0.1
	l0,0l-0.2-0.1l0.1-0.2c0,0.1-0.1,0.1-0.2,0.2h-0.1l-0.1-0.1c-0.1,0-0.2,0-0.2-0.1l0,0.1h-0.3l0.1-0.2l0.1-0.2v-0.2v-0.1V98
	c0,0.1-0.1,0.2-0.2,0.2c0-0.1,0-0.1,0.1-0.2c0-0.1,0.1-0.1,0.1-0.2c0,0-0.1,0.2-0.2,0.3l-0.2,0.4l-0.2,0.2l0.2-0.6c0,0,0,0,0-0.1v0
	c0.1-0.1,0.1-0.2,0.1-0.3c0.1-0.1,0.1-0.3,0.2-0.4v-0.1c0.1-0.1,0.1-0.2,0.2-0.3c0-0.1,0-0.2,0.1-0.2v-0.1L90,96.7l0.3-0.7
	c0,0,0,0,0-0.1v-0.1l0.3-0.6c0-0.1,0.1-0.2,0.1-0.3V95c0-0.1,0.1-0.1,0.1-0.2s0-0.1,0.1-0.2l0.1-0.2c0,0,0.1-0.1,0.2-0.3
	c0.1-0.2,0.2-0.4,0.2-0.5l0.1-0.1c0.1-0.1,0.1-0.2,0.1-0.3l0.1-0.3c0-0.1,0.1-0.1,0.1-0.2v-0.1c0.1-0.1,0.2-0.2,0.2-0.3
	c0-0.3,0-0.4,0-0.4l0.1-0.2c0.1-0.2,0.2-0.5,0.4-0.7c0.1-0.2,0.3-0.4,0.4-0.6l0.2-0.3c0-0.1,0-0.1,0.1-0.2s0.1-0.2,0.2-0.4l0.1-0.1
	c0-0.1,0.1-0.2,0.1-0.3c0.1-0.1,0.1-0.2,0.1-0.3l0.2-0.3c0-0.1,0.1-0.1,0.1-0.2s0.1-0.1,0.1-0.2s0.1-0.2,0.1-0.3
	c0.1-0.1,0.1-0.3,0.1-0.4l1.1-2.2c0-0.1,0.1-0.1,0.1-0.2s0.1-0.1,0.1-0.2h0.2l0.1-0.1h0.8h0.1h0.1l0.1,0.1h0.4l0.1,0.1l-0.1-0.1h0.1
	l0.1,0.1c0,0,0.1,0,0.1,0.1h0.2l0.6,0.5c0,0.1,0.1,0.2,0.2,0.3c0.2,0.1,0.3,0.3,0.4,0.5l0.2,0.4c0.1,0.1,0.2,0.2,0.2,0.3
	c0.2,0,0.3,0,0.5,0c0,0.1,0,0.2,0.1,0.2c0,0.1,0.1,0.1,0.2,0.2l0.1,0.2c0,0.1,0.1,0.1,0.1,0.2c0,0,0.1,0.1,0.1,0.2l0.3,0.6v0.1v0.1
	l0.3,0.5c0,0.1,0.1,0.2,0.2,0.4c0,0.1,0.1,0.2,0.1,0.3v0.1c0,0.1,0.1,0.1,0.1,0.2s0.1,0.2,0.1,0.2s0,0.1,0.1,0.1
	c0,0.1,0.1,0.2,0.1,0.2c0,0.1,0.1,0.2,0.1,0.3c0,0,0,0,0,0.1l0.2,0.6c0.1,0.1,0.1,0.3,0.2,0.4c0,0.1,0.1,0.2,0.1,0.3l0.1,0.2
	c0,0,0,0.1,0.1,0.2c0,0.1,0.1,0.1,0.1,0.2l0.3,0.7c0,0.1,0.1,0.1,0.1,0.2s0.1,0.2,0.1,0.3v0.1h0.1c0,0,0,0.1,0.1,0.1v0.3h-0.1
	l-0.1,0.2v0.2c0,0.1,0,0.1,0.1,0.2s0.1,0.2,0.1,0.3c0,0.1,0.1,0.2,0.1,0.3c0,0,0.1,0.1,0.1,0.2c0,0,0.1,0,0.1,0.2
	c0,0.1,0.1,0.2,0.1,0.2v0.1c0,0.1,0.1,0.3,0.1,0.4c0,0.2,0.1,0.3,0.1,0.5v0.1c0,0,0,0,0,0.1l0.1,0.2v0.3h-0.1l-0.1-0.1h-0.1v0.3
	h-0.1l-0.1,0.1l-0.2,0.2v0.1h-0.2l0.1,0.1H103c0,0-0.1,0.1-0.2,0.1l-0.2,0.1c0,0.1,0,0.1-0.2,0.1v0.1h-0.1h-0.6c-0.1,0-0.2,0-0.2,0
	v0.1h-0.1l-0.1-0.2c-0.1,0-0.3,0-0.4-0.1v-0.1c0,0-0.1,0-0.1-0.2c0-0.1-0.1-0.2-0.1-0.2l-0.2-0.2v-0.1v-0.1
	c-0.1-0.1-0.2-0.2-0.2-0.3v-0.1c0,0,0,0,0-0.1l-0.1-0.2c0,0,0-0.1-0.1-0.1L99.6,97c0-0.1-0.1-0.1-0.1-0.2s-0.1-0.1-0.1-0.2h-0.7
	c-0.1,0-0.1,0-0.1,0.1h-1l-0.2,0.1h-1.8c-0.1,0-0.2,0-0.3,0.1h-1l-0.2,0.3v0.1L94,97.7v0.1l-0.2,0.3c0,0.1,0,0.2-0.1,0.2l-0.2,0.2
	l-0.2,0.2c0,0-0.1,0.1-0.1,0.2L93,99.2c0,0.1-0.1,0.1-0.1,0.2l-0.2,0.3c-0.1,0-0.1,0.1-0.2,0.2s-0.1,0.1-0.2,0.1L92,99.8l0,0
	l-0.1-0.1L91.7,99.6L91.7,99.6z M95.4,93.7C95.4,93.7,95.4,93.8,95.4,93.7l0.9,0.1c0.1,0,0.2,0,0.3,0h0.5l1.5-0.1l-0.9-2.5
	c0-0.1-0.1-0.2-0.1-0.2c0-0.1-0.1-0.2-0.1-0.2v-0.1c0-0.1-0.1-0.1-0.1-0.2c0-0.3-0.1-0.3-0.1-0.3l-0.5,1L96.4,92
	c-0.1,0.2-0.1,0.4-0.2,0.5C95.9,92.9,95.7,93.3,95.4,93.7 M107.3,84.4h6.2v0.1v-0.1h0.1h0.1h0.2c0.1,0,0.1,0,0.2,0h0.2
	c0.1,0,0.1,0,0.2,0s0.3,0,0.4,0h0.3l0.1,0.1v0.3l-0.2,0.1v0.2c0,0.1,0.1,0,0.1,0.1v0.1h0.1v0.1v0.7c0,0.1,0,0,0,0v0.7h-0.1v0.1
	L115,87v0.1l-0.1,0.2l0.1,0.1c-0.1,0-0.1,0.1-0.2,0.1v0.3h-0.1h-0.1c-0.1,0-0.1,0.1-0.2,0.1h-0.1c-0.1,0-0.2,0-0.3,0
	c-0.2,0-0.4,0-0.6,0h-0.1c-0.2,0-0.4,0-0.6,0s-0.3,0-0.5,0h-1c0,0,0,0,0,0.1v0.2c0,0.1,0,0.3,0,0.4v0.2c0,0.1,0,0.2,0,0.3v0.2
	c0,0.1,0,0.1,0,0.2v0.1v0.1v0.1V92c0,0.1,0,0.2,0,0.2v1.3c0,0.1,0,0.1,0,0.2s0,0.2,0,0.2v0.2c0,0.2,0,0.3,0,0.5c0,0.1,0,0.3,0,0.4
	v1.9V97v1c0,0.1,0-0.2,0,0s0,0.4-0.1,0.5v-0.1v0.3l0,0c0,0,0,0-0.1,0v0.1c0,0,0,0.1-0.1,0.1h-0.1V99v0.1v0.1V99h-0.1
	c-0.1,0-0.1,0.1-0.1,0.1v-0.3v-0.1v0.2v-0.2V99l-0.1-0.2h-0.1v0.4l-0.1-0.1l-0.1-0.2v0.2l-0.3,0.2c0,0,0,0-0.1,0h0.2
	c-0.1,0-0.2,0-0.2-0.1c-0.1,0-0.1,0-0.2,0l-0.2-0.2h-0.1l-0.1-0.1V99c0,0-0.1,0-0.1-0.2v0.5l-0.1-0.1h-0.1c0,0,0,0.2-0.1,0.1
	c0-0.1-0.1-0.2-0.1-0.2V99c0-0.1-0.1,0.2-0.1,0.1l-0.1-0.1c-0.1-0.3-0.1-0.7-0.1-1c0-0.2,0-0.4,0-0.5v-0.2v-0.1v-0.1V97v-0.3
	c0-0.1,0-0.2,0-0.3v-1.8v-0.4V92c0,0,0,0,0-0.1v-0.7c0-0.2,0-0.4,0-0.6v-0.4v-0.4c0-0.1,0-0.3,0-0.4v-0.1c0-0.1,0-0.1,0-0.2
	s0-0.1,0.1-0.2v-0.7c-0.1,0-0.1,0-0.2,0H108c-0.1,0-0.2,0-0.3,0c-0.1,0-0.1,0-0.2,0H105c0,0-0.1,0-0.2,0h-0.2c-0.2,0-0.3,0-0.5,0
	H103c-0.1,0-0.1,0-0.2-0.1h-0.2h-0.1h-0.3h0.1V88c-0.1,0-0.2,0-0.2,0h-0.2v-0.1h0.4h0.1v-0.1h-0.3h0.1c0.1,0,0.1,0,0.2,0v-0.1H102
	h0.1h0.3l-0.1-0.1h0.1v-0.1h-0.5v-0.1h0.1l-0.1-0.1l0.4-0.1h0.1H102h0.3l0.1-0.1H102h0.3H102h0.1h0.1h0.1H102h0.3l0.2-0.1H102h0.4
	h-0.2h0.1H102v-0.1h0.2c0.1,0,0.1,0,0.1-0.1h-0.2h0.1h0.1h0.1h-0.3h0.2h0.1h0.1h-0.3l0.1-0.1c0,0,0.1,0,0.1-0.1h-0.1h0.1h0.1h0.1
	h-0.1c0,0,0,0,0-0.1l0.1-0.1c0-0.1,0-0.1,0.1-0.1V86l0.1-0.1l0.1-0.1h1.7l0.1-0.1h0.1l-2,0.1l1.1-1.7L107.3,84.4z M118.4,99.5
	L118.4,99.5c-0.2,0-0.2,0-0.2,0.1s0,0.1-0.1,0.2l-0.1-0.1l-0.1,0.1c0,0,0,0,0-0.1c0,0,0-0.1-0.1-0.1v-0.1c-0.1,0-0.1,0.1-0.2,0.1
	l0,0h-0.1l-0.1,0.1l-0.1-0.1l-0.1-0.1l-0.1,0.1H117v-0.1l-0.1-0.2v-0.1c0,0-0.1,0-0.1-0.1v-0.6l0.1-0.2V98v-0.2v-2.4
	c0-0.1-0.1-0.2-0.1-0.3l-0.1-0.3v-0.1v-0.2v-0.1v-0.1v-0.2v-0.5c0-0.2,0-0.4,0-0.7v-0.8c0-0.1,0-0.1,0-0.2s0-0.2,0-0.3V91
	c0-0.1,0-0.1,0-0.2s0-0.1,0-0.2v-0.1v-0.1v-0.2c0-0.2,0-0.4,0.1-0.6c0-0.2,0.1-0.4,0.1-0.7v-0.1v-0.1v-0.4v-0.2v-0.4v-0.4v-0.2v-0.3
	v-0.5V86c0-0.1,0-0.3,0.1-0.4v-0.3v-0.1v-0.1V85l0.1-0.1c0-0.1,0.1-0.1,0.1-0.1l0.2-0.2h0.1l0.1-0.1h0.1c0.1,0,0.1,0,0.2,0h1.3
	c0.1,0,0.2,0,0.2,0c0.1,0,0.1,0,0.2,0l0.2,0.1h0.3l0.1-0.1l0.1,0.1l0.1,0.1v0.1c0,0.1,0,0.1,0,0.2v0.1l0.1,0.2
	c0.1,0.1,0.1,0.2,0.1,0.2c0,0.2,0,0.3,0,0.5v1.1c0,0.1,0,0.2,0,0.3v1.7c0,0.1,0,0.3,0,0.4v0.3c0,0.1,0,0.2,0,0.2v0.2
	c0,0.1,0,0.3,0,0.4V93c0,0.1,0,0.1,0,0.2V94c0,0.1,0,0.1,0,0.2v0.1c0,0.1,0,0.2,0,0.3c0,0.2,0,0.3,0,0.5v0.8c0,0.1,0,0.1,0,0.2v0.1
	c0,0.2,0,0.4-0.1,0.6c0,0.2,0,0.4,0,0.5v0.2c0,0.1,0,0.1,0,0.2v0.4c0,0.1,0,0.2,0,0.3c0,0.1-0.1,0.3-0.1,0.4c0,0,0,0.1-0.1,0.1
	c0,0-0.1,0.1-0.1,0.2l-0.1,0.1c0,0,0,0.1-0.1,0.1l-0.1,0.1v0.1c0,0,0,0,0,0.1l-0.1-0.1h-0.1c-0.1,0-0.1,0.1-0.1,0.2h-0.1v-0.1v-0.1
	v-0.1h-0.1c0,0,0,0,0-0.1h-0.1v0.1l-0.1,0.1l-0.2,0.2h-0.1v-0.1l-0.2,0.2v-0.1v-0.1L118.4,99.5z M32.5,92.2h0.2H32.5
	c0,0.1,0,0.1,0,0.2h0.1h-0.1h0.3h-0.2h0.1l-0.1,0.1c-0.2,0-0.4,0.1-0.5,0.2c-0.1,0.1-0.2,0.2-0.4,0.2L31.4,93h-0.3l-0.2,0.1
	c-0.1,0-1.5,0.1-1.6,0.1c-0.2,0-0.3,0-0.5,0.1v3c0,0.1,0,0.3,0,0.4v0.2c0,0.1,0,0.2,0,0.2v1.4v0.1v0.2c0,0,0,0.1-0.1,0.1
	c0,0-0.1,0.1-0.1,0.2v0.1v0.1l-0.1-0.1l-0.1-0.1h-0.3c0,0,0,0.1-0.1,0.1l0,0.2l-0.1-0.1v-0.1h-0.1c0,0,0,0,0,0.1h-0.2l-0.1,0.1h-0.1
	c0,0-0.1,0-0.1-0.1c-0.1,0-0.1,0-0.2-0.1H27v0.2h-0.3v-0.1l-0.1-0.1h-0.2l-0.1-0.1v0.1h-0.2c-0.1,0-0.1,0-0.1-0.1V99h-0.1l0.1,0.3
	l-0.1-0.2v0.1c0,0,0,0,0,0.1l0,0v0.1h-0.1l-0.1-0.1l-0.1-0.1l-0.2-0.1c0,0-0.1-0.1-0.1-0.2v-0.3c0-0.2,0-0.3,0-0.5
	c0-0.1,0-0.2-0.1-0.3v-0.4c0-0.1,0-0.2,0-0.3c0-0.1,0-0.1,0-0.2c0-0.2,0-0.4-0.1-0.6c-0.1-0.5-0.1-0.7-0.1-1v-0.4v-0.3v-0.2V94v-0.4
	v-0.9v-0.9v-1.7c0,0,0-0.1,0-0.2s0-0.2,0-0.2v-1.1v-0.1v-0.1V88v-0.7c0-0.1,0-0.2,0-0.3l0.1-0.4v-1.2L25,85.3v-0.2V85v-0.2l0.2-0.1
	h0.2l0.1,0.1h0.1h0.8H26l0.2-0.1h0.2c0.4,0,0.8,0,1.2-0.1c0.4-0.1,0.7-0.1,1.1-0.1h2.8c0.1,0,0.3,0,0.4,0.1c0.1,0,0.3,0.1,0.4,0.1
	h1.1c0.2,0,0.4,0,0.6,0.1l0.4,0.1c0.2,0,0.4,0,0.6,0L34.9,85c0,0-0.1,0-0.1,0.1v0.1h0.1L35,85l-0.1,0.1c-0.1,0-0.1,0-0.2,0H35
	l-0.1,0.1h-0.2l-0.2,0.1c0,0,0.1,0,0.1,0.1h0.1h-0.2l0.1,0.1h0.3h-0.1h-0.1v0.1l0.1,0.1c0,0,0,0-0.1,0h-0.2l-0.1,0.1c0,0,0,0,0.1,0
	h0.1l-0.1,0.1h0.2L34.5,86l0.3,0.1l0.1,0.1h-0.3h0.2l0.1,0.1H35l-0.2,0.2H35l-0.1,0.1h-0.3v-0.1h-0.1v0.1h0.1h0.1h-0.1v0.1h0.1v0.1
	h-0.1v0.1l0.1,0.1l-0.1,0.1h0.1l-0.2,0.1l0.1,0.1h-0.2h0.2h-0.1l-0.1,0.1h-0.1L34,86.9L33.9,87h-0.1c-0.2,0-0.4,0-0.6,0
	c-0.1,0-0.2,0.1-0.3,0.1h-3.3c-0.1,0-0.3,0-0.4,0h-0.6c0,0.3,0,0.6,0.1,0.8c0.1,0.3,0.1,0.6,0.1,0.9H31c0.1,0,0.2,0,0.3,0
	c0.1,0,0.2,0,0.3,0h0.1l0.1,0.1H32l0.2,0.1h0.5h0.1H33l0,0h-0.1H33h-0.1h-0.1h-0.1l-0.1,0.1h-0.1l-0.1,0.1h-0.1h0.1h0.1v0.1h0.2v0.1
	h-0.2l0.1,0.1c0.1,0,0.1,0.1,0.2,0.1h-0.2h0.1c-0.1,0-0.1,0.1-0.2,0.1h0.4c-0.1,0-0.2,0-0.2,0.1c-0.1,0-0.2,0-0.2,0h0.1v0.1l0,0h0.1
	h0.1h0.1l0,0H33c-0.1,0-0.1,0-0.2,0h-0.2h0.1c-0.1,0-0.2,0-0.2,0.1l-0.1,0.1h0.3L32.5,92.2z M47.5,86.8L47.5,86.8l0.1,0.2
	c0,0.1,0.1,0.2,0.2,0.2l0.1,0.1c0,0,0,0,0,0.1v0.1l0.2,0.3c0,0.1,0.1,0.1,0.1,0.2l0.1,0.1V88l0.1,0.1c0,0,0.1,0.1,0,0.2v0.3v0.1
	l0.1,0.1c0.1,0.1,0.1,0.1,0.1,0.2c0,0.2,0,0.3,0.1,0.4v0.1c0,0.1,0,0.1,0,0.2s0,0.2,0,0.2v0.5V90c0,0,0,0,0,0.1v0.2c0,0,0,0,0,0.1
	v0.2h0.1c0,0.1,0,0.2,0,0.3c0,0.1-0.1,0.2-0.1,0.3v0.1c0,0,0,0.1,0,0.2v0.1v0.1V92h0.1l-0.1,0.3c0,0,0,0.1,0,0.2l-0.1,0.3v0.5v0.1
	v0.1l-0.3,0.7v0.1v0.1l-0.1,0.1l-0.1,0.1C48,94.7,48,94.8,48,94.9l0,0.1c0,0,0,0,0,0.1v0.1l-0.1,0.3v0.2v0.1v0.1V96c0,0,0,0,0,0.1
	v0.1l-0.1,0.3c-0.1,0.1-0.2,0.3-0.3,0.5s-0.2,0.3-0.2,0.3v0.1c-0.1,0.2-0.3,0.3-0.4,0.4c-0.2,0.1-0.3,0.2-0.3,0.2l-0.1,0.1L46,98
	c-0.1,0-0.1,0.1-0.2,0.1v0.1c-0.1,0-0.2,0.1-0.2,0.2c-0.1,0.1-0.2,0.2-0.3,0.2l-0.1,0.1l-0.1,0.1c0,0-0.1,0-0.1,0.1L44.9,99
	l-0.2,0.1L44.5,99l-0.4,0.2c-0.1,0.1-0.2,0.1-0.3,0.2l-0.4,0.2c-0.1,0-0.3,0.1-0.5,0.1h-0.5c-0.1,0-0.2,0-0.2,0h-0.7
	c-0.1,0-0.2,0-0.3,0H41c-0.1,0-0.1,0.1-0.2,0.1h-0.6c-0.2,0-0.4,0-0.5,0l-0.4-0.1l-0.4-0.1c-0.2,0-0.3,0-0.5-0.1
	c-0.1,0-0.2-0.1-0.3-0.1l-0.4-0.2h-0.2L37,98.9l-0.6-0.6l-0.1-0.1c-0.1,0-0.1-0.1-0.2-0.2C36,97.9,36,97.9,36,97.8l-0.1-0.1
	l-0.1-0.1l-0.2-0.2c0-0.1,0-0.2-0.1-0.3c-0.1-0.1-0.2-0.2-0.2-0.4l-0.2-0.3v-0.2c0,0,0,0,0-0.1L35,95.8v-0.1v-0.1v-0.1
	c0,0,0-0.1,0-0.2L34.7,95v-0.2l-0.1-0.1v-0.2c-0.1-0.1-0.1-0.2-0.1-0.4c0-0.1,0-0.2-0.1-0.3c-0.1-0.1-0.1-0.3-0.1-0.4
	c0-0.2,0-0.3,0-0.5v-0.4v-0.3v-0.1V92c0-0.1,0-0.1,0-0.2v-0.1v-0.1v-0.3c0-0.1,0-0.2,0-0.3l0.1-0.2v-0.2c0-0.1,0.1-0.1,0.1-0.2v-0.2
	v-0.1V90v-0.1V90c0,0,0,0,0-0.1v-0.1l0.2-0.2c0.1-0.1,0.1-0.2,0.2-0.3C35,89.2,35,89.1,35,89h0l0.1-0.2c0.1,0,0.1-0.1,0.2-0.3
	c0.1-0.2,0.2-0.3,0.3-0.5l0.1-0.1c0.1-0.1,0.2-0.2,0.3-0.3c0.1-0.2,0.2-0.3,0.2-0.3l1.2-1.2l0.3-0.2c0.1-0.1,0.2-0.1,0.3-0.2
	l0.3-0.2l0,0c0.2,0,0.4-0.1,0.5-0.2c0.2-0.2,0.4-0.3,0.7-0.3h0.2c0.1,0,0.1-0.1,0.2-0.1c0.2-0.1,0.3-0.1,0.5-0.1c0.3,0,0.7,0,1,0
	h0.1c0.2,0,0.4,0,0.6,0l0.3,0.1l0.3,0.1c0.2,0,0.4,0,0.7,0c0.1,0.1,0.1,0.1,0.2,0.1c0.1,0,0.2,0,0.3,0h0.4h0.1h0.1h0.1
	c0.1,0,0.1,0,0.1,0.1l0.3,0.2l0.2,0.1c0.1,0,0.1,0.1,0.2,0.1h0.2l0.1,0.1h0.1v0.1l0.1,0.1l0,0c0,0,0,0-0.1,0V86l0.2,0.1
	c0,0,0.1,0.1,0.2,0.1l0.2,0.1c0,0.1,0.1,0.1,0.1,0.1c0.1,0.1,0.1,0.1,0.2,0.2l0.1,0.1h0.1l0.2,0.2v-0.1h0.2v0.1h-0.2L47.5,86.8z
	 M44.7,94.3L44.7,94.3C44.8,94.2,44.8,94.2,44.7,94.3l0.2-0.2c0-0.1,0.1-0.3,0.2-0.4c0.1-0.2,0.2-0.3,0.2-0.3l0.1-0.1
	c0-0.1,0-0.2,0-0.2V93l0.1-0.3c0-0.1,0-0.2,0-0.3v-0.3c0-0.1,0-0.1,0-0.2v-0.3h0.1V92h0.1v0.1v0.1V92v-0.1v-0.1v-0.2v-0.1v-0.1V91
	c0,0-0.1-0.3-0.1-0.2s0,0.2,0,0.2v-0.1v-0.1l-0.1-0.5c0-0.1,0-0.2-0.1-0.3c0-0.1-0.1-0.1-0.1-0.2l-0.1-0.1c0,0,0,0,0-0.1
	c0,0-0.1,0-0.1-0.1v-0.1l-0.3-0.2h-0.2h0.1c0,0-0.1,0-0.1-0.1L44.5,89l-0.3-0.2c0-0.1,0-0.1-0.1-0.1v-0.1v0.1L43.8,88l-0.1-0.1h-1.9
	c-0.1,0-0.2,0-0.3,0S41.3,88,41.2,88L41,88.1l-0.3,0.1c-0.1,0.1-0.2,0.2-0.3,0.3l0,0c0,0-0.1,0-0.1,0.1S40,88.8,40,88.8s0,0,0,0.1
	l0,0l-0.2,0.3c0,0,0,0.1-0.1,0.1c0,0.1-0.1,0.1-0.1,0.2l-0.1,0.2c0,0,0,0.1-0.1,0.1c-0.1,0.1-0.2,0.2-0.2,0.3l-0.3,0.5L38.7,91
	c-0.1,0.1-0.1,0.2-0.1,0.4l-0.1,0.2c0,0.1-0.1,0.2-0.1,0.3c-0.1,0.2-0.1,0.4-0.1,0.5v0.2c0,0,0,0.1,0,0.2V93c0,0.3,0.1,0.6,0.2,0.9
	c0.1,0.2,0.1,0.4,0.2,0.6v0.1c0.1,0.1,0.1,0.2,0.1,0.3c0,0.1,0,0.1,0.1,0.2l0.1,0.2c0,0,0,0,0,0.1v0.1l0.3,0.3h0.1h0.1
	c0.1,0,0.1,0,0.2,0.1c0.1,0.1,0.2,0.1,0.3,0.2c0.2,0.1,0.3,0.1,0.5,0.2c0-0.3,0.2-0.3,0.5-0.3h1h-0.1h0.3c0.1,0,0.2,0,0.3-0.1h0.1
	c0.1,0,0.2-0.1,0.3-0.1c0.1-0.1,0.2-0.1,0.3-0.1l0.5-0.3l0.3-0.3l0.3-0.3l0.1-0.2l0.1-0.1l0.1-0.1C44.6,94.4,44.7,94.3,44.7,94.3
	L44.7,94.3L44.7,94.3z M47.7,86.8L47.7,86.8L47.7,86.8z M48.4,88.3L48.4,88.3L48.4,88.3z M135.3,86.8h0.1c0,0.1,0,0.1,0.1,0.2
	c0,0.1,0.1,0.2,0.2,0.2l0.1,0.1c0,0,0,0,0,0.1v0.1c0,0.1,0.1,0.2,0.2,0.3c0,0.1,0.1,0.1,0.1,0.2l0.1,0.1V88l0.1,0.1c0,0,0,0.1,0,0.2
	l-0.1,0.1v0.2c0,0,0,0.1,0.1,0.1l0.1,0.1c0.1,0.1,0.1,0.1,0.1,0.2c0,0.2,0,0.3,0.1,0.4v0.1c0,0.1,0,0.1,0,0.2V90l0.1,0.1v0.3V90
	c0,0,0,0,0,0.1v0.2c0,0,0,0,0,0.1v0.1c0,0,0,0,0,0.1v0.1h0.1c0,0.1,0,0.2-0.1,0.3c0,0.1-0.1,0.2-0.1,0.3v0.1c0,0,0,0.1,0,0.2v0.1
	v0.1V92h0.1l-0.1,0.3c0,0,0,0.1,0,0.2l-0.1,0.3v0.3v0.1v0.1v0.1v0.1l-0.2,0.7v0.1v0.1l-0.1,0.1l-0.1,0.1c-0.1,0.1-0.1,0.2-0.1,0.3
	l-0.1,0.2v0.1l-0.1,0.3c0,0,0,0.1,0,0.2v0.1l-0.1,0.1v0.2c0,0,0,0,0,0.1v0.1l-0.1,0.3c-0.1,0.1-0.2,0.3-0.3,0.5s-0.1,0.3-0.2,0.3
	v0.1c-0.1,0.2-0.3,0.3-0.4,0.4l-0.3,0.2l-0.1,0.1l-0.1,0.1c0,0-0.1,0.1-0.2,0.1l-0.1,0.1c-0.1,0-0.2,0.1-0.2,0.2
	c-0.1,0.1-0.2,0.2-0.3,0.2l-0.1,0.1l-0.1,0.1c0,0-0.1,0-0.1,0.1l-0.1,0.1l-0.2,0.1l-0.1,0.1l-0.4,0.2c-0.1,0.1-0.2,0.1-0.3,0.2
	l-0.4,0.2c-0.1,0-0.3,0.1-0.4,0.1h-0.5c-0.1,0-0.2,0-0.2,0h-0.6c-0.1,0-0.2,0-0.3,0h-0.1c-0.1,0-0.1,0.1-0.2,0.1H128
	c-0.2,0-0.4,0-0.5,0l-0.4-0.1l-0.4-0.1c-0.2,0-0.3,0-0.5-0.1c-0.1,0-0.2-0.1-0.3-0.1l-0.4-0.2h-0.2l-0.6-0.3l-0.6-0.6l-0.1-0.1
	c-0.1,0-0.1-0.1-0.2-0.2s-0.1-0.1-0.1-0.2l-0.1-0.1l-0.1-0.1l-0.2-0.2c0-0.1,0-0.2-0.1-0.3c-0.1-0.1-0.2-0.2-0.2-0.4l-0.2-0.3v-0.1
	v-0.1l-0.2-0.4l-0.1-0.1v-0.1c0,0,0-0.1-0.1-0.1c0,0,0-0.1,0-0.2l-0.1-0.2v-0.2l-0.1-0.1v-0.2c-0.1-0.1-0.1-0.2-0.1-0.4
	c0-0.1,0-0.2-0.1-0.3c-0.1-0.1-0.1-0.3-0.1-0.4c0-0.2,0-0.3,0-0.5v-0.4v-0.3v-0.1v-0.1c0-0.1,0-0.1,0-0.2v-0.1v-0.1v-0.3v-0.3
	l0.1-0.2v-0.2c0,0,0-0.1,0.1-0.2v-0.2l0.1-0.1v-0.1v-0.2c0,0,0,0,0-0.1s0,0,0-0.1l0.2-0.2c0.1-0.1,0.1-0.2,0.2-0.3
	c0.1-0.2,0.1-0.3,0.1-0.3h0.1l0.1-0.2c0.1,0,0.1-0.1,0.2-0.3c0.1-0.2,0.2-0.3,0.3-0.5l0.1-0.1c0.1-0.1,0.2-0.2,0.3-0.3
	c0.1-0.2,0.2-0.3,0.2-0.3l1.2-1.2l0.3-0.2c0.1-0.1,0.2-0.1,0.3-0.2l0.3-0.2c0.4,0,0.7-0.3,0.8-0.6c0.2-0.2,0.4-0.3,0.7-0.3h0.2
	c0.1,0,0.1-0.1,0.2-0.1c0.2-0.1,0.3-0.1,0.5-0.1c0.3,0,0.7,0,1,0h0.1c0.2,0,0.4,0,0.6,0l0.3,0.1l0.3,0.1c0.2,0,0.4,0,0.6,0
	c0.1,0.1,0.1,0.1,0.2,0.1c0.1,0,0.2,0,0.3,0h0.4h0.1h0.1h0.1c0.1,0,0.1,0,0.1,0.1l0.3,0.2l0.2,0.1c0.1,0,0.1,0.1,0.2,0.1h0.1h0.1
	l0.1,0.1h0.1v0.1l0.1,0.1h0.1h-0.1c0,0,0,0-0.1,0V86l0.2,0.1c0,0,0.1,0.1,0.2,0.1l0.2,0.1c0,0.1,0.1,0.1,0.1,0.1l0.2,0.2l0.1,0.1
	h0.1l0.2,0.2v-0.1L135.3,86.8L135.3,86.8l-0.3,0.1L135.3,86.8z M132.5,94.3L132.5,94.3l0.1-0.1l0.1-0.1c0-0.1,0.1-0.3,0.2-0.4
	c0.1-0.1,0.1-0.2,0.2-0.3l0.1-0.1c0-0.1,0-0.2,0.1-0.2V93l0.1-0.3c0-0.1,0-0.2,0.1-0.3v-0.3c0-0.1,0-0.1,0-0.2v-0.3h0.1V92h0.1v0.1
	v0.1V92v-0.1v-0.1v-0.2v-0.1v-0.1V91h-0.1c0,0-0.1-0.3-0.1-0.2v0.1v-0.1l-0.1-0.5c0-0.1,0-0.2-0.1-0.3c0-0.1-0.1-0.1-0.1-0.2
	l-0.1-0.1c0,0,0-0.1-0.1-0.1c0,0-0.1,0-0.1-0.1v-0.1l-0.3-0.2h-0.2h0.1c0,0-0.1,0-0.1-0.1l-0.1-0.1l-0.3-0.2c0-0.1,0-0.1-0.1-0.1
	v-0.1c0,0,0,0-0.1,0v0.1l-0.1-0.1c0,0,0,0-0.1,0l-0.1-0.1h-1.8c-0.1,0-0.2,0-0.3,0s-0.2,0.1-0.3,0.1l-0.2,0.1l-0.4,0.1
	c-0.1,0.1-0.2,0.2-0.3,0.3c0,0-0.1,0-0.1,0.1s-0.1,0.1-0.1,0.1s0,0,0,0.1h0l-0.2,0.3c0,0,0,0.1-0.1,0.1c0,0.1-0.1,0.1-0.1,0.2
	l-0.1,0.2c0,0,0,0.1-0.1,0.1c-0.1,0.1-0.2,0.2-0.2,0.3l-0.3,0.5c0,0.1-0.1,0.2-0.2,0.3c-0.1,0.1-0.1,0.2-0.1,0.4l-0.1,0.2
	c0,0.1-0.1,0.2-0.1,0.3c-0.1,0.2-0.1,0.4-0.1,0.5V93c0,0,0,0.1,0,0.2v0.2c0,0.3,0.1,0.6,0.2,0.9c0.1,0.2,0.1,0.4,0.2,0.6V95
	c0.1,0.1,0.1,0.2,0.1,0.3c0,0.1,0,0.1,0.1,0.2l0.1,0.2c0,0,0,0,0,0.1v0.1l0.3,0.3h0.1h0.1c0.1,0,0.1,0,0.1,0.1
	c0.1,0.1,0.2,0.1,0.3,0.2c0.2,0.1,0.3,0.1,0.5,0.2s0.4,0.1,0.7,0.1h1.1H130h0.3c0.1,0,0.2,0,0.3-0.1h0.1c0.1,0,0.2-0.1,0.3-0.1
	c0.1-0.1,0.2-0.1,0.3-0.1l0.5-0.3c0.1-0.1,0.2-0.2,0.3-0.3l0.3-0.3l0.1-0.2l0.1-0.1l0.1-0.1c0,0,0.1-0.1,0.1-0.2l0.1-0.1L132.5,94.3
	z M135.5,86.8C135.4,86.8,135.4,86.8,135.5,86.8L135.5,86.8z M136.2,88.3L136.2,88.3L136.2,88.3z"/>
</svg>
