<svg width="131px" height="30px" viewBox="0 0 131 30" version="1.1" xmlns="http://www.w3.org/2000/svg" xmlns:xlink="http://www.w3.org/1999/xlink"><title>Logo / Corus Screen</title><g id="Symbols" stroke="none" stroke-width="1" fill="none" fill-rule="evenodd"><g id="Header/Desktop" transform="translate(-170.000000, -30.000000)"><g id="Logo-/-Corus-Screen" transform="translate(170.000000, 30.000000)"><path d="M68.2326549,0.858559322 C57.8073861,0.858559322 53.8758658,8.13864407 53.9123532,15.7642373 L53.9123532,29.3499153 L61.3471733,29.3499153 L61.3471733,17.0478814 C61.3471733,12.7690678 63.495624,8.32118644 68.974566,8.32118644 L70.3205466,8.32118644 L70.3205466,0.858559322 L68.2326549,0.858559322 Z" id="Fill-1" fill="#141619"/><path d="M19.7873853,20.3844153 C18.4629424,21.645178 16.6783524,22.4236525 14.7085381,22.4236525 C10.6287876,22.4236525 7.32186112,19.1053475 7.32186112,15.0118729 C7.32186112,10.9189068 10.6287876,7.60060169 14.7085381,7.60060169 C16.6783524,7.60060169 18.4629424,8.37882203 19.7873853,9.63983898 L23.8194994,3.43085593 C21.313776,1.44373729 18.1505188,0.254161017 14.7085381,0.254161017 C6.58527118,0.254161017 5.06769826e-05,6.86178814 5.06769826e-05,15.0118729 C5.06769826e-05,23.1627203 6.58527118,29.769839 14.7085381,29.769839 C18.1505188,29.769839 21.313776,28.5802627 23.8194994,26.5926356 L19.7873853,20.3844153 Z" id="Fill-3" fill="#141619"/><path d="M118.061026,14.4267203 C116.711245,13.5132458 115.826678,12.9557034 112.607929,11.8080763 C112.468821,11.754178 112.31831,11.6979915 112.159691,11.6379915 C110.554751,11.0346864 108.077914,10.2119746 108.039653,8.50604237 C108.039653,7.10468644 109.614187,6.63155085 111.086606,6.63155085 C113.411413,6.63155085 116.189779,7.94341525 117.428831,8.59604237 L120.852568,3.3244322 C120.0952,2.83807627 118.716026,2.05807627 116.607103,1.25366949 C114.039047,0.273838983 111.286274,0.254262712 110.981452,0.254262712 C108.103759,0.254262712 104.117508,0.912483051 101.4595,4.05536441 C101.020384,4.59841525 99.6840319,6.25019492 99.6840319,8.77807627 C99.6840319,12.0010424 101.774964,14.0555339 103.533456,15.2148559 C105.071502,16.1959576 106.785651,16.9497712 108.424291,17.6245169 L108.661459,17.7109576 C109.915715,18.1670593 111.811287,18.7329915 112.586898,19.7082458 C112.919086,20.1190932 113.11622,20.5454492 113.073904,21.0450254 C112.93961,22.6258729 111.317947,23.0908729 108.908256,22.8117203 C106.003705,22.4756186 102.873388,20.6723136 101.733662,19.9619746 L97.8875329,25.884178 C98.5184613,26.4020593 100.648668,28.0240932 103.636076,28.9729068 C106.135972,29.7671441 109.054459,29.7699407 109.378032,29.7699407 C110.445289,29.7699407 113.191982,29.6527373 115.634359,28.569178 C116.735063,28.0975678 117.577821,27.4945169 118.078763,27.0816356 C120.271556,25.4199407 121.430032,23.1602797 121.430032,20.5469746 C121.430032,16.7906186 118.89897,15.0145169 118.061026,14.4267203" id="Fill-6" fill="#141619"/><path d="M90.0560387,0.858559322 L90.0560387,16.6261017 C90.0560387,20.6397458 88.0553114,22.4575424 85.0364836,22.4575424 C82.0171489,22.4575424 80.0171818,20.7157627 80.0171818,16.5508475 L80.0171818,0.858559322 L72.5831219,0.858559322 L72.5831219,17.4622881 C72.5831219,25.5655932 77.299882,29.7683898 85.0364836,29.7683898 C92.7738453,29.7683898 97.5283598,25.3761864 97.4908286,17.5375424 L97.4908286,0.858559322 L90.0560387,0.858559322 Z" id="Fill-9" fill="#141619"/><path d="M130.964349,25.5276356 C130.964349,27.8706864 129.071563,29.7700932 126.736368,29.7700932 C124.401933,29.7700932 122.508641,27.8706864 122.508641,25.5276356 C122.508641,23.1845847 124.401933,21.285178 126.736368,21.285178 C129.071563,21.285178 130.964349,23.1845847 130.964349,25.5276356" id="Fill-11" fill="#36D123"/><path d="M37.0444182,0.254237288 C28.9208979,0.254237288 22.3361841,6.86161017 22.3361841,15.0119492 C22.3361841,23.1625424 28.9208979,29.7699153 37.0444182,29.7699153 C45.1676851,29.7699153 51.7526522,23.1625424 51.7526522,15.0119492 C51.7526522,6.86161017 45.1676851,0.254237288 37.0444182,0.254237288 M37.0444182,22.4237288 C32.9646677,22.4237288 29.6577412,19.1051695 29.6577412,15.0119492 C29.6577412,10.9187288 32.9646677,7.60067797 37.0444182,7.60067797 C41.1241687,7.60067797 44.4308418,10.9187288 44.4308418,15.0119492 C44.4308418,19.1051695 41.1241687,22.4237288 37.0444182,22.4237288" id="Fill-14" fill="#36D123"/></g></g></g></svg>