<svg class="h-full w-full"
  viewBox="0.000017090189623925056 0 241.99998290981037 90.65494897704711"
  fill="fill=#e31837" xmlns="http://www.w3.org/2000/svg">
  <path fill-rule="evenodd" clip-rule="evenodd" fill="#e31837"
    d="M237.196 16.2981L237.194 16.2993C224.033 30.7056 206.034 50.4066 174.281 65.6114C129.246 87.0779 64.3834 90.5402 32.6242 74.2672C-4.17624 55.2243 -4.68036 21.4665 34.1365 0C-10.7297 21.2934 -10.2256 59.7254 28.9273 79.8069C65.0556 98.1574 128.238 92.0983 174.281 70.1124C191.757 61.8028 205.704 51.4158 216.626 41.0287L223.516 48.819H235.615L223.18 34.6234C231.582 25.7944 237.799 17.4848 242 11.0795C240.464 12.72 238.869 14.4662 237.196 16.2981ZM44.8904 48.6458V25.7944C44.8904 23.1976 44.5544 22.1589 43.8822 20.9471H71.9446V25.9675H54.1325V31.8535H71.6085V36.8739H54.1325V43.6254H72.4487V48.6458H44.8904ZM112.274 20.9471V48.819H98.8309L85.3879 25.7944H85.2198V48.819H79.3385V25.9675C79.3385 22.8514 79.1704 22.3321 78.1622 20.9471H92.9496L106.057 43.6255H106.225V20.9471H112.274ZM158.988 48.819V20.9471H146.217L139.664 36.7008H139.496L133.278 20.9471H118.827C119.835 22.3321 120.003 22.8514 120.003 25.9675V48.9921H125.885V27.0062H126.053L134.791 48.9921H140.672L149.578 27.0062H149.746V48.819H158.988ZM232.758 16.9655C222.508 28.3912 210.577 39.6438 197.638 48.819H190.916L187.388 41.7212H172.768L168.735 48.819H162.182L176.801 22.5053L175.457 20.9472H187.388L198.478 44.1449C202.004 41.3775 206.368 37.9189 210.733 34.4597L210.745 34.4503L202.343 24.7558C200.158 22.3321 199.654 21.9859 197.806 20.9472H211.081L217.971 28.7375C225.028 23.0246 231.078 18.1773 232.758 16.9655ZM180.33 27.5256L175.289 36.7009H184.867L180.33 27.5256Z"
  />
</svg>