<?xml version="1.0" encoding="UTF-8"?><svg id="Layer_1" xmlns="http://www.w3.org/2000/svg" viewBox="0 0 106.59 61"><defs><style>.cls-1{fill:#fff;}.cls-2{fill:#f26334;}.cls-3{fill:#002c6c;}</style></defs><g id="Canada"><path class="cls-2" d="m60.93,53.81v-.02c0-2.4,1.81-4.38,4.41-4.38,1.6,0,2.55.53,3.34,1.31l-1.18,1.37c-.65-.59-1.32-.96-2.16-.96-1.43,0-2.45,1.19-2.45,2.64v.02c0,1.45,1,2.66,2.45,2.66.97,0,1.56-.39,2.22-.99l1.18,1.19c-.87.93-1.84,1.51-3.47,1.51-2.49,0-4.34-1.92-4.34-4.35Z"/><path class="cls-2" d="m69.53,56.15v-.02c0-1.41,1.08-2.07,2.61-2.07.65,0,1.12.11,1.58.27v-.11c0-.76-.47-1.19-1.39-1.19-.7,0-1.2.13-1.79.35l-.46-1.4c.71-.31,1.41-.52,2.51-.52,1,0,1.73.26,2.19.72.48.48.7,1.2.7,2.07v3.76h-1.78v-.7c-.45.49-1.06.82-1.96.82-1.22,0-2.22-.7-2.22-1.98Zm4.22-.42v-.33c-.31-.15-.73-.24-1.17-.24-.79,0-1.27.31-1.27.89v.03c0,.5.41.78,1,.78.86,0,1.44-.47,1.44-1.14Z"/><path class="cls-2" d="m76.95,51.54h1.84v.92c.42-.54.97-1.04,1.9-1.04,1.39,0,2.2.92,2.2,2.41v4.19h-1.84v-3.61c0-.87-.41-1.31-1.11-1.31s-1.15.44-1.15,1.31v3.61h-1.84v-6.48Z"/><path class="cls-2" d="m83.97,56.15v-.02c0-1.41,1.08-2.07,2.61-2.07.65,0,1.13.11,1.58.27v-.11c0-.76-.47-1.19-1.39-1.19-.7,0-1.2.13-1.79.35l-.46-1.4c.71-.31,1.42-.52,2.52-.52,1,0,1.73.26,2.19.72.48.48.7,1.2.7,2.07v3.76h-1.78v-.7c-.45.49-1.07.82-1.96.82-1.22,0-2.22-.7-2.22-1.98Zm4.22-.42v-.33c-.32-.15-.73-.24-1.17-.24-.79,0-1.27.31-1.27.89v.03c0,.5.41.78,1,.78.86,0,1.44-.47,1.44-1.14Z"/><path class="cls-2" d="m91.1,54.79v-.03c0-2.16,1.41-3.35,2.95-3.35.98,0,1.58.45,2.02.97v-3.19h1.84v8.82h-1.84v-.93c-.45.6-1.06,1.05-2.02,1.05-1.51,0-2.95-1.18-2.95-3.35Zm4.99,0v-.03c0-1.08-.71-1.79-1.57-1.79s-1.58.7-1.58,1.79v.03c0,1.08.73,1.79,1.58,1.79s1.57-.72,1.57-1.79Z"/><path class="cls-2" d="m99.04,56.15v-.02c0-1.41,1.08-2.07,2.61-2.07.65,0,1.12.11,1.58.27v-.11c0-.76-.47-1.19-1.39-1.19-.7,0-1.2.13-1.79.35l-.46-1.4c.71-.31,1.41-.52,2.52-.52,1,0,1.73.26,2.18.72.48.48.7,1.2.7,2.07v3.76h-1.78v-.7c-.44.49-1.06.82-1.96.82-1.22,0-2.23-.7-2.23-1.98Zm4.22-.42v-.33c-.31-.15-.72-.24-1.17-.24-.79,0-1.27.31-1.27.89v.03c0,.5.41.78,1,.78.86,0,1.44-.47,1.44-1.14Z"/><path class="cls-3" d="m71.15,37.56v-1.93h-3.57v-14.69h-1.74l-4.74,1.93.48,2.12,3.67-1.45v12.08h-4.06v1.93h9.95Z"/><path class="cls-3" d="m58.98,29.63c0,15.75-12.85,28.5-28.69,28.5S1.59,45.38,1.59,29.63C1.69,13.89,14.44,1.13,30.28,1.13c15.84,0,28.69,12.75,28.69,28.5Z"/><path class="cls-1" d="m36.18,21.04c-4.25,0-7.44,3.48-7.44,8.21v.19c0,4.93,3,8.21,7.34,8.21,2.42,0,4.25-.97,5.41-1.84v-7.05h-5.51v1.74h3.57v4.15l-.1.1c-.87.58-2.03.97-3.19.97-3.19,0-5.22-2.51-5.22-6.38v-.1c0-3.58,2.13-6.28,5.12-6.28,1.74,0,2.8.58,3.67,1.35l1.26-1.64c-1.55-1.16-2.99-1.64-4.93-1.64Z"/><path class="cls-1" d="m44.58,35.43c1.64,1.45,3.57,2.12,5.6,2.12,3.09,0,5.12-1.84,5.12-4.54,0-2.22-1.16-3.48-4.35-4.64-2.9-1.16-3.67-1.84-3.67-3.19s1.16-2.32,2.8-2.32c1.16,0,2.41.48,3.67,1.45l1.26-1.64c-1.35-1.16-3-1.74-4.83-1.74-2.99,0-5.02,1.83-5.02,4.35s1.64,3.67,4.64,4.83c2.61.97,3.48,1.64,3.48,3,0,1.45-1.26,2.51-2.99,2.51-1.93,0-3.38-.97-4.35-1.84l-1.35,1.64Z"/><path class="cls-3" d="m52.22,6.06h0c0-1.55,1.25-2.8,2.8-2.8s2.8,1.26,2.8,2.8h0c0,1.55-1.26,2.8-2.8,2.8s-2.8-1.26-2.8-2.8Zm5.02,0h0c0-1.26-.97-2.22-2.22-2.22s-2.22.97-2.22,2.22h0c0,1.26.97,2.22,2.22,2.22,1.26,0,2.22-.97,2.22-2.22Zm-3.29-1.35h1.26c.58,0,1.06.29,1.06.87,0,.39-.19.68-.58.87l.67.97h-.77l-.58-.87h-.39v.87h-.68v-2.71Zm1.26,1.26c.29,0,.48-.19.48-.39s-.19-.39-.48-.39h-.58v.77h.58Z"/><path class="cls-1" d="m7.48,29.63c0-13.04,10.05-23.67,22.9-24.73v-.1h0c-13.82,0-25.02,11.11-25.02,24.83s11.21,24.83,24.93,24.83h0v-.1c-12.75-1.06-22.8-11.79-22.8-24.73Z"/><path class="cls-1" d="m13.09,29.63c0-10.92,8.31-19.9,19.03-20.96l-.1-.1c-11.5.19-20.87,9.57-20.87,21.06s9.27,20.87,20.87,21.06l.1-.1c-10.72-1.16-19.03-10.05-19.03-20.97Z"/><path class="cls-1" d="m18.4,29.63c0-8.89,6.76-16.23,15.46-17.29l-.1-.1c-9.47.29-17,7.92-17,17.39s7.53,17.1,17,17.39l.1-.1c-8.7-1.06-15.46-8.4-15.46-17.29Z"/><path class="cls-1" d="m23.52,29.63c0-6.95,5.22-12.75,12.08-13.52v-.1c-7.44.19-13.33,6.18-13.33,13.62s5.99,13.43,13.33,13.62v-.1c-6.76-.87-12.08-6.57-12.08-13.53Z"/></g></svg>