<svg id="Layer_1" data-name="Layer 1" xmlns="http://www.w3.org/2000/svg" xmlns:xlink="http://www.w3.org/1999/xlink" viewBox="0 0 322.120133077245 73.28"><defs><style>.cls-1{fill:none;}.cls-2{fill:#00a4df;}.cls-3{clip-path:url(#clip-path);}.cls-4{fill:#838382;}</style><clipPath id="clip-path"><rect class="cls-1" width="322.08" height="73.28"/></clipPath></defs><title>Vector Smart Object</title><polygon class="cls-2" points="22.68 2.27 22.68 17.95 8.2 17.95 8.2 2.27 0.38 2.27 0.38 42.08 8.2 42.08 8.2 24.29 22.68 24.29 22.68 42.08 30.51 42.08 30.51 2.27 22.68 2.27"/><g class="cls-3"><path class="cls-2" d="M43.35,30.3c0,3.28,1.28,7,5.16,7,2.45,0,4-1.47,5-3.53l6.87,1.11C58.58,40,54,42.92,48.51,42.92c-8.09,0-13-5.7-13-13.57s4.21-14,12.67-14,12.41,6.28,12.41,14.1v.89Zm10.17-4.59c-.37-2.64-2.08-5.23-5-5.23s-4.64,2.54-5,5.23Z"/><path class="cls-2" d="M72.75,18.53A9.64,9.64,0,0,1,80,15.31c7.4,0,11.92,6.86,11.92,13.67,0,7.08-4.36,13.94-12.08,13.94a8.66,8.66,0,0,1-7-3.27h-.1V55.91H65.29V16.16h7.46Zm11.6,10.56c0-3.48-2.34-7.23-6.17-7.23S72,25.61,72,29.09s2.34,7.29,6.18,7.29,6.17-3.81,6.17-7.29"/><path class="cls-2" d="M115.08,24.08a7.33,7.33,0,0,0-5.48-2.54c-4.21,0-6.6,3.91-6.6,7.71,0,4.06,2.61,7.44,6.86,7.44a7.11,7.11,0,0,0,5.22-2.48v7.13a13,13,0,0,1-6.44,1.58c-7.72,0-13.2-6.28-13.2-13.72,0-7.71,5.69-13.89,13.57-13.89A11.75,11.75,0,0,1,115.08,17Z"/><path class="cls-2" d="M146.66,29.14c0,8-5.54,13.78-13.73,13.78s-13.74-5.75-13.74-13.78,5.59-13.83,13.74-13.83,13.73,5.76,13.73,13.83m-19.91,0c0,3.49,2.34,7.24,6.18,7.24s6.17-3.75,6.17-7.24-2.34-7.28-6.17-7.28-6.18,3.69-6.18,7.28"/></g><polygon class="cls-2" points="187.29 0 172.65 33.42 158.06 0 149.92 42.08 154.5 42.08 159.66 15.15 159.77 15.15 172.65 43.72 185.59 15.15 185.69 15.15 190.86 42.08 195.44 42.08 187.29 0"/><g class="cls-3"><path class="cls-2" d="M198.32,29.72a13.15,13.15,0,1,1,13.15,13,13.07,13.07,0,0,1-13.15-13m4.26,0c0,5.07,3.62,9.19,8.89,9.19s8.89-4.12,8.89-9.19a8.89,8.89,0,1,0-17.78,0"/></g><polygon class="cls-2" points="235.43 42.08 231.17 42.08 231.17 21.17 228.56 21.17 228.56 17.26 231.17 17.26 231.17 8.34 235.43 8.34 235.43 17.26 239.9 17.26 239.9 21.17 235.43 21.17 235.43 42.08"/><g class="cls-3"><path class="cls-2" d="M250,7.92a3,3,0,0,1-6.07,0,3,3,0,0,1,6.07,0m-.9,34.16h-4.26V17.26h4.26Z"/><path class="cls-2" d="M255.44,29.72a13.15,13.15,0,1,1,13.15,13,13.07,13.07,0,0,1-13.15-13m4.26,0c0,5.07,3.62,9.19,8.89,9.19s8.89-4.12,8.89-9.19a8.89,8.89,0,1,0-17.78,0"/><path class="cls-2" d="M291.86,20.27H292a8.41,8.41,0,0,1,7.13-3.69c6.92,0,8.52,5,8.52,10.77V42.08h-4.26v-14c0-4-.32-7.61-5.27-7.61-5.86,0-6.23,5.39-6.23,9.82V42.08H287.6V17.26h4.26Z"/><path class="cls-2" d="M312,15.32A5.06,5.06,0,1,1,317,20.37,5,5,0,0,1,312,15.32m1.11,0a4,4,0,1,0,3.95-4,3.91,3.91,0,0,0-3.95,4m6.3,2.59h-1.21l-1.23-2.09H316v2.09h-1.1V12.67h2.57c1.22,0,2,.21,2,1.6a1.39,1.39,0,0,1-1.44,1.55Zm-1.88-3c.59,0,.95-.12.95-.7s-.7-.57-1.22-.57H316v1.27Z"/></g><path class="cls-4" d="M5.34,63.49l2,4.63H3.35ZM0,72.59H1.42l1.41-3.28h5l1.37,3.28h1.44L5.37,60.49Z"/><g class="cls-3"><path class="cls-4" d="M15.33,61h2.2a6.38,6.38,0,0,1,4.54,1.4,5.89,5.89,0,0,1,0,8.69,6.2,6.2,0,0,1-4.6,1.46H15.33Zm2.24,10.35a5,5,0,0,0,3.68-1.19,4.69,4.69,0,0,0-.06-6.84,5,5,0,0,0-3.62-1.12h-.94v9.15Z"/></g><polygon class="cls-4" points="36.23 61.04 32.91 69.85 29.59 61.04 28.18 61.04 32.91 73.28 37.63 61.04 36.23 61.04"/><path class="cls-4" d="M45.08,63.49,47,68.12H43.09Zm-5.34,9.1h1.42l1.4-3.28h5l1.38,3.28h1.43l-5.23-12.1Z"/><polygon class="cls-4" points="55.15 72.59 56.45 72.59 56.45 63.69 65.52 73.11 65.52 61.05 64.23 61.05 64.23 69.99 55.15 60.55 55.15 72.59"/><g class="cls-3"><path class="cls-4" d="M80.29,63.57A5,5,0,0,0,76.74,62a4.78,4.78,0,0,0,0,9.55,5.12,5.12,0,0,0,3.52-1.53v1.59a6,6,0,1,1-3.48-10.8A5.64,5.64,0,0,1,80.29,62Z"/></g><polygon class="cls-4" points="85.94 61.04 85.94 72.59 91.98 72.59 91.98 71.39 87.24 71.39 87.24 66.86 91.84 66.86 91.84 65.67 87.24 65.67 87.24 62.24 91.98 62.24 91.98 61.04 85.94 61.04"/><g class="cls-3"><path class="cls-4" d="M97.65,61h2.19a6.35,6.35,0,0,1,4.54,1.4,5.89,5.89,0,0,1,0,8.69,6.2,6.2,0,0,1-4.6,1.46H97.65Zm2.24,10.35a4.91,4.91,0,0,0,3.67-1.19,4.69,4.69,0,0,0-.06-6.84,5,5,0,0,0-3.61-1.12H99v9.15Z"/></g><polygon class="cls-4" points="119.8 61.04 119.8 72.59 124.3 72.59 124.3 71.39 121.09 71.39 121.09 61.04 119.8 61.04"/><rect class="cls-4" x="129.07" y="61.05" width="1.3" height="11.54"/><polygon class="cls-4" points="136.27 72.59 137.57 72.59 137.57 63.69 146.65 73.11 146.65 61.05 145.35 61.05 145.35 69.99 136.27 60.55 136.27 72.59"/><polygon class="cls-4" points="152.53 61.04 152.53 72.59 158.57 72.59 158.57 71.39 153.83 71.39 153.83 66.86 158.43 66.86 158.43 65.67 153.83 65.67 153.83 62.24 158.57 62.24 158.57 61.04 152.53 61.04"/><path class="cls-4" d="M168.5,63.49l1.95,4.63h-3.94Zm-5.34,9.1h1.42l1.4-3.28h5l1.37,3.28h1.44l-5.24-12.1Z"/><g class="cls-3"><path class="cls-4" d="M179.79,72.59h-1.3V61h1.69c2.2,0,4.26.59,4.26,3.19a3,3,0,0,1-2.92,3.18l3.71,5.18h-1.6l-3.51-5.07h-.33Zm0-6.2h.4c1.47,0,2.95-.28,2.95-2.07s-1.4-2.08-3-2.08h-.39Z"/><path class="cls-4" d="M203.82,63.29a2.15,2.15,0,0,0-2-1.25,1.84,1.84,0,0,0-1.93,1.79c0,1,1,1.46,1.82,1.81l.77.33c1.52.66,2.8,1.41,2.8,3.25a3.68,3.68,0,0,1-7.29.58l1.27-.35a2.39,2.39,0,0,0,2.33,2.14A2.33,2.33,0,0,0,204,69.34c0-1.35-1.06-1.8-2.14-2.29l-.71-.31c-1.36-.61-2.54-1.3-2.54-3a3,3,0,0,1,3.26-2.94,3.34,3.34,0,0,1,3,1.8Z"/><path class="cls-4" d="M222.18,66.83a6.07,6.07,0,1,1-6.07-6,6,6,0,0,1,6.07,6m-10.84,0A4.77,4.77,0,1,0,216.11,62a4.79,4.79,0,0,0-4.77,4.78"/></g><polygon class="cls-4" points="227.4 61.04 227.4 72.59 231.91 72.59 231.91 71.39 228.7 71.39 228.7 61.04 227.4 61.04"/><g class="cls-3"><path class="cls-4" d="M237.92,67.92a4.23,4.23,0,0,0,.51,2.57,3,3,0,0,0,2.34,1.1,3.1,3.1,0,0,0,2.29-1,4,4,0,0,0,.57-2.65V61h1.3v7.23a4.06,4.06,0,0,1-1,3.2,4.31,4.31,0,0,1-3.14,1.32,4.42,4.42,0,0,1-3-1.18,4.05,4.05,0,0,1-1.14-3.34V61h1.3Z"/></g><polygon class="cls-4" points="249.67 61.04 249.67 62.24 252.48 62.24 252.48 72.59 253.78 72.59 253.78 62.24 256.62 62.24 256.62 61.04 249.67 61.04"/><rect class="cls-4" x="261.44" y="61.05" width="1.3" height="11.54"/><g class="cls-3"><path class="cls-4" d="M280.11,66.83a6.07,6.07,0,1,1-6.07-6,6,6,0,0,1,6.07,6m-10.84,0A4.77,4.77,0,1,0,274,62a4.79,4.79,0,0,0-4.77,4.78"/></g><polygon class="cls-4" points="285.4 72.59 286.7 72.59 286.7 63.69 295.78 73.11 295.78 61.05 294.48 61.05 294.48 69.99 285.4 60.55 285.4 72.59"/><g class="cls-3"><path class="cls-4" d="M307,63.29a2.15,2.15,0,0,0-2-1.25A1.84,1.84,0,0,0,303,63.83c0,1,1,1.46,1.82,1.81l.77.33c1.52.66,2.8,1.41,2.8,3.25a3.68,3.68,0,0,1-7.29.58l1.27-.35a2.39,2.39,0,0,0,2.33,2.14,2.33,2.33,0,0,0,2.39-2.25c0-1.35-1.06-1.8-2.15-2.29l-.71-.31c-1.35-.61-2.53-1.3-2.53-3A3,3,0,0,1,305,60.84a3.34,3.34,0,0,1,3,1.8Z"/></g></svg>