<svg xmlns="http://www.w3.org/2000/svg" fill="#231f20" viewBox="10 10 2979 1420"><path d="M540 1093v277l-94-267c-2-7-7-10-17-10h-87v337h60v-274l93 263c2 7 8 10 15 10h90v-337h-60zm310 0v337h70v-144h125v-62H920v-70h127v-62H850zm1603 0v65h77v272h70v-273h77v-65h-225zm-1163 337h75v-337h-75v337zm850 0h75v-337h-75v337zm775 0h74v-337h-74v337zm-2905 0h75v-337H10v337zm1873-337h-60v277l-94-267c-2-7-7-10-16-10h-88v337h60v-274l93 263c2 7 8 10 15 10h90v-337zm-78-553-305-410-305 410c-103-10-280-77-280-196 0-150 260-290 586-290 343 0 586 140 586 290 0 120-178 187-280 195M1500 10c-422 0-716 165-716 378 0 100 64 212 200 280 127 63 305 85 330 88l186-543 186 543a1150 1150 0 0 0 330-88c136-68 200-180 200-280-1-214-294-378-716-378"/></svg>