<svg xmlns="http://www.w3.org/2000/svg" width="51.655" height="50"
  viewBox="0 0 51.655 50">
  <defs>
    <clipPath id="clip-path">
      <rect id="Rectangle_300" data-name="Rectangle 300" width="51.655" height="50" fill="none" />
    </clipPath>
  </defs>
  <g id="Group_223" data-name="Group 223" clip-path="url(#clip-path)">
    <path id="Path_212" data-name="Path 212"
      d="M41.493,31.09a20.322,20.322,0,0,0,2.616,2.86A9.117,9.117,0,0,0,50.315,35.9c4.259,0,6.449-1.156,7.849-2.981a6.088,6.088,0,0,0,.852-4.441,7.727,7.727,0,0,1-1.156,2.251c-.791.73-1.46,1.278-4.624,1.46A8.761,8.761,0,0,1,47.03,30.36,15.636,15.636,0,0,0,57.981,15.576a15.945,15.945,0,0,0-31.881,0c0,8.579,6.023,15.271,15.393,15.515M35.1,27.136a4.563,4.563,0,0,1,1.339,0c1.764.183,3.59,2.251,4.441,3.285a8.944,8.944,0,0,1-5.841-3.285m7-26.405c6.51,0,10.526,6.632,10.526,14.845,0,6.449-2.312,11.986-6.693,14.055l-.852-.608c-2.251-1.4-2.981-2.069-5.415-2.616a9.37,9.37,0,0,0-4.989.183,18.517,18.517,0,0,1-3.225-11.073C31.393,7.3,35.47.669,41.98.669"
      transform="translate(-10.22)" fill="#fff" />
    <path id="Path_213" data-name="Path 213"
      d="M12.851,4.8A2.251,2.251,0,1,0,10.6,2.551,2.251,2.251,0,0,0,12.851,4.8"
      transform="translate(-4.151 -0.117)" fill="#fff" />
    <path id="Path_214" data-name="Path 214"
      d="M7.5,20.36c1.278-.183,1.643,1.278,1.643,2.251V34.718c0,2.373-1.643,2.555-1.947,2.555H6.165v.669h9.613v-.73H14.44c-.487,0-1.643-.608-1.643-2.677V17.5H11.763L5.8,19.873l.3.791a5.111,5.111,0,0,1,1.4-.3"
      transform="translate(-2.271 -6.853)" fill="#fff" />
    <rect id="Rectangle_298" data-name="Rectangle 298" width="51.655" height="0.56"
      transform="translate(0 39.182)"
      fill="#fff" />
    <path id="Path_215" data-name="Path 215"
      d="M4.311,71.094A3.468,3.468,0,0,0,.6,74.563a3.225,3.225,0,0,0,3.407,3.285,3.59,3.59,0,0,0,3.711-3.59,3.132,3.132,0,0,0-3.407-3.164M4.25,77.361c-1.4,0-2.19-1.582-2.19-3.042s.608-2.738,2.008-2.738,2.19,1.46,2.19,2.92-.669,2.86-2.008,2.86"
      transform="translate(-0.235 -27.836)" fill="#fff" />
    <path id="Path_216" data-name="Path 216"
      d="M16.2,71.261v.3c.73.122.73.243.73.73v4.5a.593.593,0,0,1-.669.608v.365h2.92v-.3h-.973a2.92,2.92,0,0,0,.061-.548V74.851l.122-.122h1.521v.73H20.4V73.634h-.426v.548h-1.7V71.869l.122-.122h1.1c.791,0,1.1.183,1.034,1.156h.365l.3-1.7H16.2Z"
      transform="translate(-6.344 -27.88)" fill="#fff" />
    <path id="Path_217" data-name="Path 217"
      d="M28.7,71.261v.3c.73.122.73.243.73.73v4.5a.593.593,0,0,1-.669.608v.365h2.92v-.3h-.973a2.92,2.92,0,0,0,.061-.548V74.851l.122-.122h1.521v.73H32.9V73.634h-.426v.548h-1.7V71.869l.122-.122h1.1c.791,0,1.1.183,1.034,1.156h.365l.3-1.7H28.7Z"
      transform="translate(-11.238 -27.88)" fill="#fff" />
    <path id="Path_218" data-name="Path 218"
      d="M43.147,76.837v-4.32a2.129,2.129,0,0,1,.3-1.217H41.2v.3c.669.122.669.243.669.73v4.5a.593.593,0,0,1-.669.608v.365h2.677v-.3h-.73a2.86,2.86,0,0,0,.061-.548"
      transform="translate(-16.133 -27.92)" fill="#fff" />
    <path id="Path_219" data-name="Path 219"
      d="M53.916,77.077a2.677,2.677,0,0,1-2.738-2.8,2.254,2.254,0,0,1,2.251-2.555c1.582,0,1.7.365,1.764,1.339h.365l.3-1.521a20.621,20.621,0,0,0-2.312-.243A3.468,3.468,0,0,0,49.9,74.765a3.285,3.285,0,0,0,3.468,3.285,3.164,3.164,0,0,0,2.616-1.278l-.183-.243a3.042,3.042,0,0,1-1.886.669"
      transform="translate(-19.54 -27.917)" fill="#fff" />
    <path id="Path_220" data-name="Path 220"
      d="M67.446,77.284H66.108a3.284,3.284,0,0,0,.061-.548V74.79l.122-.122h1.46v.73h.487V73.573h-.426v.548H66.169V71.869l.122-.122h1.1c.791,0,1.1.183,1.034,1.156h.365l.3-1.7H64.1v.3c.73.122.73.243.73.73V76.8c0,.365-.243.548-.669.608v.365h4.746l.365-1.643h-.365c-.487,1.034-.608,1.156-1.46,1.156"
      transform="translate(-25.1 -27.88)" fill="#fff" />
    <path id="Path_221" data-name="Path 221"
      d="M78.039,72.439a.923.923,0,0,1,1.034-.852,1.165,1.165,0,0,1,1.1,1.339h.365l.3-1.643a12.286,12.286,0,0,0-1.764-.182c-1.521,0-2.312.791-2.312,1.825,0,2.069,3.042,2.008,3.042,3.529,0,.608-.548.852-1.034.852a1.413,1.413,0,0,1-1.4-1.582H77a3.894,3.894,0,0,0-.3,1.1c0,.73,1.156.973,2.008.973s2.251-.608,2.251-1.886-2.981-2.008-2.981-3.529"
      transform="translate(-30.034 -27.841)" fill="#fff" />
    <path id="Path_222" data-name="Path 222"
      d="M41.493,31.09a20.322,20.322,0,0,0,2.616,2.86A9.117,9.117,0,0,0,50.315,35.9c4.259,0,6.449-1.156,7.849-2.981a6.088,6.088,0,0,0,.852-4.441,7.727,7.727,0,0,1-1.156,2.251c-.791.73-1.46,1.278-4.624,1.46A8.761,8.761,0,0,1,47.03,30.36,15.636,15.636,0,0,0,57.981,15.576a15.945,15.945,0,0,0-31.881,0c0,8.579,6.023,15.271,15.393,15.515M35.1,27.136a4.563,4.563,0,0,1,1.339,0c1.764.183,3.59,2.251,4.441,3.285a8.944,8.944,0,0,1-5.841-3.285m7-26.405c6.51,0,10.526,6.632,10.526,14.845,0,6.449-2.312,11.986-6.693,14.055l-.852-.608c-2.251-1.4-2.981-2.069-5.415-2.616a9.37,9.37,0,0,0-4.989.183,18.517,18.517,0,0,1-3.225-11.073C31.393,7.3,35.47.669,41.98.669"
      transform="translate(-10.22)" fill="#fff" />
    <path id="Path_223" data-name="Path 223"
      d="M12.851,4.8A2.251,2.251,0,1,0,10.6,2.551,2.251,2.251,0,0,0,12.851,4.8"
      transform="translate(-4.151 -0.117)" fill="#fff" />
    <path id="Path_224" data-name="Path 224"
      d="M7.5,20.36c1.278-.183,1.643,1.278,1.643,2.251V34.718c0,2.373-1.643,2.555-1.947,2.555H6.165v.669h9.613v-.73H14.44c-.487,0-1.643-.608-1.643-2.677V17.5H11.763L5.8,19.873l.3.791a5.111,5.111,0,0,1,1.4-.3"
      transform="translate(-2.271 -6.853)" fill="#fff" />
    <rect id="Rectangle_299" data-name="Rectangle 299" width="51.655" height="0.56"
      transform="translate(0 39.182)"
      fill="#fff" />
    <path id="Path_225" data-name="Path 225"
      d="M4.311,71.094A3.468,3.468,0,0,0,.6,74.563a3.225,3.225,0,0,0,3.407,3.285,3.59,3.59,0,0,0,3.711-3.59,3.132,3.132,0,0,0-3.407-3.164M4.25,77.361c-1.4,0-2.19-1.582-2.19-3.042s.608-2.738,2.008-2.738,2.19,1.46,2.19,2.92-.669,2.86-2.008,2.86"
      transform="translate(-0.235 -27.836)" fill="#fff" />
    <path id="Path_226" data-name="Path 226"
      d="M16.2,71.261v.3c.73.122.73.243.73.73v4.5a.593.593,0,0,1-.669.608v.365h2.92v-.3h-.973a2.92,2.92,0,0,0,.061-.548V74.851l.122-.122h1.521v.73H20.4V73.634h-.426v.548h-1.7V71.869l.122-.122h1.1c.791,0,1.1.183,1.034,1.156h.365l.3-1.7H16.2Z"
      transform="translate(-6.344 -27.88)" fill="#fff" />
    <path id="Path_227" data-name="Path 227"
      d="M28.7,71.261v.3c.73.122.73.243.73.73v4.5a.593.593,0,0,1-.669.608v.365h2.92v-.3h-.973a2.92,2.92,0,0,0,.061-.548V74.851l.122-.122h1.521v.73H32.9V73.634h-.426v.548h-1.7V71.869l.122-.122h1.1c.791,0,1.1.183,1.034,1.156h.365l.3-1.7H28.7Z"
      transform="translate(-11.238 -27.88)" fill="#fff" />
    <path id="Path_228" data-name="Path 228"
      d="M43.147,76.837v-4.32a2.129,2.129,0,0,1,.3-1.217H41.2v.3c.669.122.669.243.669.73v4.5a.593.593,0,0,1-.669.608v.365h2.677v-.3h-.73a2.86,2.86,0,0,0,.061-.548"
      transform="translate(-16.133 -27.92)" fill="#fff" />
    <path id="Path_229" data-name="Path 229"
      d="M53.916,77.077a2.677,2.677,0,0,1-2.738-2.8,2.254,2.254,0,0,1,2.251-2.555c1.582,0,1.7.365,1.764,1.339h.365l.3-1.521a20.621,20.621,0,0,0-2.312-.243A3.468,3.468,0,0,0,49.9,74.765a3.285,3.285,0,0,0,3.468,3.285,3.164,3.164,0,0,0,2.616-1.278l-.183-.243a3.042,3.042,0,0,1-1.886.669"
      transform="translate(-19.54 -27.917)" fill="#fff" />
    <path id="Path_230" data-name="Path 230"
      d="M67.446,77.284H66.108a3.284,3.284,0,0,0,.061-.548V74.79l.122-.122h1.46v.73h.487V73.573h-.426v.548H66.169V71.869l.122-.122h1.1c.791,0,1.1.183,1.034,1.156h.365l.3-1.7H64.1v.3c.73.122.73.243.73.73V76.8c0,.365-.243.548-.669.608v.365h4.746l.365-1.643h-.365c-.487,1.034-.608,1.156-1.46,1.156"
      transform="translate(-25.1 -27.88)" fill="#fff" />
    <path id="Path_231" data-name="Path 231"
      d="M78.039,72.439a.923.923,0,0,1,1.034-.852,1.165,1.165,0,0,1,1.1,1.339h.365l.3-1.643a12.286,12.286,0,0,0-1.764-.182c-1.521,0-2.312.791-2.312,1.825,0,2.069,3.042,2.008,3.042,3.529,0,.608-.548.852-1.034.852a1.413,1.413,0,0,1-1.4-1.582H77a3.894,3.894,0,0,0-.3,1.1c0,.73,1.156.973,2.008.973s2.251-.608,2.251-1.886-2.981-2.008-2.981-3.529"
      transform="translate(-30.034 -27.841)" fill="#fff" />
  </g>
</svg>