<?xml version="1.0" encoding="utf-8"?>
<!-- Generator: Adobe Illustrator 19.2.1, SVG Export Plug-In . SVG Version: 6.00 Build 0)  -->
<svg version="1.1" id="layer" xmlns="http://www.w3.org/2000/svg" xmlns:xlink="http://www.w3.org/1999/xlink" x="0px" y="0px"
	 viewBox="0 0 652 652" style="enable-background:new 0 0 652 652;" xml:space="preserve">
<style type="text/css">
	.st0{fill:none;stroke:#000000;stroke-width:2.1008;stroke-miterlimit:10;}
</style>
<path d="M52.1,300.4v0.8c2.1,0.4,5.3,1.5,6.3,2.1c0.8,0.6,1.3,0.8,1.3,6.7v20.2h-0.2l-17-21c-1.7-2.1-3.8-4.8-6.9-8.8
	c-1.9,0.2-4.4,0.4-6.9,0.4s-4.8-0.2-6.9-0.2v0.8c1.9,0.2,3.6,0.8,5.3,1.5c1.7,0.6,2.1,1.1,2.1,6.7V325c0,13.2-0.2,14.3-1.9,14.7
	l-6.1,2.1v0.8c4-0.2,7.6-0.4,9.9-0.4s5.9,0.2,9.9,0.4v-0.8l-6.1-2.1c-1.7-0.6-1.9-1.5-1.9-14.7v-15.1H33
	c9.7,11.3,18.9,22.7,27.9,34.2h2.5v-17c0-22.1,0.2-22.9,1.9-23.7s3.8-1.5,5.9-2.1v-0.8c-3.8,0.2-7.1,0.6-9.7,0.6
	C59.2,301,55.9,300.8,52.1,300.4z"/>
<path d="M148.9,336.3c-5-10.9-12-26.3-16.2-37.2h-1.9c-4.6,10.7-10.9,24.2-14.3,31.5c-3.8,8.2-4.4,9.5-7.4,10.3l-2.7,1.1v0.8
	c2.9-0.2,5.7-0.4,8.6-0.4c2.9,0,5.7,0.2,8.6,0.4V342l-4.8-1.5c-0.8-0.2-1.5-0.6-1.5-1.3c0-0.4,0.2-1.1,0.6-2.1l3.2-7.4h16.2l3.2,7.4
	c0.4,0.8,0.6,1.5,0.6,1.7c0,0.8-0.8,1.3-2.7,1.9l-3.8,1.3v0.8c3.6-0.2,7.4-0.4,10.9-0.4s7.1,0.2,10.9,0.4V342l-4.8-1.7
	C150.6,339.9,150.2,339.1,148.9,336.3z M122.9,326.3l6.7-15.3l6.5,15.3H122.9z"/>
<path d="M192.2,300.2V312h0.8c1.1-3.6,1.9-5.7,2.5-6.3c0.8-0.8,3.2-1.1,7.8-1.1c1.3,0,2.5,0,3.8,0c0,2.1,0.2,4.8,0.2,7.6v20
	c0,4.2-0.2,5.9-0.6,6.5c-0.4,0.6-2.9,1.7-6.9,2.9v0.8c3.8-0.2,7.4-0.4,11.1-0.4c3.8,0,7.4,0.2,11.1,0.4v-0.8
	c-5.9-1.9-6.3-2.5-6.7-2.9s-0.8-2.7-0.8-8.4v-18.1c0-2.7,0.2-5.3,0.2-7.6c1.3,0,2.7,0,3.8,0c4.8,0,6.9,0.2,7.8,1.1
	c0.6,0.6,1.7,2.9,2.5,6.3h0.8v-11.8c-6.7,0.2-13,0.6-19.1,0.6C205.2,300.6,198.9,300.4,192.2,300.2z"/>
<path d="M269.9,300.2v0.8c5.9,1.9,6.3,2.5,6.7,2.9c0.4,0.6,0.8,2.7,0.8,8.4v19.5c0,4.2-0.2,5.9-0.6,6.5s-2.9,1.7-6.7,2.9v0.8
	c3.8-0.2,7.4-0.4,11.1-0.4s7.4,0.2,11.1,0.4v-0.8c-5.9-1.9-6.3-2.5-6.7-2.9s-0.8-2.7-0.8-8.4v-19.5c0-4.2,0.2-5.9,0.6-6.5
	s2.9-1.5,6.9-2.9v-0.8c-3.8,0.2-7.4,0.6-11.1,0.6C277.3,300.8,273.7,300.6,269.9,300.2z"/>
<path d="M354.2,299.2c-15.5,0-23.5,11.1-23.5,22.9c0,11.3,8,20.8,21,20.8c15.5,0,23.5-10.1,23.5-22.9
	C375.2,308.6,367.2,299.2,354.2,299.2z M353.4,340.1c-8.6,0-14.1-6.1-14.1-20.6c0-11.6,5.5-17.6,13.2-17.6c9.2,0,14.1,6.9,14.1,20.6
	C366.6,334,361.5,340.1,353.4,340.1z"/>
<path d="M444.3,300.2v0.8c2.1,0.4,5.3,1.5,6.3,2.1c0.8,0.6,1.3,0.8,1.3,6.7V330h-0.2l-17-21c-1.7-2.1-3.8-4.8-6.7-8.8
	c-2.3,0.2-4.6,0.2-7.1,0.2c-2.5,0-4.8-0.2-6.7-0.2v0.8c1.7,0.4,3.6,0.8,5,1.5c1.7,0.6,2.1,1.1,2.1,6.7v15.3
	c0,13.2-0.2,14.3-1.9,14.7l-6.1,2.1v0.8c4-0.2,7.6-0.4,9.9-0.4s5.9,0.2,9.9,0.4v-0.8l-6.1-2.1c-1.7-0.4-1.9-1.5-1.9-14.7v-15.1h0.2
	c9.7,11.3,18.9,22.7,27.9,34.2h2.5v-17c0-22.1,0.2-22.9,1.9-23.7c1.7-0.8,3.8-1.5,5.9-2.1v-0.6c-3.8,0.2-7.1,0.6-9.7,0.6
	C451.5,300.6,448.1,300.4,444.3,300.2z"/>
<path d="M540.5,336.1c-5-10.9-12-26.3-16.2-37.2h-1.9c-4.6,10.7-10.9,24.2-14.5,31.5c-3.8,8.2-4.4,9.5-7.4,10.3l-2.5,0.8v0.8
	c2.9-0.2,5.7-0.6,8.6-0.6c2.9,0,5.7,0.2,8.6,0.6v-0.8l-4.8-1.5c-0.8-0.2-1.5-0.6-1.5-1.3c0-0.4,0.2-1.1,0.6-2.1l3.2-7.4H529l3.2,7.4
	c0.4,0.8,0.6,1.5,0.6,1.7c0,0.8-0.8,1.3-2.7,1.9l-3.8,1.1v0.8c3.6-0.2,7.4-0.6,10.9-0.6c3.6,0,7.1,0.2,10.9,0.6v-0.8l-4.8-1.7
	C542.4,339.7,541.8,338.9,540.5,336.1z M514.5,326l6.7-15.3l6.5,15.3H514.5z"/>
<path d="M619.9,331.1c-0.6,2.1-1.9,5-3.6,6.9c-0.8,0.2-2.5,0.2-3.6,0.2h-13.4c-0.2-1.9-0.2-4-0.2-6.7v-21c0-4.2,0.2-5.9,0.6-6.5
	c0.4-0.6,2.9-1.5,6.9-2.9v-0.8c-3.8,0.2-7.4,0.6-11.1,0.6c-3.8,0-7.4-0.2-11.3-0.6v0.8c5.9,1.9,6.3,2.5,6.7,2.9
	c0.4,0.6,0.8,2.7,0.8,8.4v19.5c0,4.2-0.2,5.9-0.6,6.5c-0.4,0.6-2.9,1.7-6.9,2.9v0.8c3.8-0.2,8.8-0.4,12.4-0.4c9,0,17,0.2,24.2,0.4
	l0.2-11.1H619.9z"/>
<line class="st0" x1="89.9" y1="289.5" x2="89.9" y2="352.5"/>
<line class="st0" x1="171.8" y1="289.5" x2="171.8" y2="352.5"/>
<line class="st0" x1="249.6" y1="289.5" x2="249.6" y2="352.5"/>
<line class="st0" x1="312.6" y1="289.5" x2="312.6" y2="352.5"/>
<line class="st0" x1="392.4" y1="289.5" x2="392.4" y2="352.5"/>
<line class="st0" x1="482.8" y1="289.5" x2="482.8" y2="352.5"/>
<line class="st0" x1="564.7" y1="289.5" x2="564.7" y2="352.5"/>
</svg>
