<svg xmlns="http://www.w3.org/2000/svg" class="width-full overflow-visible block logo-national"
  style="padding-bottom: 10.42%; height: 1px;" preserveAspectRatio="xMidYMin slice"
  viewBox="0 0 288 30">
  <path fill="currentColor" class="letter letter-1"
    d="M16,5.2v0.4c1,0.2,2.5,0.7,3,1c0.4,0.3,0.6,0.4,0.6,3.2v9.6h-0.1l-8.1-10c-0.8-1-1.8-2.3-3.3-4.2C7.2,5.3,6,5.4,4.8,5.4   c-1.2,0-2.3-0.1-3.3-0.1v0.4C2.4,5.8,3.2,6.1,4,6.4c0.8,0.3,1,0.5,1,3.2v7.3c0,6.3-0.1,6.8-0.9,7l-2.9,1v0.4   c1.9-0.1,3.6-0.2,4.7-0.2c1.1,0,2.8,0.1,4.7,0.2v-0.4l-2.9-1c-0.8-0.3-0.9-0.7-0.9-7V9.7h0.1c4.6,5.4,9,10.8,13.3,16.3h1.2v-8.1   c0-10.5,0.1-10.9,0.9-11.3c0.8-0.4,1.8-0.7,2.8-1V5.2c-1.8,0.1-3.4,0.3-4.6,0.3C19.4,5.5,17.8,5.4,16,5.2z"></path>
  <path fill="currentColor" class="letter letter-2"
    d="M62.1,22.3c-2.4-5.2-5.7-12.5-7.7-17.7h-0.9c-2.2,5.1-5.2,11.5-6.8,15c-1.8,3.9-2.1,4.5-3.5,4.9L41.9,25v0.4   c1.4-0.1,2.7-0.2,4.1-0.2c1.4,0,2.7,0.1,4.1,0.2V25l-2.3-0.7c-0.4-0.1-0.7-0.3-0.7-0.6c0-0.2,0.1-0.5,0.3-1l1.5-3.5h7.7l1.5,3.5   c0.2,0.4,0.3,0.7,0.3,0.8c0,0.4-0.4,0.6-1.3,0.9L55.3,25v0.4c1.7-0.1,3.5-0.2,5.2-0.2c1.7,0,3.4,0.1,5.2,0.2V25l-2.3-0.8   C62.9,24,62.7,23.6,62.1,22.3z M49.7,17.5l3.2-7.3l3.1,7.3H49.7z"></path>
  <path fill="currentColor" class="letter letter-3"
    d="M82.7,5.1v5.6h0.4c0.5-1.7,0.9-2.7,1.2-3c0.4-0.4,1.5-0.5,3.7-0.5c0.6,0,1.2,0,1.8,0c0,1,0.1,2.3,0.1,3.6v9.5   c0,2-0.1,2.8-0.3,3.1c-0.2,0.3-1.4,0.8-3.3,1.4v0.4c1.8-0.1,3.5-0.2,5.3-0.2c1.8,0,3.5,0.1,5.3,0.2v-0.4c-2.8-0.9-3-1.2-3.2-1.4   c-0.2-0.2-0.4-1.3-0.4-4v-8.6c0-1.3,0.1-2.5,0.1-3.6c0.6,0,1.3,0,1.8,0c2.3,0,3.3,0.1,3.7,0.5c0.3,0.3,0.8,1.4,1.2,3h0.4V5.1   c-3.2,0.1-6.2,0.3-9.1,0.3C88.9,5.3,85.9,5.2,82.7,5.1z"></path>
  <path fill="currentColor" class="letter letter-4"
    d="M119.7,5.1v0.4c2.8,0.9,3,1.2,3.2,1.4c0.2,0.3,0.4,1.3,0.4,4v9.3c0,2-0.1,2.8-0.3,3.1c-0.2,0.3-1.4,0.8-3.2,1.4v0.4   c1.8-0.1,3.5-0.2,5.3-0.2c1.8,0,3.5,0.1,5.3,0.2v-0.4c-2.8-0.9-3-1.2-3.2-1.4c-0.2-0.2-0.4-1.3-0.4-4v-9.3c0-2,0.1-2.8,0.3-3.1   c0.2-0.3,1.4-0.7,3.3-1.4V5.1c-1.8,0.1-3.5,0.3-5.3,0.3C123.2,5.4,121.5,5.3,119.7,5.1z"></path>
  <path fill="currentColor" class="letter letter-5"
    d="M159.8,4.6c-7.4,0-11.2,5.3-11.2,10.9c0,5.4,3.8,9.9,10,9.9c7.4,0,11.2-4.8,11.2-10.9C169.8,9.1,166,4.6,159.8,4.6z    M159.4,24.1c-4.1,0-6.7-2.9-6.7-9.8c0-5.5,2.6-8.4,6.3-8.4c4.4,0,6.7,3.3,6.7,9.8C165.7,21.2,163.3,24.1,159.4,24.1z"></path>
  <path fill="currentColor" class="letter letter-6"
    d="M202.7,5.1v0.4c1,0.2,2.5,0.7,3,1c0.4,0.3,0.6,0.4,0.6,3.2v9.6h-0.1l-8.1-10c-0.8-1-1.8-2.3-3.2-4.2   c-1.1,0.1-2.2,0.1-3.4,0.1c-1.2,0-2.3-0.1-3.2-0.1v0.4c0.8,0.2,1.7,0.4,2.4,0.7c0.8,0.3,1,0.5,1,3.2v7.3c0,6.3-0.1,6.8-0.9,7   l-2.9,1v0.4c1.9-0.1,3.6-0.2,4.7-0.2s2.8,0.1,4.7,0.2v-0.4l-2.9-1c-0.8-0.2-0.9-0.7-0.9-7V9.5h0.1c4.6,5.4,9,10.8,13.3,16.3h1.2   v-8.1c0-10.5,0.1-10.9,0.9-11.3c0.8-0.4,1.8-0.7,2.8-1V5.1c-1.8,0.1-3.4,0.3-4.6,0.3C206.1,5.3,204.5,5.2,202.7,5.1z"></path>
  <path fill="currentColor" class="letter letter-7"
    d="M248.5,22.2c-2.4-5.2-5.7-12.5-7.7-17.7h-0.9c-2.2,5.1-5.2,11.5-6.9,15c-1.8,3.9-2.1,4.5-3.5,4.9l-1.2,0.4v0.4   c1.4-0.1,2.7-0.3,4.1-0.3c1.4,0,2.7,0.1,4.1,0.3v-0.4l-2.3-0.7c-0.4-0.1-0.7-0.3-0.7-0.6c0-0.2,0.1-0.5,0.3-1l1.5-3.5h7.7l1.5,3.5   c0.2,0.4,0.3,0.7,0.3,0.8c0,0.4-0.4,0.6-1.3,0.9l-1.8,0.5v0.4c1.7-0.1,3.5-0.3,5.2-0.3c1.7,0,3.4,0.1,5.2,0.3v-0.4l-2.3-0.8   C249.4,23.9,249.1,23.5,248.5,22.2z M236.1,17.4l3.2-7.3l3.1,7.3H236.1z"></path>
  <path fill="currentColor" class="letter letter-8"
    d="M286.3,19.8c-0.3,1-0.9,2.4-1.7,3.3c-0.4,0.1-1.2,0.1-1.7,0.1h-6.4c-0.1-0.9-0.1-1.9-0.1-3.2V10c0-2,0.1-2.8,0.3-3.1   c0.2-0.3,1.4-0.7,3.3-1.4V5.1c-1.8,0.1-3.5,0.3-5.3,0.3c-1.8,0-3.5-0.1-5.4-0.3v0.4c2.8,0.9,3,1.2,3.2,1.4c0.2,0.3,0.4,1.3,0.4,4   v9.3c0,2-0.1,2.8-0.3,3.1c-0.2,0.3-1.4,0.8-3.3,1.4v0.4c1.8-0.1,4.2-0.2,5.9-0.2c4.3,0,8.1,0.1,11.5,0.2l0.1-5.3H286.3z"></path>
  <line class="line line-1" fill="none" stroke="currentColor" stroke-width="1"
    stroke-miterlimit="10" x1="34" y1="0" x2="34" y2="30"></line>
  <line class="line line-2" fill="none" stroke="currentColor" stroke-width="1"
    stroke-miterlimit="10" x1="73" y1="0" x2="73" y2="30"></line>
  <line class="line line-3" fill="none" stroke="currentColor" stroke-width="1"
    stroke-miterlimit="10" x1="110" y1="0" x2="110" y2="30"></line>
  <line class="line line-4" fill="none" stroke="currentColor" stroke-width="1"
    stroke-miterlimit="10" x1="140" y1="0" x2="140" y2="30"></line>
  <line class="line line-5" fill="none" stroke="currentColor" stroke-width="1"
    stroke-miterlimit="10" x1="178" y1="0" x2="178" y2="30"></line>
  <line class="line line-6" fill="none" stroke="currentColor" stroke-width="1"
    stroke-miterlimit="10" x1="221" y1="0" x2="221" y2="30"></line>
  <line class="line line-7" fill="none" stroke="currentColor" stroke-width="1"
    stroke-miterlimit="10" x1="260" y1="0" x2="260" y2="30"></line>
</svg>