<?xml version="1.0" encoding="utf-8"?>
<!-- Generator: Adobe Illustrator 28.3.0, SVG Export Plug-In . SVG Version: 6.00 Build 0)  -->
<svg version="1.1" id="レイヤー_1" xmlns="http://www.w3.org/2000/svg" xmlns:xlink="http://www.w3.org/1999/xlink" x="0px"
	 y="0px" viewBox="0 0 475.9 401.4" style="enable-background:new 0 0 475.9 401.4;" xml:space="preserve">
<style type="text/css">
	.st0{fill:#FFFFFF;}
</style>
<g>
	<g>
		<path class="st0" d="M67.7,141.8c24.7-72.2,93-120.7,169.8-120.7c76.9,0,145.1,48.5,169.8,120.7l0.2,0.6h54.1v-6.5l-22.5-2.6
			c-13.9-1.6-16.8-7.7-20.6-15.5l-0.9-1.9c-32.5-69.3-103.2-114-180.1-114S89.9,46.7,57.4,115.9l-0.9,1.9
			c-3.8,7.7-6.7,13.9-20.6,15.5l-22.5,2.6v6.5h54.1L67.7,141.8z"/>
		<path class="st0" d="M407.6,259.6l-0.2,0.6c-24.7,72.2-93,120.7-169.8,120.7l0,0c-76.9,0-145.1-48.5-169.8-120.8l-0.2-0.6H13.5
			v6.5l22.5,2.6c13.9,1.6,16.8,7.7,20.6,15.5l0.9,1.9C90,355.3,160.7,400,237.6,400.1l0,0c76.9,0,147.6-44.8,180.1-114l0.9-1.9
			c3.8-7.7,6.7-13.9,20.6-15.5l22.5-2.6v-6.5L407.6,259.6z"/>
		<g>
			<rect x="95.5" y="173.3" class="st0" width="12.3" height="55.4"/>
			<polygon class="st0" points="68.4,228.7 68.4,173.3 56.1,173.3 56.1,214.6 15.3,173.3 -0.5,173.3 -0.5,228.7 11.8,228.7 
				11.8,187.1 52.9,228.7 			"/>
			<path class="st0" d="M342.7,173.3l-34.6,55.4H323l6.2-9.9h40.3l6.2,9.9h14.9L356,173.3H342.7z M363.2,208.3h-27.7l13.9-22.3
				L363.2,208.3z"/>
			<path class="st0" d="M277,217.1c-0.4,0.1-1.9,0.1-2.5,0.1h-49.3v11.4h50.1c0.4,0,3.3,0,4-0.1c10.2-0.9,14.9-9.4,14.9-16.9
				c0-7.6-4.8-15.8-14.1-16.7c-1.8-0.2-3.3-0.2-4-0.2h-32.7c-1.5,0-3-0.1-3.6-0.3c-2.6-0.7-3.5-3-3.5-4.8c0-1.7,0.9-4,3.6-4.8
				c0.8-0.2,1.6-0.2,3.4-0.2h47.3v-11.3h-48c-2,0-3.5,0.1-4.8,0.2c-8.2,1.1-14,7.8-14,16.1c0,6.9,4.3,14.9,13.8,16.2
				c1.7,0.2,4.1,0.2,5.2,0.2h31.9c0.6,0,2,0,2.3,0.1c3.6,0.5,4.9,3.2,4.9,5.5C281.6,214,280.2,216.6,277,217.1"/>
			<path class="st0" d="M185.1,217.1c-0.4,0.1-1.9,0.1-2.5,0.1h-49.3v11.4h50.1c0.4,0,3.3,0,4-0.1c10.2-0.9,14.9-9.4,14.9-16.9
				c0-7.6-4.8-15.8-14.1-16.7c-1.8-0.2-3.3-0.2-4-0.2h-32.7c-1.5,0-3-0.1-3.6-0.3c-2.6-0.7-3.5-3-3.5-4.8c0-1.7,0.9-4,3.6-4.8
				c0.8-0.2,1.6-0.2,3.4-0.2h47.3v-11.3h-48c-2,0-3.5,0.1-4.8,0.2c-8.2,1.1-14,7.8-14,16.1c0,6.9,4.3,14.9,13.8,16.2
				c1.7,0.2,4.1,0.2,5.2,0.2h31.9c0.6,0,2,0,2.3,0.1c3.6,0.5,4.9,3.2,4.9,5.5C189.7,214,188.3,216.6,185.1,217.1"/>
			<polygon class="st0" points="475.5,228.7 475.5,173.3 463.2,173.3 463.2,214.6 422.4,173.3 406.6,173.3 406.6,228.7 418.9,228.7 
				418.9,187.1 460,228.7 			"/>
		</g>
	</g>
	<g>
		<path class="st0" d="M435.2,370v13.7H433V370h-6v-2.1h14.2v2.1H435.2z"/>
		<path class="st0" d="M458.9,367.9c0.8,2.7,1.9,6.1,3.1,15.8h-2.3c-1-7.4-1.8-11.1-2.3-12.7c-1.5,3.6-3,7.4-4.4,11h-1.6
			c-2.4-6.2-4-10.3-4.3-10.9c-0.4,1.7-1.3,5.3-2.3,12.6h-2.3c1.3-9.6,2.4-13,3.2-15.8h2.3c1.3,2.9,2.7,6.3,4.3,10.3
			c2-5.1,3.3-7.8,4.4-10.3H458.9z"/>
	</g>
</g>
</svg>
