<svg width="106" height="84" viewBox="0 0 106 84" xmlns="http://www.w3.org/2000/svg">
  <g fill="none" fill-rule="evenodd">
    <path fill="#FEFEFE" d="M0 83.993h105.68V0H0z"/>
    <path fill="#231F20" d="M98.023 82.744h-.345v-2.772h-.747v-.32h1.847v.32h-.755zM99.697 79.476l1.124 2.596 1.128-2.596.627 3.268h-.353l-.398-2.091h-.008l-.996 2.218-.993-2.218h-.008l-.398 2.09h-.353z"/>
    <path d="M102.084 3.58v57.712l-7.442-2.65c-1.342-.583-1.748-1.792-1.298-3.451l3.606-13.796-12.086 2.041c-1.528.291-2.542-.245-3.013-1.525l-2.105-5.813-9.777 11.465c-1.507 1.793-3.676 1.323-3.142-1.655l4.616-24.793-7.175 3.972c-1.245.673-2.602.512-3.296-.652L52.83 8.89l-8.143 15.545c-.695 1.164-2.052 1.325-3.296.652l-7.181-3.972 4.616 24.793c.55 2.978-1.635 3.448-3.136 1.655l-9.783-11.465-2.105 5.813c-.47 1.28-1.48 1.816-3.013 1.525l-12.085-2.04L12.32 55.19c.448 1.659.042 2.868-1.31 3.451l-7.436 2.65V3.579h98.51z" fill="#E12"/>
    <path d="M6.93 73.048v4.154H3.564V64.666h4.124c2.052 0 4.584.892 4.584 4.186 0 3.24-2.046 4.196-4.365 4.196H6.93zm0-2.572h.384c1.31-.01 1.768-.775 1.768-1.637 0-.864-.459-1.633-1.768-1.647H6.93v3.284zM27.093 64.666h-14.42v12.536h6.486v-2.845h-3.115v-2.27h2.89v-2.666h-2.89v-2.094H21.5v9.875h3.366v-9.875h2.228zM68.382 71.064l2.351 6.133h3.392V64.666h-3.237v6.114l-2.356-6.114h-3.387v12.531h3.237zM30.892 71.667v5.536H27.51V64.666h4.092c2.806-.014 4.867 1.325 4.627 4.3-.085 1.12-.844 2.22-2.201 2.69l2.543 5.547h-3.414l-2.265-5.536zm.005-1.162h.358c1.202-.01 1.694-.839 1.694-1.739 0-.898-.492-1.728-1.694-1.741h-.358v3.48z" fill="#231F20"/>
    <path d="M47.828 69.546h-1.757c-.348-2.973-1.849-5.155-4.783-5.155-3.387 0-4.867 2.895-4.867 6.566 0 3.67 1.48 6.574 4.867 6.574 3.073 0 4.574-2.402 4.825-5.583h1.715v-2.402zm-6.475 5.057c-1.341 0-1.507-1.867-1.507-3.756 0-1.885.166-3.759 1.507-3.759 1.335 0 1.506 1.874 1.506 3.759 0 1.889-.17 3.756-1.506 3.756zM84.528 64.666h3.89c4.033 0 5.182 2.607 5.182 6.256 0 1.338-.412 3.999-1.998 5.284-1.293 1.05-2.581.99-4.237.99h-2.837v-12.53zm3.29 9.59h.509c1.543 0 1.859-1.221 1.859-3.334 0-2.263-.37-3.473-1.811-3.473h-.556v6.807zM80.97 77.197h3.301L81.28 64.666h-3.9l-2.986 12.531h3.29l.375-2.03H80.6l.369 2.03zm-2.5-4.312l.86-4.73.86 4.73h-1.72zM58.316 77.197l.369-2.03h2.543l.369 2.03h3.296l-2.986-12.531h-3.9l-2.314 9.678h-.924c-2.277 0-2.72-1.662-2.72-3.588 0-1.947.443-3.41 2.057-3.702.535-.1 1.357.085 1.833.312v-2.65c-.561-.208-1.336-.323-1.934-.323-2.378 0-5.295 1.323-5.295 6.363 0 4.283 2.27 6.436 5.364 6.441h4.242zm.78-4.312l.86-4.73.86 4.73h-1.72zM99.327 77.202h3.302L99.637 64.66h-3.9L92.75 77.202h3.291l.374-2.035h2.544l.368 2.035zm-2.5-4.316l.86-4.731.86 4.73h-1.72z" fill="#231F20"/>
  </g>
</svg>