<svg version="1.1" id="Layer_1" xmlns:x="ns_extend;" xmlns:i="ns_ai;" xmlns:graph="ns_graphs;" xmlns="http://www.w3.org/2000/svg" xmlns:xlink="http://www.w3.org/1999/xlink" x="0px" y="0px" viewBox="0 0 245.60000000000005 45" style="enable-background:new 0 0 245.6 45;" xml:space="preserve"><style type="text/css">
  .st0{fill:#DA291C;}
 </style><metadata><sfw xmlns="ns_sfw;"><slices/><sliceSourceBounds bottomLeftOrigin="true" height="45" width="245.6" x="-68.6" y="-193.8"/></sfw></metadata><g><path class="st0" d="M37.1,39.6c-1.6,0.5-4,1.1-6.9,1.1c-7.8,0-17-6.2-21.4-16.6c-1.5,1.9-2.6,5-2.6,8.2c0,6.6,6.1,12.7,16.3,12.7
		C28.8,45,33.7,42.5,37.1,39.6 M5.4,37.1c-0.5-1.6-1.1-4-1.1-6.9c0-7.8,6.2-17,16.6-21.4c-1.9-1.5-5-2.6-8.3-2.6
		C6.1,6.2,0,12.3,0,22.5C0,28.8,2.5,33.7,5.4,37.1 M7.9,5.4c1.6-0.5,4-1.1,6.9-1.1c7.8,0,17,6.2,21.4,16.6c1.5-1.9,2.6-5,2.6-8.3
		C38.8,6.1,32.7,0,22.5,0C16.2,0,11.3,2.5,7.9,5.4 M39.6,7.9c2.9,3.4,5.4,8.3,5.4,14.6c0,10.2-6.1,16.3-12.7,16.3
		c-3.2,0-6.4-1.1-8.3-2.6c10.5-4.4,16.6-13.6,16.6-21.4C40.7,11.9,40.2,9.5,39.6,7.9"/><path class="st0" d="M114.3,22.5c0-7.5-3.1-12.2-9.4-12.2c-6.2,0-9.4,4.5-9.4,12.2c0,7.7,3.2,12.1,9.4,12.1
		C111.1,34.7,114.3,30.2,114.3,22.5 M89.2,22.5c0-10.3,6-17.4,15.8-17.4c9.8,0,15.8,7.2,15.8,17.4c0,10.4-6.1,17.3-15.8,17.3
		C95.2,39.9,89.2,32.9,89.2,22.5"/><polygon class="st0" points="164.7,5.6 164.7,39.4 185.6,39.4 185.6,34.4 170.8,34.4 170.8,24.7 183.8,24.7 183.8,19.6 170.8,19.6 
		170.8,10.6 183.9,10.6 185.5,5.6 	"/><path class="st0" d="M145.3,21.2l-1.6,4.9h5.2v7.6c-1.3,0.6-2.7,1-4.9,1c-7.2,0-10.7-4.8-10.7-12.1c0-7.2,3.6-12.2,10.9-12.2
		c2.7,0,5.4,0.9,7.7,2.3l1.7-5.2c-2.7-1.4-6.2-2.3-9.8-2.3c-10.3,0-16.9,7.6-16.9,17.9c0,9.7,5.8,16.9,16.7,16.9
		c4.6,0,8.4-1.2,11.5-2.7v-16h0H145.3z"/><path class="st0" d="M70.7,21.2c5.2,0,6.2-3.2,6.2-5.3c0-1.8-0.9-5.2-6.2-5.2h-4v10.6H70.7z M60.7,5.6h10.2
		c9.3,0,12.3,5.8,12.3,10.3c0,6.3-4.8,8.8-6.2,9.3v0.2c0.7,0.2,2.1,0.9,3.9,4.2l5.6,9.9h-6.9l-4.8-8.6c-1.9-3.5-2.7-4.6-5.9-4.6
		h-2.2v13.2h-6V5.6z"/><path class="st0" d="M204.3,21.2c5.2,0,6.2-3.2,6.2-5.3c0-1.8-0.9-5.2-6.2-5.2h-4v10.6H204.3z M194.3,5.6h10.2
		c9.3,0,12.3,5.8,12.3,10.3c0,6.3-4.8,8.8-6.2,9.3v0.2c0.7,0.2,2.1,0.9,3.9,4.2l5.6,9.9h-6.9l-4.8-8.6c-1.9-3.5-2.7-4.6-5.9-4.6
		h-2.2v13.2h-6V5.6z"/><path class="st0" d="M231,14.1c0-2.7,2.5-3.8,5.4-3.8c3.8,0,6.7,1.3,7.3,1.5V6.1c-0.5-0.1-3.1-1-7.9-1c-7.4,0-11.4,4.4-11.4,9.4
		c0,5,4,7.5,7.4,9.3c0.8,0.4,1.7,0.9,2.4,1.3c2.8,1.5,4.8,2.6,4.8,5.2c0,2.9-2.8,4.3-5.7,4.3c-4.8,0-7.8-1.8-8.2-2l-1.6,5
		c0.5,0.3,4.3,2.2,10,2.2c6.9,0,12.1-4.1,12.1-10.1c0-4.3-2.9-7-7.7-9.5c-0.8-0.4-1.5-0.8-2.3-1.2C233,17.6,231,16.5,231,14.1"/></g></svg>