<svg xmlns="http://www.w3.org/2000/svg" width="100%" height="100%" viewBox="0 0 109 109" fill="none">
  <g clip-path="url(#clip0_553_40448)">
    <path d="M0 0H109V109H0V0Z" fill="backgroundColor"></path>
    <mask id="mask0_553_40448" style="mask-type:luminance" maskUnits="userSpaceOnUse" x="0" y="0"
      width="100%" height="100%">
      <path d="M0 0H109V109H0V0Z" fill="white"></path>
    </mask>
    <g mask="url(#mask0_553_40448)">
      <path
        d="M84.366 50.3144L88.3554 45.4748C86.9635 44.0483 85.303 42.9113 83.4697 42.1293C81.6364 41.3473 79.6665 40.9359 77.6734 40.9186C75.1502 40.8844 72.6597 41.492 70.4358 42.6844C68.3147 43.8349 66.5491 45.5444 65.3309 47.6274C64.1126 49.7104 63.4881 52.0872 63.5252 54.5C63.5043 56.9663 64.1522 59.3922 65.4 61.5196C66.5807 63.5869 68.298 65.2967 70.3704 66.4682C72.5395 67.6845 74.9905 68.3086 77.4772 68.2776C79.5037 68.2517 81.5019 67.7985 83.3414 66.9478C85.2674 66.0849 87.0074 64.8559 88.4644 63.329L84.4314 58.969C83.5103 59.8813 82.4321 60.6199 81.2486 61.149C80.1888 61.6694 79.0282 61.9521 77.8478 61.9774C76.5408 62.0311 75.2462 61.7056 74.12 61.04C73.0264 60.3782 72.1363 59.4278 71.5476 58.2932C70.9172 57.0852 70.588 55.7427 70.588 54.3801C70.588 53.0175 70.9172 51.675 71.5476 50.467C72.1481 49.3523 73.0364 48.4188 74.12 47.7638C75.2141 47.0915 76.4766 46.7438 77.7606 46.761C78.9921 46.7842 80.1983 47.1138 81.2704 47.7202C82.46 48.368 83.5058 49.2505 84.3442 50.3144M40.5698 49.2898L43.164 43.7744C41.6379 42.824 39.9871 42.0903 38.259 41.5944C36.4191 41.0482 34.5103 40.7692 32.591 40.766C30.6903 40.7337 28.8016 41.0744 27.032 41.7688C25.5545 42.3564 24.2708 43.3456 23.326 44.6246C22.4338 45.9001 21.9753 47.4286 22.018 48.9846C21.9468 50.4836 22.3932 51.9614 23.2824 53.1702C24.0988 54.1803 25.1454 54.9802 26.3344 55.5028C27.7931 56.1178 29.2938 56.6278 30.8252 57.0288C32.0169 57.3486 32.9543 57.632 33.6374 57.879C34.2453 58.0913 34.8074 58.4168 35.2942 58.8382C35.5058 59.0311 35.6737 59.2672 35.7865 59.5304C35.8993 59.7936 35.9545 60.0779 35.9482 60.3642C35.9654 60.6933 35.8934 61.0209 35.74 61.3125C35.5865 61.6041 35.3572 61.8489 35.0762 62.021C34.3305 62.4323 33.4853 62.6285 32.6346 62.5878C30.9623 62.5339 29.3173 62.1486 27.795 61.4542C26.0616 60.7568 24.4558 59.7771 23.0426 58.5548L20.3612 63.8958C22.042 65.2744 23.9536 66.3446 26.0074 67.0568C28.1065 67.8087 30.3178 68.1994 32.5474 68.2122C34.3937 68.234 36.2277 67.9086 37.9538 67.253C39.4687 66.6893 40.797 65.7157 41.7906 64.4408C42.7353 63.129 43.2253 61.5443 43.1858 59.9282C43.2716 58.3702 42.8173 56.8302 41.8996 55.5682C41.097 54.5084 40.0397 53.6686 38.8258 53.1266C37.3397 52.5071 35.8183 51.9757 34.2696 51.5352C33.0488 51.1646 32.0896 50.8594 31.4792 50.6196C30.8946 50.4098 30.3547 50.0918 29.8878 49.6822C29.684 49.4982 29.5222 49.2725 29.4131 49.0206C29.304 48.7686 29.2503 48.4961 29.2556 48.2216C29.2417 47.9468 29.3035 47.6734 29.4342 47.4313C29.5648 47.1891 29.7595 46.9874 29.9968 46.8482C30.6032 46.4936 31.3012 46.3267 32.0024 46.3686C33.3809 46.4231 34.742 46.6954 36.0354 47.1752C37.607 47.6896 39.1197 48.3692 40.548 49.2026M61.04 59.187V41.42H53.9986V59.1216C54.022 59.9138 53.7589 60.6879 53.2574 61.3016C52.993 61.5667 52.676 61.7735 52.3268 61.9087C51.9776 62.0439 51.604 62.1044 51.23 62.0864C50.2887 62.0463 49.37 61.7849 48.5486 61.3234C47.5314 60.7692 46.599 60.0717 45.78 59.2524V59.8628C45.7698 60.3883 45.7261 60.9125 45.6492 61.4324C45.4899 62.8434 45.0129 64.1999 44.254 65.4C46.3575 67.1309 49.0076 68.0581 51.7314 68.016C54.1964 68.1559 56.617 67.3177 58.4676 65.6834C59.307 64.8221 59.9592 63.7965 60.3831 62.671C60.8071 61.5455 60.9936 60.3445 60.931 59.1434"
        fill="currentColor"></path>
    </g>
  </g>
  <defs>
    <clipPath id="clip0_553_40448">
      <rect width="100%" height="100%" fill="currentColor"></rect>
    </clipPath>
  </defs>
</svg>