<?xml version="1.0" encoding="UTF-8"?>
<svg version="1.1" xmlns="http://www.w3.org/2000/svg" width="300" height="137">
<path d="M0 0 C1.19044922 -0.02900391 2.38089844 -0.05800781 3.60742188 -0.08789062 C11.2433664 -0.14246307 17.10769564 0.83620522 23.9375 4.3125 C23.9375 4.9725 23.9375 5.6325 23.9375 6.3125 C24.5975 6.3125 25.2575 6.3125 25.9375 6.3125 C26.61417998 7.55710783 27.27844719 8.80846896 27.9375 10.0625 C28.30875 10.75859375 28.68 11.4546875 29.0625 12.171875 C29.9375 14.3125 29.9375 14.3125 29.9375 18.3125 C27.6275 18.6425 25.3175 18.9725 22.9375 19.3125 C22.55271484 18.49845703 22.55271484 18.49845703 22.16015625 17.66796875 C20.08963951 13.79882132 18.30784431 10.9551879 14.125 9.3125 C4.66621359 6.87662524 -8.26535046 6.72514519 -17.0625 11.3125 C-19.38288095 14.13818546 -19.38288095 14.13818546 -18.875 17.375 C-18.32495502 20.60990953 -18.32495502 20.60990953 -15.0625 22.3125 C-8.92499262 23.82327105 -2.57081352 24.38112972 3.70800781 25.01098633 C21.93471979 26.86125085 21.93471979 26.86125085 28 31.8125 C31.4878296 36.31292529 31.4714336 40.83265511 30.9375 46.3125 C29.49223417 50.02889784 27.97456047 52.74321666 24.9375 55.3125 C22.6328125 56.2265625 22.6328125 56.2265625 20.0625 56.9375 C19.21945313 57.17726562 18.37640625 57.41703125 17.5078125 57.6640625 C16.65960938 57.87804687 15.81140625 58.09203125 14.9375 58.3125 C14.19628906 58.50199219 13.45507812 58.69148438 12.69140625 58.88671875 C8.7089057 59.50245288 4.77440849 59.50393277 0.75 59.5 C-0.09699463 59.49919434 -0.94398926 59.49838867 -1.81665039 59.49755859 C-9.37311186 59.42355388 -16.30161516 58.91225524 -23.0625 55.3125 C-23.0625 54.6525 -23.0625 53.9925 -23.0625 53.3125 C-23.7225 53.3125 -24.3825 53.3125 -25.0625 53.3125 C-28.61034971 47.93350206 -29.77137831 43.73173331 -30.0625 37.3125 C-26.5975 36.8175 -26.5975 36.8175 -23.0625 36.3125 C-22.75957031 36.99957031 -22.45664062 37.68664062 -22.14453125 38.39453125 C-19.13635934 45.30067566 -19.13635934 45.30067566 -13.0625 49.3125 C-8.34173746 50.54593232 -3.65932842 50.53215992 1.1875 50.5625 C1.99574219 50.583125 2.80398437 50.60375 3.63671875 50.625 C9.36549298 50.66166416 14.78944732 49.99847104 19.9375 47.3125 C21.82325482 44.49181787 21.82325482 44.49181787 21.9375 41.3125 C21.20311209 38.66870353 20.55346419 37.68598055 18.2109375 36.265625 C15.52218188 35.13838038 13.07515953 34.72292877 10.1875 34.3125 C9.0428125 34.14621094 7.898125 33.97992188 6.71875 33.80859375 C4.09384704 33.46421082 1.47412998 33.14109251 -1.15625 32.84765625 C-20.94374823 30.62246276 -20.94374823 30.62246276 -27.0625 24.3125 C-28.97878926 20.18510775 -28.81603312 14.68828914 -27.44921875 10.37890625 C-24.9487919 5.2568865 -21.25658504 3.29627786 -16.0625 1.3125 C-10.88164594 -0.41445135 -5.42348238 0.0430663 0 0 Z " fill="#847C6B" transform="translate(38.0625,39.6875)"/>
<path d="M0 0 C0.95970703 -0.02449219 1.91941406 -0.04898438 2.90820312 -0.07421875 C10.26599816 -0.10435306 15.58608221 1.26721283 21.2109375 6.12109375 C28.58411938 15.34822599 28.73206909 24.86923246 28.1875 36.375 C27.33389844 43.54957513 25.11248291 49.36644615 20 54.625 C11.91982299 59.65266569 3.5790602 60.36190972 -5.8125 59.375 C-10.37589723 58.13043712 -14.43497065 56.75252935 -17.8125 53.375 C-18.1425 59.645 -18.4725 65.915 -18.8125 72.375 C-21.1225 72.375 -23.4325 72.375 -25.8125 72.375 C-26.10035531 66.98575152 -26.3850722 61.59634934 -26.66699219 56.20678711 C-26.76315309 54.37666443 -26.86014336 52.54658511 -26.95800781 50.71655273 C-27.09923501 48.07286614 -27.2373922 45.42903342 -27.375 42.78515625 C-27.41874756 41.97853043 -27.46249512 41.1719046 -27.50756836 40.34083557 C-28.78224073 15.50636419 -28.78224073 15.50636419 -21.8125 7.375 C-15.057215 0.712763 -9.09276395 0.01206737 0 0 Z M-13.8125 11.375 C-14.1425 12.365 -14.4725 13.355 -14.8125 14.375 C-15.4725 14.375 -16.1325 14.375 -16.8125 14.375 C-20.76502683 25.00917934 -21.28648961 34.82916736 -16.8125 45.375 C-16.1525 45.375 -15.4925 45.375 -14.8125 45.375 C-14.8125 46.035 -14.8125 46.695 -14.8125 47.375 C-8.21005167 51.96003356 -1.64919359 51.93035624 6.1875 51.375 C11.7814394 50.1835111 15.03160693 47.06375542 18.1875 42.375 C21.31344519 35.0811279 21.49175016 25.45023571 19.0625 17.875 C16.3890458 12.88455216 13.61182299 10.53206324 8.4375 8.0625 C0.50896802 6.38531054 -6.92238057 6.68218517 -13.8125 11.375 Z " fill="#847C6B" transform="translate(101.8125,39.625)"/>
<path d="M0 0 C6.09972259 3.07540452 9.22722719 7.56626874 12.39453125 13.42578125 C13.13355945 16.07396563 13.3336843 18.37809889 13.51953125 21.11328125 C13.88030227 25.6028762 14.89075829 27.85950829 18.14453125 31.11328125 C20.46865887 35.76153648 19.55937419 42.05450201 19.14453125 47.11328125 C16.68688217 52.39267558 12.96873838 55.4994486 7.95703125 58.36328125 C3.70754361 59.49647795 -0.48384931 59.26607572 -4.85546875 59.11328125 C-5.18546875 59.77328125 -5.51546875 60.43328125 -5.85546875 61.11328125 C-6.51546875 61.11328125 -7.17546875 61.11328125 -7.85546875 61.11328125 C-7.85546875 61.77328125 -7.85546875 62.43328125 -7.85546875 63.11328125 C-10.96936179 64.92971886 -13.26324584 65.38518505 -16.85546875 65.36328125 C-17.70109375 65.3684375 -18.54671875 65.37359375 -19.41796875 65.37890625 C-21.99025686 65.0985928 -23.63577955 64.40809995 -25.85546875 63.11328125 C-25.85546875 62.45328125 -25.85546875 61.79328125 -25.85546875 61.11328125 C-26.51546875 61.11328125 -27.17546875 61.11328125 -27.85546875 61.11328125 C-29.80765319 57.83640022 -30.12610441 55.34258398 -30.10546875 51.55078125 C-30.11320313 50.12572266 -30.11320313 50.12572266 -30.12109375 48.671875 C-29.85546875 46.11328125 -29.85546875 46.11328125 -27.85546875 43.11328125 C-28.78359375 42.88640625 -29.71171875 42.65953125 -30.66796875 42.42578125 C-33.85546875 41.11328125 -33.85546875 41.11328125 -35.79296875 38.92578125 C-37.5124727 34.37415316 -36.3531758 30.60640241 -34.85546875 26.11328125 C-34.89671875 24.91703125 -34.93796875 23.72078125 -34.98046875 22.48828125 C-35.04618134 16.54129174 -33.23535387 11.44847146 -30.23046875 6.36328125 C-21.82284532 -1.60183568 -11.06280466 -3.43537163 0 0 Z M-21.85546875 7.11328125 C-21.85546875 7.77328125 -21.85546875 8.43328125 -21.85546875 9.11328125 C-22.51546875 9.11328125 -23.17546875 9.11328125 -23.85546875 9.11328125 C-24.81453125 10.78390625 -24.81453125 10.78390625 -25.79296875 12.48828125 C-26.15261719 13.11476563 -26.51226562 13.74125 -26.8828125 14.38671875 C-28.50598907 17.26802014 -28.97124487 18.9351615 -28.91796875 22.23828125 C-28.89734375 23.51703125 -28.87671875 24.79578125 -28.85546875 26.11328125 C-27.90671875 26.36078125 -26.95796875 26.60828125 -25.98046875 26.86328125 C-22.85546875 28.11328125 -22.85546875 28.11328125 -21.48046875 29.92578125 C-20.76958565 32.41387209 -20.71239478 34.53794973 -20.85546875 37.11328125 C-19.86546875 37.44328125 -18.87546875 37.77328125 -17.85546875 38.11328125 C-17.2078925 36.67656557 -16.56247422 35.23887709 -15.91796875 33.80078125 C-15.55832031 33.00027344 -15.19867188 32.19976562 -14.828125 31.375 C-13.77700834 29.01838517 -13.77700834 29.01838517 -12.85546875 26.11328125 C-10.73046875 25.05078125 -10.73046875 25.05078125 -7.85546875 24.11328125 C-6.21578125 23.55640625 -6.21578125 23.55640625 -4.54296875 22.98828125 C-0.42719661 22.01165735 2.93395503 21.96554173 7.14453125 22.11328125 C6.7086914 16.66528311 5.62974336 13.35205274 2.14453125 9.11328125 C-6.15463913 2.84656076 -12.62336012 3.22607762 -21.85546875 7.11328125 Z M-10.79296875 33.36328125 C-12.2047066 37.01719097 -12.53105147 40.28497916 -11.85546875 44.11328125 C-9.63410312 48.47373972 -7.41979846 51.24605546 -2.85546875 53.11328125 C1.21054511 53.70350907 3.60592969 54.04185133 7.14453125 51.90625 C11.19255327 48.57506521 13.8088678 45.63075711 14.51953125 40.30078125 C14.03433673 36.17662784 12.77276186 33.32556311 10.14453125 30.11328125 C2.45168705 24.92897321 -4.93151173 26.55642793 -10.79296875 33.36328125 Z M-29.85546875 32.11328125 C-29.85546875 33.43328125 -29.85546875 34.75328125 -29.85546875 36.11328125 C-28.53546875 35.78328125 -27.21546875 35.45328125 -25.85546875 35.11328125 C-26.18546875 34.12328125 -26.51546875 33.13328125 -26.85546875 32.11328125 C-27.84546875 32.11328125 -28.83546875 32.11328125 -29.85546875 32.11328125 Z M-21.98046875 45.86328125 C-24.33806602 48.65228058 -24.33806602 48.65228058 -24.85546875 52.11328125 C-23.26032091 56.39939372 -23.26032091 56.39939372 -19.85546875 59.11328125 C-15.80404756 59.3718826 -14.31209206 59.41769679 -10.85546875 57.11328125 C-10.85546875 56.12328125 -10.85546875 55.13328125 -10.85546875 54.11328125 C-11.51546875 54.11328125 -12.17546875 54.11328125 -12.85546875 54.11328125 C-14.59209209 50.88812362 -15.74606155 47.59998959 -16.85546875 44.11328125 C-19.92831021 43.79542762 -19.92831021 43.79542762 -21.98046875 45.86328125 Z " fill="#10B1DD" transform="translate(271.85546875,0.88671875)"/>
<path d="M0 0 C7.92 0 15.84 0 24 0 C24 2.31 24 4.62 24 7 C21.03 7 18.06 7 15 7 C15.06871486 12.66043437 15.15660064 18.3201185 15.26245117 23.97998047 C15.29575369 25.90632831 15.32376889 27.83277499 15.34643555 29.75927734 C15.37988424 32.5248435 15.43219336 35.28949953 15.48828125 38.0546875 C15.49467117 38.9193161 15.5010611 39.7839447 15.50764465 40.67477417 C15.53920053 43.35263663 15.53920053 43.35263663 16 47 C18.91765 48.9451 20.62537285 49.45276317 24 50 C24 52.64 24 55.28 24 58 C19.26375296 58.37889976 15.90064653 58.44213557 11.5625 56.3125 C7.6207207 52.75528454 6.82194114 49.09741645 6 44 C5.853237 41.10320455 5.85850451 38.21246652 5.875 35.3125 C5.87693359 34.48903076 5.87886719 33.66556152 5.88085938 32.81713867 C5.9399088 24.19346294 6.42444314 15.60251944 7 7 C5.5459375 7.0309375 5.5459375 7.0309375 4.0625 7.0625 C1 7 1 7 0 6 C0 4.02 0 2.04 0 0 Z " fill="#847C6B" transform="translate(201,41)"/>
<path d="M0 0 C0 2.64 0 5.28 0 8 C-0.88042969 8.09796875 -1.76085937 8.1959375 -2.66796875 8.296875 C-3.82941406 8.44640625 -4.99085938 8.5959375 -6.1875 8.75 C-7.33605469 8.88921875 -8.48460937 9.0284375 -9.66796875 9.171875 C-13.55065645 10.13685717 -15.27038997 11.07710152 -18 14 C-20.46544153 19.59929837 -21.49331857 24.36023613 -21.73046875 30.4375 C-21.770616 31.20304199 -21.81076324 31.96858398 -21.85212708 32.75732422 C-21.97597417 35.17113132 -22.08204206 37.58532691 -22.1875 40 C-22.26900153 41.64979834 -22.35167318 43.29953931 -22.43554688 44.94921875 C-22.63721651 48.96561026 -22.82296083 52.98245053 -23 57 C-25.31 57 -27.62 57 -30 57 C-30.09984488 51.93210414 -30.1719226 46.86479699 -30.21972656 41.79614258 C-30.23968148 40.07663991 -30.26685558 38.35720367 -30.30175781 36.63793945 C-30.74144445 14.40143445 -30.74144445 14.40143445 -24.05664062 6.78613281 C-16.72165984 -0.23364404 -9.7454882 -0.28384917 0 0 Z " fill="#847C6B" transform="translate(183,40)"/>
<path d="M0 0 C2.97 0 5.94 0 9 0 C9.02508834 5.40364256 9.04303972 10.80724976 9.05493164 16.2109375 C9.0598995 18.04167269 9.06667607 19.87240405 9.07543945 21.703125 C9.12893799 33.18328233 8.8977261 44.55120897 8 56 C5.36 56 2.72 56 0 56 C0 37.52 0 19.04 0 0 Z " fill="#847C6B" transform="translate(188,41)"/>
<path d="M0 0 C2.64 0 5.28 0 8 0 C8.22991094 18.67387726 7.55355188 37.33676288 7 56 C4.69 56 2.38 56 0 56 C0 37.52 0 19.04 0 0 Z " fill="#847C6B" transform="translate(138,41)"/>
<path d="M0 0 C5 0 5 0 6.58203125 1.53125 C6.98808594 2.1809375 7.39414063 2.830625 7.8125 3.5 C8.23144531 4.1496875 8.65039062 4.799375 9.08203125 5.46875 C9.38496094 5.9740625 9.68789062 6.479375 10 7 C10.33 4.69 10.66 2.38 11 0 C11.99 0 12.98 0 14 0 C14 4.62 14 9.24 14 14 C8.54050926 12.90810185 7.98528919 12.31208438 5 8 C4.67 9.98 4.34 11.96 4 14 C2.68 14 1.36 14 0 14 C0 9.38 0 4.76 0 0 Z " fill="#847C6B" transform="translate(188,123)"/>
<path d="M0 0 C1.45792884 -0.05399736 2.91642712 -0.09279177 4.375 -0.125 C5.18710938 -0.14820312 5.99921875 -0.17140625 6.8359375 -0.1953125 C9 0 9 0 11 2 C11 2.99 11 3.98 11 5 C9.68 5 8.36 5 7 5 C7 4.34 7 3.68 7 3 C5.35 3 3.7 3 2 3 C2 3.66 2 4.32 2 5 C3.918125 5.185625 3.918125 5.185625 5.875 5.375 C9.75 5.75 9.75 5.75 12 8 C11.44444444 12.55555556 11.44444444 12.55555556 10 14 C8.35769636 14.1245486 6.70947724 14.17568524 5.0625 14.1875 C4.16660156 14.20167969 3.27070313 14.21585938 2.34765625 14.23046875 C0 14 0 14 -2 12 C-2 11.01 -2 10.02 -2 9 C-1.34 8.67 -0.68 8.34 0 8 C-0.66 7.34 -1.32 6.68 -2 6 C-1.64644564 3.73725212 -1.02455574 2.04911148 0 0 Z M2 9 C2.33 9.99 2.66 10.98 3 12 C4.65 11.67 6.3 11.34 8 11 C7.67 10.34 7.34 9.68 7 9 C5.35 9 3.7 9 2 9 Z " fill="#847C6B" transform="translate(223,123)"/>
<path d="M0 0 C1.60875 -0.020625 3.2175 -0.04125 4.875 -0.0625 C5.77992188 -0.07410156 6.68484375 -0.08570312 7.6171875 -0.09765625 C10 0 10 0 12 1 C12.484375 3.1796875 12.484375 3.1796875 12.75 5.875 C12.89695313 7.20144531 12.89695313 7.20144531 13.046875 8.5546875 C13 11 13 11 11 14 C7.30406029 14.41620943 3.72880913 14.13007474 0 14 C0 9.38 0 4.76 0 0 Z M3 3 C3 3.99 3 4.98 3 6 C4.65 6 6.3 6 8 6 C8 5.01 8 4.02 8 3 C6.35 3 4.7 3 3 3 Z M3 9 C3 9.99 3 10.98 3 12 C4.65 12 6.3 12 8 12 C8.33 11.01 8.66 10.02 9 9 C7.02 9 5.04 9 3 9 Z " fill="#847C6B" transform="translate(148,123)"/>
<path d="M0 0 C8.3984375 -0.1953125 8.3984375 -0.1953125 11 0 C11.66 0.66 12.32 1.32 13 2 C12.68143549 4.00240549 12.34578768 6.00211562 12 8 C12.37617294 11.26410357 12.37617294 11.26410357 13 14 C11.68 14 10.36 14 9 14 C8.67 12.68 8.34 11.36 8 10 C6.35 9.67 4.7 9.34 3 9 C3 10.65 3 12.3 3 14 C2.01 14 1.02 14 0 14 C0 9.38 0 4.76 0 0 Z M3 3 C3 3.99 3 4.98 3 6 C4.65 6 6.3 6 8 6 C8 5.01 8 4.02 8 3 C6.35 3 4.7 3 3 3 Z " fill="#847C6B" transform="translate(128,123)"/>
<path d="M0 0 C1.796875 0.16015625 1.796875 0.16015625 4 1 C5.703125 3.43359375 5.703125 3.43359375 7.25 6.4375 C7.77078125 7.42621094 8.2915625 8.41492188 8.828125 9.43359375 C10 12 10 12 10 14 C8.35 13.67 6.7 13.34 5 13 C5 12.34 5 11.68 5 11 C2.6568787 11.25561323 0.32156597 11.59270772 -2 12 C-2.33 12.66 -2.66 13.32 -3 14 C-4.32 14 -5.64 14 -7 14 C-5.53967505 8.68972746 -3.01679014 4.53669968 0 0 Z M1 5 C0.67 5.99 0.34 6.98 0 8 C0.99 7.67 1.98 7.34 3 7 C2.34 6.34 1.68 5.68 1 5 Z " fill="#847C6B" transform="translate(265,123)"/>
<path d="M0 0 C1.796875 0.16015625 1.796875 0.16015625 4 1 C5.703125 3.43359375 5.703125 3.43359375 7.25 6.4375 C7.77078125 7.42621094 8.2915625 8.41492188 8.828125 9.43359375 C10 12 10 12 10 14 C8.35 14 6.7 14 5 14 C5 13.01 5 12.02 5 11 C2.6568787 11.25561323 0.32156597 11.59270772 -2 12 C-2.33 12.66 -2.66 13.32 -3 14 C-4.32 14 -5.64 14 -7 14 C-5.53967505 8.68972746 -3.01679014 4.53669968 0 0 Z M1 5 C0.67 5.99 0.34 6.98 0 8 C0.99 7.67 1.98 7.34 3 7 C2.34 6.34 1.68 5.68 1 5 Z " fill="#847C6B" transform="translate(173,123)"/>
<path d="M0 0 C0.99 0 1.98 0 3 0 C3.06058594 0.61488281 3.12117188 1.22976562 3.18359375 1.86328125 C3.26738281 2.67152344 3.35117188 3.47976562 3.4375 4.3125 C3.51871094 5.11300781 3.59992188 5.91351563 3.68359375 6.73828125 C3.95265693 9.16087179 3.95265693 9.16087179 5 12 C6.65 11.67 8.3 11.34 10 11 C10 7.37 10 3.74 10 0 C11.32 0 12.64 0 14 0 C14.05437607 1.58294782 14.09296271 3.16644256 14.125 4.75 C14.14820312 5.63171875 14.17140625 6.5134375 14.1953125 7.421875 C13.99139502 10.1135858 13.36551721 11.69904974 12 14 C10.37536158 14.05395478 8.75021459 14.09277195 7.125 14.125 C6.22007813 14.14820313 5.31515625 14.17140625 4.3828125 14.1953125 C2 14 2 14 0 12 C-0.1953125 9.1796875 -0.1953125 9.1796875 -0.125 5.875 C-0.10695313 4.77929688 -0.08890625 3.68359375 -0.0703125 2.5546875 C-0.04710938 1.71164063 -0.02390625 0.86859375 0 0 Z " fill="#847C6B" transform="translate(107,123)"/>
<path d="M0 0 C1.60875 -0.04125 3.2175 -0.0825 4.875 -0.125 C5.77992188 -0.14820312 6.68484375 -0.17140625 7.6171875 -0.1953125 C10 0 10 0 12 2 C12.25 4.5 12.25 4.5 12 7 C10 9 10 9 6.375 9.125 C5.26125 9.08375 4.1475 9.0425 3 9 C3 10.65 3 12.3 3 14 C2.01 14 1.02 14 0 14 C0 9.38 0 4.76 0 0 Z M3 3 C3 3.99 3 4.98 3 6 C4.65 6 6.3 6 8 6 C8 5.01 8 4.02 8 3 C6.35 3 4.7 3 3 3 Z " fill="#847C6B" transform="translate(242,123)"/>
<path d="M0 0 C2.9375 0.8125 2.9375 0.8125 4.9375 3.8125 C4.75 6.375 4.75 6.375 3.9375 8.8125 C0.9375 10.8125 0.9375 10.8125 -2.1875 10.5 C-5.0625 9.8125 -5.0625 9.8125 -6.0625 8.8125 C-6.3125 5.375 -6.3125 5.375 -6.0625 1.8125 C-3.0625 -0.1875 -3.0625 -0.1875 0 0 Z " fill="#847C6B" transform="translate(284.0625,114.1875)"/>
</svg>
