<svg viewBox="0 0 104 26" fill="none" xmlns="http://www.w3.org/2000/svg" class="tbwa">
  <path
    d="M0 .5v5.25h6.557V25.5h5.79V5.75h6.556V.5H0ZM67.264.5l-4.186 15.352h-.07L59.243.5h-6.138l-3.837 15.352h-.07L45.014.5h-6.208l7.742 25h5.336l4.325-16.444h.035l4.15 16.444h5.336l7.742-25h-6.207ZM80.597 7.613h.07l2.72 8.415h-5.475l2.685-8.415ZM77.842.5l-9.067 25h6.103l1.43-4.472h8.684l1.465 4.472h6.104L83.422.5l-5.58.001ZM33.685 17.718c0-1.549-1.151-2.64-3.662-2.64h-3.348v5.281h3.348c2.162 0 3.662-.88 3.662-2.64Zm-7.01-7.255h2.755c1.743 0 3.139-.811 3.139-2.394 0-1.408-1.012-2.395-3.349-2.395h-2.545v4.79Zm13.078 8.063c0 4.015-2.616 6.973-7.917 6.973h-10.88V.5h9.346c5.51 0 8.16 2.253 8.16 6.091a5.703 5.703 0 0 1-.914 3.349 5.62 5.62 0 0 1-2.678 2.18v.07c3.348.916 4.882 3.24 4.882 6.338"
    fill="#fff"></path>
  <path d="m89.662.5 9.138 25h5.2L94.862.5h-5.2Z" fill="#FECC00"></path>
</svg>