<svg xmlns="http://www.w3.org/2000/svg" viewBox="114.7 114.6 874.1 253.2" xmlns:v="https://vecta.io/nano"><path d="M969.2 367.8H134.3c-10.8 0-19.6-8.8-19.6-19.6v-214c0-10.8 8.8-19.6 19.6-19.6h834.9c10.8 0 19.6 8.8 19.6 19.6v214c-.1 10.8-8.8 19.6-19.6 19.6z" fill="#fff"/><path d="M727.5 356h-593a7.92 7.92 0 0 1-7.9-7.9V134.5a7.92 7.92 0 0 1 7.9-7.9h593a7.92 7.92 0 0 1 7.9 7.9V348c0 4.4-3.6 8-7.9 8z" fill="#222745"/><path d="M969 356H755.5a7.92 7.92 0 0 1-7.9-7.9V134.5a7.92 7.92 0 0 1 7.9-7.9H969a7.92 7.92 0 0 1 7.9 7.9V348c0 4.4-3.5 8-7.9 8z" fill="#da292e"/><path d="M390 262.2v61.6h-12.3v-61.6h-21.3v-11h54.9v11zm117.7 61.6h-11.9l-20.1-51.1h12.7l13.5 37.5 13.5-37.5h12.3zm74.9-72.9h11.8v73h-11.8zm107 72.9l-12.7-18.4-12.9 18.4h-13.4l19.5-25.9-18.8-25.2h13.9l12.1 17.4 12.2-17.4H703l-18.9 25.1 19.5 26zm-263.2-51.4c-4.8.4-9.1 1.6-12.2 4.9v-4.6h-10.3v51.1h11.8v-22.2c0-4-.2-9.6 1.2-13.3 1.2-3.3 3-5.9 12.4-6.7l1.2-9.5c-.1.1-1.3.1-4.1.3m22.4 42.5c-8.1 0-9.9-2.4-9.9-6.8 0-5.4 2.3-6.7 9.5-6.7h13.7c0 8.9-1.2 13.5-13.3 13.5m2.9-43c-5.7-.2-11.3.3-13.9.7l-1.1 9c7-.4 13.9-.1 14.4-.1 10.2.4 10.4 4 10.8 10.3h-13.1c-10.9 0-21.8 1.7-21.8 16.5 0 12.5 7.7 16.3 19.9 16.3 7.3 0 12.7-2.2 15.9-5v4.2h10.6v-33.3c0-13.2-8.1-18.1-21.7-18.6m100.2 9.7c11 0 11.6 4.2 11.6 11.5h-23c0-6.7 1.1-11.5 11.4-11.5m-.1 33.5c-8-.3-10.6-3.1-11.3-8.2 0-.2-.1-.5-.1-.7v-.4c-.1-.9-.1-1.9-.1-3h35c0-17.8-1-30.9-23.3-30.9-20.5 0-23.5 11.7-23.5 27 0 6.3.6 11.9 2.8 16.2 3.1 6.6 10 9.5 19.9 9.5h1 .1c7.2 0 15.2-.5 19.3-1l1.3-9.5c-7 .5-13.1 1.3-21.1 1m73.2-33.5c11 0 11.6 4.2 11.6 11.5h-23c0-6.7 1.1-11.5 11.4-11.5m0 33.5c-8-.3-10.6-3.1-11.3-8.2 0-.2-.1-.5-.1-.7v-.4c-.1-.9-.1-1.9-.1-3h35c0-17.8-1-30.9-23.3-30.9-20.5 0-23.5 11.7-23.5 27 0 6.3.6 11.9 2.8 16.2 3.1 6.6 10 9.5 19.9 9.5h1 .1c7.2 0 15.2-.5 19.3-1l1.3-9.5c-7.1.5-13.2 1.3-21.1 1" fill="#fff"/></svg>