<?xml version="1.0" encoding="utf-8"?>
<!-- Generator: Adobe Illustrator 25.4.0, SVG Export Plug-In . SVG Version: 6.00 Build 0)  -->
<svg version="1.1" id="Layer_1" xmlns="http://www.w3.org/2000/svg" xmlns:xlink="http://www.w3.org/1999/xlink" x="0px" y="0px"
	 viewBox="0 0 300 119.05" style="enable-background:new 0 0 300 119.05;" xml:space="preserve">
<style type="text/css">
	.st0{fill:none;}
	.st1{fill:#1A3F70;}
	.st2{fill:#00AAA6;}
	.st3{fill:#FFFFFF;}
</style>
<rect class="st0" width="300" height="119.05"/>
<g>
	<g>
		<g>
			<path class="st1" d="M76.51,41.55L64.36,70.2c-0.33,0.77-1.09,1.31-1.98,1.31h-6.14l-5.26-14.72l-6.43,13.49
				c-0.35,0.72-1.08,1.22-1.94,1.22h-6.03L26,41.55h9.46l5.94,19.12l6.02-13.87l-1.88-5.25h8.5l6.46,19.12l7.39-19.12H76.51z"/>
			<path class="st1" d="M100.39,41.55l-0.75,4.29c-0.18,1-1.06,1.77-2.12,1.77H87.34l-0.98,5.6h11.58l-0.75,4.29
				c-0.18,1-1.06,1.77-2.12,1.77H85.3l-1.08,6.18h12l-0.75,4.29c-0.18,1-1.06,1.77-2.12,1.77h-19.1l5.24-29.96L100.39,41.55
				L100.39,41.55z"/>
			<path class="st1" d="M124.88,62.62c0,7.08-8.71,9.36-14.56,9.36c-5.18,0-8.05-0.99-11.25-2.39l1.22-6.98
				c1.45,1.54,6.18,3.19,10.21,3.19c2.28,0,4.95-0.81,4.95-2.71c0-4.64-12.87-4.04-12.87-12.97c0-5.12,4.78-9.04,12.87-9.04
				c4.69,0,8.01,0.94,10.03,1.82l-0.69,3.96c-0.14,0.81-0.84,1.42-1.69,1.42c-0.21,0-0.42-0.04-0.61-0.11
				c-2.34-0.9-4.53-1.17-6.26-1.17c-1.1,0-4.44,0.21-4.44,2.44C111.78,53.83,124.88,53.47,124.88,62.62z"/>
			<path class="st1" d="M154.95,41.55l-0.75,4.29c-0.18,1-1.06,1.77-2.12,1.77h-7.1l-3.87,22.13c-0.18,1-1.06,1.77-2.12,1.77h-7.1
				l4.18-23.9h-8.92l1.06-6.06C128.21,41.55,154.95,41.55,154.95,41.55z"/>
			<path class="st1" d="M167.15,41.55l-4.7,26.86c-1.68,9.57-7.51,14.32-13.68,16.01l-4.89-5.77c4.41-0.63,8.41-3.09,9.66-10.23
				l4.69-26.85L167.15,41.55z"/>
			<path class="st1" d="M192.59,41.55l-0.75,4.29c-0.18,1-1.06,1.77-2.11,1.77h-10.18l-0.98,5.6h11.58l-0.75,4.29
				c-0.18,1-1.06,1.77-2.11,1.77h-9.77l-1.08,6.18h12l-0.75,4.29c-0.18,1-1.06,1.77-2.11,1.77h-19.1l5.24-29.96L192.59,41.55
				L192.59,41.55z"/>
			<path class="st1" d="M221.52,41.55l-0.75,4.29c-0.18,1-1.06,1.77-2.12,1.77h-7.1l-3.87,22.13c-0.18,1-1.06,1.77-2.12,1.77h-7.1
				l4.18-23.9h-8.92l1.06-6.06C194.77,41.55,221.52,41.55,221.52,41.55z"/>
		</g>
		<g>
			<g>
				<path class="st2" d="M241.2,54.54l-4.74-7.03c0,0-2.13,2.39-2.61,2.91c-0.48,0.53-0.93,0.88-1.75,0.77
					c-1.01-0.15-5.43-1.06-5.43-1.06s-0.35,5.45-0.4,5.97c-0.06,0.55-0.24,1.24-1.19,2.05L241.2,54.54z"/>
				<path class="st2" d="M259.2,50.5l5.61-10.19c0,0-3.69,1.6-4.89,2.12c-1.21,0.52-1.69,0.44-1.88-0.41
					c-0.16-0.82-1.06-7.04-1.11-7.4c-0.35,0.35-6.48,6.57-7.33,7.4c-0.89,0.85-1.46,0.93-2.22,0.41c-0.77-0.52-3.1-2.1-3.1-2.1
					l-2.92,14.17L259.2,50.5z"/>
				<path class="st2" d="M269.55,56.1c0.38-0.52,4.45-5.97,4.45-5.97s-5,0.91-6.15,1.06c-0.9,0.11-1.04-0.24-1.08-0.77
					c-0.03-0.27-0.19-3.29-0.19-3.29l-7.26,3.51L242.54,70.4l12.38,1.92c0,0,0.04-1.89,0.09-3.3c0.07-1.4,0.86-1.65,1.35-1.94
					c0.47-0.3,14.6-8.46,14.6-8.46l-1.42-0.77C268.68,57.41,269.17,56.63,269.55,56.1"/>
			</g>
			<path class="st1" d="M222.98,58.55c0,0,5.98,7.06,6.23,7.35c1.42,1.67,1.39,2.35-0.06,4.12c-1.14,1.39-1.87,2.29-1.87,2.29
				s8.3-1.4,9.45-1.59c1.06-0.18,2.12,0.12,1.86,1.57c-0.18,1-1.17,6.47-1.17,6.47l4.95-8.41l8.73-14.86l-26.26,2.84L222.98,58.55z"
				/>
			<polygon class="st3" points="259.31,50.65 242.55,70.4 242.36,70.37 251.09,55.52 224.84,58.35 225.09,58.15 241.2,54.54 
				241.37,54.5 259.2,50.51 			"/>
		</g>
	</g>
</g>
</svg>
