<svg width="425" height="64" viewBox="0 0 425 64" fill="none" xmlns="http://www.w3.org/2000/svg"><g clip-path="url(#clip0)"><path d="M0 61.174V6.698H12.123V11.3975H5.82272V56.4216H12.123V61.174H0Z" fill="#231F20"/><path d="M50.9446 52.6287C47.5648 61.2797 44.7085 63.9639 38.1786 63.9639C36.8682 63.9444 35.5622 63.8148 34.2754 63.5767L34.7346 58.2963C35.9489 58.7225 37.2346 58.9313 38.5276 58.9124C41.439 58.9124 43.1197 57.6275 44.883 52.8751L46.0494 49.9181L35.203 22.1785H42.2013L46.9219 34.8602C47.8403 37.3156 48.5567 39.771 49.1904 42.1207H49.2455C49.8333 39.8854 51.0823 36.2507 52.1109 33.4609L56.2805 22.1785H62.9849L50.9446 52.6287Z" fill="#231F20"/><path d="M96.9295 36.4179H78.451C78.2765 42.8512 81.2522 45.7554 87.0198 45.7554C89.9395 45.7667 92.8265 45.166 95.4784 43.9953L96.057 48.7476C92.8673 49.95 89.4644 50.5478 86.0371 50.5077C76.9908 50.5077 72.0405 46.037 72.0405 36.2595C72.0405 27.8813 76.8255 21.624 85.2748 21.624C93.5405 21.624 97.104 27.0452 97.104 33.6369C97.0968 34.5662 97.0385 35.4945 96.9295 36.4179ZM85.036 26.0331C81.5461 26.0331 79.0939 28.4885 78.6072 32.1936H90.9047C90.9873 28.4445 88.7097 26.0331 85.036 26.0331Z" fill="#231F20"/><path d="M117.74 49.9442H111.504V13.7999C110.099 13.5711 108.124 13.3511 106.435 13.2367V9.54922C110.189 9.16039 113.967 9.03099 117.74 9.162V49.9442Z" fill="#231F20"/><path d="M141.059 49.9442H134.813V13.7999C133.417 13.5711 131.434 13.3511 129.753 13.2367V9.54922C133.507 9.16039 137.285 9.03099 141.059 9.162V49.9442Z" fill="#231F20"/><path d="M167.987 50.4987C159.941 50.4987 154.697 46.1952 154.697 36.4177C154.697 28.0395 160.345 21.615 169.153 21.615C176.904 21.615 182.387 25.7513 182.387 35.5288C182.387 44.0742 176.592 50.4987 167.987 50.4987ZM168.63 26.6402C164.837 26.6402 161.163 29.4388 161.163 35.8104C161.163 42.1821 163.734 45.3591 168.565 45.3591C172.588 45.3591 175.968 42.3405 175.968 35.916C175.968 29.9932 173.58 26.6842 168.63 26.6842V26.6402Z" fill="#231F20"/><path d="M227.738 49.9445H220.85L215.845 35.4146C215.202 33.5753 214.679 31.6744 214.155 29.5534H214.091C213.512 32.0088 212.869 34.1914 212.116 36.5323L207.745 49.9445H201.15L192.205 22.1785H199.029L202.877 35.0802C203.63 37.7204 204.448 40.3606 205.035 42.8512H205.09C205.669 40.1054 206.376 37.65 207.129 35.2474L211.492 22.1785H217.783L222.154 35.0274C223.266 38.3805 223.844 40.4486 224.432 42.8512H224.487C225.066 40.2814 225.654 38.046 226.526 35.309L230.549 22.1785H236.978L227.738 49.9445Z" fill="#231F20"/><path d="M278.793 50.446C272.621 50.446 270.748 48.1578 270.748 41.9534V26.8163H265.237V22.1783H270.748V13.3777L276.929 11.7231V22.1783H284.57V26.8163H276.984V40.1052C276.984 44.2415 277.902 45.3856 280.777 45.3856C282.056 45.3854 283.329 45.2347 284.57 44.9368V49.8563C282.668 50.2297 280.734 50.4272 278.793 50.446Z" fill="#231F20"/><path d="M313.711 49.9443C313.683 48.2269 313.778 46.5096 313.995 44.8047L313.94 44.7431C313.122 46.5141 311.769 48.0093 310.054 49.0353C308.34 50.0614 306.344 50.5711 304.324 50.4987C299.365 50.4987 296.224 47.8585 296.224 43.4054C296.224 37.0337 302.873 33.3463 313.297 33.3463V31.5861C313.297 28.1275 311.791 26.3057 307.236 26.3057C304.209 26.3342 301.241 27.1037 298.612 28.5411L298.033 23.4631C301.287 22.2604 304.741 21.6342 308.228 21.615C317.09 21.615 319.543 25.3025 319.543 31.0053V45.3063C320.939 45.5264 322.922 45.7552 324.612 45.8608V49.5658C320.993 49.9443 317.349 50.0708 313.711 49.9443ZM313.297 37.3681C304.214 37.3681 302.231 40.0083 302.231 42.4021C302.231 44.4703 303.746 45.808 306.189 45.808C310.441 45.808 313.297 41.9005 313.297 37.8874V37.3681Z" fill="#231F20"/><path d="M344.9 49.9444H338.719V26.8163C337.323 26.5875 335.34 26.3675 333.65 26.2531V22.5656C337.385 22.1767 341.145 22.0473 344.9 22.1784V49.9444ZM341.805 18.0421C341.036 18.0213 340.29 17.7837 339.661 17.3589C339.033 16.9341 338.548 16.3411 338.269 15.654C337.99 14.9669 337.929 14.2162 338.093 13.4958C338.257 12.7754 338.639 12.1173 339.191 11.6039C339.743 11.0904 340.441 10.7444 341.197 10.6091C341.954 10.4738 342.735 10.5552 343.443 10.8431C344.152 11.1311 344.756 11.6128 345.18 12.2279C345.604 12.8431 345.829 13.5645 345.828 14.3018C345.822 14.801 345.713 15.2942 345.507 15.7529C345.301 16.2115 345.003 16.6267 344.629 16.9743C344.255 17.322 343.813 17.5953 343.328 17.7786C342.844 17.9619 342.326 18.0514 341.805 18.0421Z" fill="#231F20"/><path d="M368.21 49.9446H361.974V13.8003C360.578 13.5715 358.594 13.3515 356.904 13.2371V9.54961C360.658 9.16096 364.436 9.03155 368.21 9.16238V49.9446Z" fill="#231F20"/><path d="M393.567 61.174V56.4216H399.858V11.3975H393.567V6.698H405.69V61.174H393.567Z" fill="#231F20"/><path d="M417.868 0.0356899C419.271 0.0269744 420.645 0.417949 421.816 1.15899C422.987 1.90003 423.902 2.95772 424.444 4.1978C424.987 5.43789 425.132 6.80446 424.863 8.12405C424.593 9.44364 423.921 10.6567 422.931 11.6094C421.94 12.562 420.677 13.2113 419.301 13.4747C417.925 13.7381 416.498 13.6038 415.202 13.0888C413.906 12.5739 412.798 11.7015 412.021 10.5824C411.243 9.46333 410.829 8.148 410.833 6.80339C410.821 5.91361 410.994 5.03045 411.343 4.20577C411.692 3.3811 412.209 2.63153 412.864 2.00108C413.52 1.37063 414.3 0.872006 415.159 0.5345C416.018 0.196993 416.939 0.0274053 417.868 0.0356899ZM417.868 1.09176C416.366 1.20479 414.963 1.85648 413.94 2.91681C412.917 3.97713 412.349 5.36811 412.349 6.81219C412.349 8.25626 412.917 9.64725 413.94 10.7076C414.963 11.7679 416.366 12.4196 417.868 12.5326C419.37 12.4196 420.773 11.7679 421.796 10.7076C422.819 9.64725 423.387 8.25626 423.387 6.81219C423.387 5.36811 422.819 3.97713 421.796 2.91681C420.773 1.85648 419.37 1.20479 417.868 1.09176ZM416.545 10.7725H415.287V3.19512C416.025 3.07776 416.771 3.01597 417.519 3.01031C418.378 2.95598 419.234 3.15565 419.971 3.58235C420.215 3.76733 420.408 4.00691 420.533 4.28004C420.658 4.55317 420.711 4.85151 420.687 5.14886C420.688 5.57682 420.536 5.99217 420.257 6.3265C419.979 6.66083 419.589 6.89421 419.154 6.9882V7.0498C419.842 7.16421 420.311 7.77146 420.467 8.88034C420.533 9.52359 420.704 10.153 420.972 10.7461H419.65C419.332 10.1431 419.13 9.49025 419.053 8.81874C419.042 8.62212 418.989 8.42979 418.896 8.25417C418.803 8.07855 418.673 7.92353 418.514 7.79914C418.354 7.67474 418.17 7.58372 417.971 7.53196C417.773 7.4802 417.566 7.46885 417.363 7.49864H416.444L416.545 10.7725ZM416.545 6.59217H417.464C418.502 6.59217 419.383 6.23134 419.383 5.29848C419.383 4.62963 418.878 3.96958 417.464 3.96958C417.157 3.96992 416.85 3.9905 416.545 4.03118V6.59217Z" fill="#231F20"/></g><defs><clipPath id="clip0"><rect width="424.811" height="63.9279" fill="white" transform="translate(0 0.0358887)"/></clipPath></defs></svg>