<svg width="49.665" height="18.9" viewBox="0 0 49.665 18.9" xmlns="http://www.w3.org/2000/svg"><g id="svgGroup" stroke-linecap="round" fill-rule="nonzero" font-size="9pt" stroke="#FEF5E4" stroke-width="0.25mm" fill="#FEF5E4" style="stroke:#FEF5E4;stroke-width:0.25mm;fill:#FEF5E4"><path d="M 9.471 13.86 L 2.856 13.86 L 2.856 13.65 L 3.717 13.44 A 1.376 1.376 0 0 0 4.109 13.295 Q 4.505 13.068 4.567 12.58 A 1.509 1.509 0 0 0 4.578 12.39 L 4.578 0.42 L 2.793 0.42 A 2.321 2.321 0 0 0 2.391 0.452 Q 2.174 0.491 2.007 0.574 A 0.975 0.975 0 0 0 1.68 0.829 A 4.52 4.52 0 0 0 1.433 1.163 Q 1.208 1.496 0.966 1.953 L 0.21 3.423 L 0 3.423 L 0.105 0 L 12.222 0 L 12.306 3.423 L 12.096 3.423 L 11.34 1.953 Q 11.089 1.451 10.849 1.1 A 3.894 3.894 0 0 0 10.647 0.829 A 1.017 1.017 0 0 0 10.201 0.523 Q 10.029 0.459 9.816 0.435 A 2.504 2.504 0 0 0 9.534 0.42 L 7.749 0.42 L 7.749 12.39 A 1.278 1.278 0 0 0 7.813 12.809 Q 7.946 13.193 8.354 13.361 A 1.532 1.532 0 0 0 8.61 13.44 L 9.471 13.65 L 9.471 13.86 Z M 36.855 16.968 L 37.002 17.136 A 1.257 1.257 0 0 0 37.116 17.272 Q 37.506 17.671 37.896 17.156 A 1.612 1.612 0 0 0 37.926 17.115 A 6.105 6.105 0 0 0 38.062 16.875 Q 38.13 16.749 38.204 16.602 A 14.463 14.463 0 0 0 38.356 16.285 Q 38.593 15.782 38.899 14.948 A 33.121 33.121 0 0 0 38.913 14.91 L 34.839 5.166 A 4.038 4.038 0 0 0 34.727 4.892 Q 34.669 4.764 34.608 4.659 A 1.88 1.88 0 0 0 34.524 4.526 A 0.959 0.959 0 0 0 34.333 4.325 Q 34.238 4.249 34.115 4.183 A 2.006 2.006 0 0 0 33.978 4.116 L 33.6 3.969 L 33.6 3.759 L 38.829 3.759 L 38.829 3.948 L 38.409 4.116 A 1.163 1.163 0 0 0 38.218 4.194 Q 38.122 4.245 38.059 4.309 A 0.403 0.403 0 0 0 37.937 4.589 A 1.205 1.205 0 0 0 37.936 4.627 Q 37.936 4.942 38.094 5.397 L 40.278 11.067 L 42.357 5.334 A 2.959 2.959 0 0 0 42.436 5.069 Q 42.51 4.769 42.485 4.543 A 0.957 0.957 0 0 0 42.483 4.526 Q 42.449 4.258 42.116 4.125 A 1.335 1.335 0 0 0 41.958 4.074 L 41.517 3.969 L 41.517 3.759 L 44.436 3.759 L 44.436 3.969 L 43.974 4.116 A 1.978 1.978 0 0 0 43.707 4.217 Q 43.574 4.28 43.475 4.356 A 0.814 0.814 0 0 0 43.302 4.536 Q 43.113 4.809 42.945 5.292 L 39.564 14.511 A 23.084 23.084 0 0 1 39.059 15.766 Q 38.552 16.917 38.045 17.643 A 5.99 5.99 0 0 1 37.926 17.808 A 2.863 2.863 0 0 1 37.181 18.515 A 2.501 2.501 0 0 1 35.805 18.9 Q 35.118 18.9 34.663 18.619 A 1.553 1.553 0 0 1 34.471 18.48 A 1.375 1.375 0 0 1 34.079 17.952 A 1.419 1.419 0 0 1 33.978 17.409 Q 33.978 16.821 34.398 16.464 Q 34.818 16.107 35.343 16.107 A 2.072 2.072 0 0 1 35.742 16.143 Q 35.988 16.192 36.185 16.304 A 1.284 1.284 0 0 1 36.225 16.328 A 1.832 1.832 0 0 1 36.619 16.66 A 2.431 2.431 0 0 1 36.855 16.968 Z M 18.606 13.86 L 13.167 13.86 L 13.167 13.65 L 13.482 13.566 A 1.566 1.566 0 0 0 13.714 13.478 Q 13.95 13.363 14.06 13.188 Q 14.196 12.969 14.214 12.64 A 1.879 1.879 0 0 0 14.217 12.537 L 14.217 5.964 A 2.163 2.163 0 0 0 14.205 5.723 Q 14.177 5.474 14.086 5.322 A 0.577 0.577 0 0 0 14.06 5.281 A 0.595 0.595 0 0 0 13.884 5.122 Q 13.801 5.071 13.693 5.033 A 1.582 1.582 0 0 0 13.482 4.977 L 13.167 4.893 L 13.167 4.683 L 16.779 3.465 L 16.989 3.675 L 17.178 5.481 L 17.178 5.649 Q 17.472 5.061 17.945 4.568 Q 18.417 4.074 18.995 3.759 A 2.699 2.699 0 0 1 19.565 3.524 A 2.14 2.14 0 0 1 20.139 3.444 A 2.305 2.305 0 0 1 20.619 3.491 Q 21.074 3.588 21.357 3.885 A 1.508 1.508 0 0 1 21.77 4.824 A 2.013 2.013 0 0 1 21.777 4.998 A 1.996 1.996 0 0 1 21.731 5.441 Q 21.639 5.843 21.368 6.101 Q 20.958 6.489 20.391 6.489 A 1.708 1.708 0 0 1 19.301 6.091 Q 19.058 5.896 18.837 5.607 L 18.795 5.565 A 1.024 1.024 0 0 0 18.658 5.407 Q 18.5 5.261 18.312 5.24 A 0.457 0.457 0 0 0 18.26 5.236 Q 18.017 5.236 17.808 5.502 Q 17.598 5.691 17.462 5.954 Q 17.325 6.216 17.199 6.552 L 17.199 12.411 A 1.444 1.444 0 0 0 17.25 12.81 Q 17.381 13.264 17.844 13.432 A 1.356 1.356 0 0 0 17.934 13.461 L 18.606 13.65 L 18.606 13.86 Z M 26.337 14.03 A 4.963 4.963 0 0 1 24.969 13.514 Q 23.793 12.852 23.153 11.634 A 5.484 5.484 0 0 1 22.602 9.947 A 7.299 7.299 0 0 1 22.512 8.778 A 6.604 6.604 0 0 1 22.657 7.362 A 5.012 5.012 0 0 1 23.195 5.943 Q 23.877 4.746 25.064 4.095 A 5.31 5.31 0 0 1 27.193 3.467 A 6.464 6.464 0 0 1 27.741 3.444 Q 29.232 3.444 30.408 4.085 Q 31.584 4.725 32.267 5.922 A 5.086 5.086 0 0 1 32.845 7.552 A 6.903 6.903 0 0 1 32.949 8.778 A 7.246 7.246 0 0 1 32.826 10.143 A 5.322 5.322 0 0 1 32.309 11.645 Q 31.668 12.852 30.503 13.514 A 4.984 4.984 0 0 1 28.877 14.082 A 6.666 6.666 0 0 1 27.741 14.175 A 6.479 6.479 0 0 1 26.337 14.03 Z M 27.741 13.755 A 2.084 2.084 0 0 0 28.25 13.696 A 1.467 1.467 0 0 0 28.917 13.335 Q 29.317 12.954 29.518 12.037 A 6.165 6.165 0 0 0 29.558 11.844 A 9.271 9.271 0 0 0 29.662 11.099 Q 29.744 10.301 29.755 9.191 A 35.771 35.771 0 0 0 29.757 8.82 A 32.719 32.719 0 0 0 29.745 7.889 Q 29.716 6.886 29.621 6.179 A 8.016 8.016 0 0 0 29.558 5.775 A 5.286 5.286 0 0 0 29.43 5.238 Q 29.237 4.589 28.917 4.284 A 1.486 1.486 0 0 0 28.172 3.905 A 2.152 2.152 0 0 0 27.741 3.864 A 2.093 2.093 0 0 0 27.22 3.926 A 1.511 1.511 0 0 0 26.555 4.284 A 1.513 1.513 0 0 0 26.274 4.65 Q 26.034 5.072 25.904 5.775 Q 25.731 6.701 25.708 8.301 A 35.531 35.531 0 0 0 25.704 8.82 Q 25.704 10.43 25.84 11.44 A 8.065 8.065 0 0 0 25.903 11.844 A 5.142 5.142 0 0 0 26.031 12.381 Q 26.197 12.931 26.457 13.234 A 1.264 1.264 0 0 0 26.555 13.335 A 1.536 1.536 0 0 0 27.33 13.718 A 2.185 2.185 0 0 0 27.741 13.755 Z M 47.062 14 A 1.798 1.798 0 0 1 46.578 13.65 A 1.717 1.717 0 0 1 46.053 12.413 A 2.041 2.041 0 0 1 46.053 12.39 Q 46.053 11.655 46.578 11.109 A 1.706 1.706 0 0 1 47.812 10.564 A 2.064 2.064 0 0 1 47.859 10.563 A 1.705 1.705 0 0 1 49.107 11.075 A 2.076 2.076 0 0 1 49.14 11.109 Q 49.665 11.655 49.665 12.39 A 1.716 1.716 0 0 1 49.156 13.634 A 2.109 2.109 0 0 1 49.14 13.65 Q 48.615 14.175 47.859 14.175 A 1.794 1.794 0 0 1 47.062 14 Z"/></g></svg>